<?xml version="1.0" standalone="no"?>
<!DOCTYPE svg PUBLIC "-//W3C//DTD SVG 1.1//EN" "http://www.w3.org/Graphics/SVG/1.1/DTD/svg11.dtd" >
<svg xmlns="http://www.w3.org/2000/svg" xmlns:xlink="http://www.w3.org/1999/xlink" version="1.1">
<metadata>
Created by FontForge 20170731 at Wed Oct 28 07:28:26 2020
 By Aleksey,,,
Copyright (c) 1994, 2001 Adobe Systems Incorporated.  All Rights Reserved.
</metadata>
<defs>
<font id="ITCGaramondStd-LtCondIta" horiz-adv-x="454" >
  <font-face 
    font-family="ITC Garamond Std Lt Cond"
    font-weight="300"
    font-style="italic"
    font-stretch="condensed"
    units-per-em="2048"
    panose-1="2 2 4 6 5 7 6 9 3 4"
    ascent="1440"
    descent="-608"
    x-height="950"
    cap-height="1290"
    bbox="-391 -512 2017 1753"
    underline-thickness="102"
    underline-position="-307"
    slope="-16"
    unicode-range="U+0020-FB02"
  />
<missing-glyph horiz-adv-x="1241" 
d="M217 0v1434h1024v-1434h-1024zM729 809l348 522h-696zM791 717l348 -522v1044zM381 102h696l-348 523zM319 1239v-1044l349 522z" />
    <glyph glyph-name="fi" unicode="fi" horiz-adv-x="1024" 
d="M276 877h-129q-10 0 -10 10q0 8 6 26q3 9 6.5 11t14.5 2h125q18 70 28 105t37.5 103.5t59.5 118.5q127 197 344 197q89 0 142.5 -37t53.5 -98q0 -41 -22 -61.5t-58 -20.5q-71 0 -71 65q0 18 9 36t9 28q0 17 -26 28t-62 11q-107 0 -172.5 -95.5t-126.5 -308.5
q-12 -46 -20 -71h364q41 0 90 2t56 2q12 0 12 -10q0 -3 -4.5 -16t-14.5 -42t-18 -51q-20 -56 -94 -263t-103 -292q-32 -99 -32 -119q0 -31 18 -31q47 0 129 119q13 19 26 40t20.5 33t14.5 22.5t12.5 15t10.5 4.5q14 0 14 -14q0 -10 -30 -63.5t-72.5 -116t-98.5 -112.5
t-100 -50q-69 0 -69 92q0 43 35 162q26 87 87.5 261t73.5 210q29 89 29 110q0 34 -27.5 46t-109.5 12h-232q-97 -390 -118 -469q-45 -178 -66.5 -259t-57 -189.5t-69.5 -176.5q-54 -111 -122 -166t-161 -55q-54 0 -91.5 30t-37.5 89q0 39 18.5 58t45.5 19q44 0 55 -45
q3 -11 4 -36.5t4 -34.5q9 -31 45 -31q39 0 64.5 25t52.5 94q30 74 69.5 216.5t117.5 448.5q121 478 122 482z" />
    <glyph glyph-name="fl" unicode="fl" horiz-adv-x="1024" 
d="M276 877h-129q-10 0 -10 10q0 8 6 26q3 9 6.5 11t14.5 2h125q18 70 28 105t37.5 103.5t59.5 118.5q128 197 352 197q47 0 89.5 -16t66.5 -45q146 61 157 61t11 -16q0 -4 -8.5 -19.5t-20.5 -41.5t-19 -50q-14 -47 -143 -464t-174 -578q-33 -122 -33 -144q0 -31 19 -31
q24 0 59.5 37.5t65.5 92.5q8 14 18 34t16 31t13.5 23t14 17t13.5 5q17 0 17 -16q0 -20 -28 -75.5t-68.5 -116.5t-94.5 -107.5t-98 -46.5q-40 0 -56 25t-16 73q0 64 47 233q55 182 160.5 532t116.5 386q-19 0 -29 1t-26.5 6.5t-24.5 20t-8 37.5q0 18 9 36t9 28q0 17 -26 28
t-62 11q-108 0 -175 -96.5t-122 -307.5q-12 -46 -18 -71h155q11 0 11 -11q0 -8 -6 -26q-3 -9 -6.5 -10.5t-14.5 -1.5h-151q-19 -74 -121 -469q-94 -362 -135 -477q-29 -86 -60 -148q-54 -111 -122 -166t-161 -55q-54 0 -91.5 30t-37.5 89q0 39 18.5 58t45.5 19q44 0 55 -45
q3 -11 4 -36.5t4 -34.5q9 -31 45 -31q38 0 63.5 24.5t53.5 94.5q30 74 69.5 216.5t117.5 448.5q121 478 122 482z" />
    <glyph glyph-name=".notdef" horiz-adv-x="1241" 
d="M217 0v1434h1024v-1434h-1024zM729 809l348 522h-696zM791 717l348 -522v1044zM381 102h696l-348 523zM319 1239v-1044l349 522z" />
    <glyph glyph-name=".null" horiz-adv-x="0" 
 />
    <glyph glyph-name="nonmarkingreturn" horiz-adv-x="682" 
 />
    <glyph glyph-name="space" unicode=" " 
 />
    <glyph glyph-name="exclam" unicode="!" horiz-adv-x="569" 
d="M569 1249v-2q0 -36 -41 -129q-144 -339 -278 -717q-10 -28 -13.5 -38t-10.5 -23.5t-13 -17t-14 -3.5q-21 0 -21 21q0 8 12 55q31 116 79 311.5t83 340.5t45 174q15 49 38 71.5t71 22.5q30 0 46.5 -20t16.5 -46zM57 57v2q0 52 22.5 93t63.5 41q29 0 47.5 -22t18.5 -56
q0 -53 -22.5 -94t-63.5 -41q-29 0 -47.5 21.5t-18.5 55.5z" />
    <glyph glyph-name="quotedbl" unicode="&#x22;" horiz-adv-x="681" 
d="M244 692h-2q-17 0 -23 64q-31 306 -31 444q0 66 13.5 90.5t42.5 24.5q28 0 41.5 -24t13.5 -91q0 -138 -31 -444q-3 -35 -8 -49.5t-16 -14.5zM537 692h-2q-17 0 -23 64q-31 306 -31 444q0 66 13.5 90.5t42.5 24.5q28 0 41.5 -24t13.5 -91q0 -138 -31 -444q-3 -35 -8 -49.5
t-16 -14.5z" />
    <glyph glyph-name="numbersign" unicode="#" horiz-adv-x="909" 
d="M80 674h190q26 -1 33 4t16 33l48 147q10 27 10 39q-2 12 -43 12h-168q-26 0 -36.5 2.5t-10.5 12.5l6 24l14 47q7 15 45 15h193q27 0 33.5 5t15.5 32l66 198q8 25 12.5 31t17.5 6q27 0 27 -14q0 -7 -8 -35l-60 -176q-6 -18 -6 -33q0 -10 8.5 -12t32.5 -2h172q27 0 33.5 5
t15.5 32l66 198q8 24 13 30.5t18 6.5q26 0 26 -14q0 -7 -8 -35l-59 -176q-7 -21 -7 -33q0 -14 43 -14h168q26 0 36.5 -2.5t10.5 -12.5l-6 -24l-16 -47q-3 -9 -11.5 -12t-31.5 -3h-191q-29 0 -35.5 -5t-15.5 -32l-49 -149q-10 -30 -10 -37q0 -12 43 -12h168q27 0 37 -2.5
t10 -12.5q0 -8 -4 -24l-17 -47q-3 -9 -11.5 -12t-31.5 -3h-190q-28 0 -36 -5t-15 -31l-72 -226q-8 -26 -12.5 -31.5t-18.5 -5.5q-24 0 -24 15q0 7 8 35l63 200q9 31 9 35q-1 10 -9 12t-38 2h-164q-30 0 -37.5 -5t-16.5 -31l-71 -226q-8 -26 -12.5 -31.5t-18.5 -5.5
q-24 0 -24 15q0 7 8 35l63 200q8 28 8 35q0 10 -8.5 12t-34.5 2h-168q-27 0 -36.5 2.5t-10.5 12.5q0 8 4 24l17 47q3 9 11.5 12t33.5 3zM645 909h-170q-27 0 -34.5 -6t-16.5 -33l-49 -149q-8 -24 -8 -37q0 -12 45 -12h172q26 0 32 5t15 32l49 149q10 20 10 37q0 10 -9.5 12
t-35.5 2z" />
    <glyph glyph-name="dollar" unicode="$" horiz-adv-x="909" 
d="M258 100l131 570q-117 152 -117 270q0 70 25.5 135t85 120t145.5 75l39 172q4 18 10 26t11 9.5t16 1.5q16 0 20 -5t-1 -36l-37 -158q16 2 51 2q41 0 74 -10l39 170q4 18 9.5 26t10.5 9.5t16 1.5q16 0 20 -5t-1 -36l-43 -183q59 -23 102 -54t43 -50q0 -20 -16 -76
q-31 -109 -39 -139q-10 -43 -33 -43q-15 0 -21 5t-10 30.5t-4 81.5q0 121 -39 168l-129 -551q123 -148 123 -279q0 -62 -24.5 -123t-85.5 -117.5t-150 -80.5l-47 -207q-4 -18 -10 -26t-11 -9.5t-16 -1.5q-16 0 -19.5 5t1.5 36l43 188q-46 -4 -68 -4q-15 0 -57 6l-45 -194
q-4 -18 -10 -26t-11 -9.5t-16 -1.5q-16 0 -19.5 5t1.5 36l47 203q-60 16 -103 46t-43 62q0 9 13 66q21 92 34 166q5 25 11.5 34t21.5 9q20 0 26.5 -20.5t6.5 -61.5q0 -4 -0.5 -31.5t0 -38.5t1.5 -36t4.5 -39t9 -32t14 -30.5t20.5 -20.5zM575 1231l-100 -430q17 -24 55.5 -70
t42.5 -51l123 534q-36 19 -82 19q-25 0 -39 -2zM434 864l80 350q-55 -24 -87 -78.5t-32 -136.5q0 -68 39 -135zM432 66l98 426q-1 2 -98 122l-125 -544q37 -13 68 -13q30 0 57 9zM571 428l-77 -338q122 64 122 207q0 64 -45 131z" />
    <glyph glyph-name="percent" unicode="%" horiz-adv-x="1251" 
d="M160 -20v2q0 8 33 55l856 1243q1 2 4 6q17 25 25 28l9 1h25q27 0 27 -12q0 -11 -33 -58l-856 -1243q-15 -22 -21.5 -28.5t-17.5 -6.5h-25q-26 0 -26 13zM471 1278h-2q-55 0 -107 -53.5t-85.5 -128.5t-53.5 -150.5t-20 -124.5q0 -33 3.5 -58.5t14 -51.5t32.5 -40t56 -14
q45 0 88.5 35.5t75 90t56 117.5t37 119.5t12.5 94.5q0 26 -2 46.5t-8.5 43.5t-18 38.5t-31.5 25.5t-47 10zM993 625h-2q-55 0 -107 -53.5t-85.5 -128.5t-53.5 -150.5t-20 -124.5q0 -33 3.5 -58.5t14 -51.5t32.5 -40t56 -14q45 0 88.5 35.5t75 90t56 117.5t37 119.5
t12.5 94.5q0 26 -2 46.5t-8.5 43.5t-18 38.5t-31.5 25.5t-47 10zM309 621h-2q-94 0 -149.5 67t-55.5 182q0 103 50 206t136.5 171t182.5 68t151.5 -67.5t55.5 -182.5q0 -97 -47 -198.5t-134.5 -173.5t-187.5 -72zM831 -33h-2q-94 0 -149 67.5t-55 182.5q0 103 49.5 206
t136 171t182.5 68t151.5 -67.5t55.5 -182.5q0 -71 -28.5 -149.5t-76.5 -144t-118 -108.5t-146 -43z" />
    <glyph glyph-name="ampersand" unicode="&#x26;" horiz-adv-x="1138" 
d="M25 373v2q0 165 102.5 280t261.5 148q-57 72 -57 178q0 138 104.5 236t253.5 98q43 0 80.5 -10t60.5 -24t39.5 -30t23.5 -27.5t7 -17.5q0 -39 -22 -141q-1 -5 -4 -19t-5 -21t-5 -19t-6.5 -18t-8 -13.5t-10 -10.5t-11.5 -3q-11 0 -17 6.5t-8.5 20.5t-3.5 28.5t-2.5 37
t-4.5 40.5q-10 57 -55.5 87.5t-104.5 30.5q-89 0 -166.5 -74t-77.5 -184q0 -80 51 -139q46 4 68 4q119 0 119 -51q0 -39 -72 -39q-74 0 -127 35q-78 -24 -137.5 -83t-89 -133t-29.5 -151q0 -154 88.5 -257t220.5 -103q91 0 176 50.5t136 130.5t51 163q0 61 -32.5 96
t-96.5 35q-50 0 -93.5 -24t-66 -52t-40.5 -52t-23 -24q-11 0 -11 21q0 57 60 117q96 96 282 96q126 0 168 11t60 54q2 6 5 14.5t5 13.5t4.5 10t5.5 7.5t6 2.5q8 0 10.5 -7t2.5 -36q0 -72 -52 -127.5t-120 -55.5q-17 0 -29 4q12 -46 12 -102q0 -76 -37.5 -151t-103.5 -134
q-148 -131 -348 -131q-80 0 -146 26t-109.5 67.5t-74 95.5t-44 108.5t-13.5 108.5z" />
    <glyph glyph-name="quotesingle" unicode="'" 
d="M293 692h-2q-17 0 -23 64q-30 296 -30 444q0 67 13.5 91t41.5 24t41.5 -24t13.5 -91q0 -138 -31 -444q-3 -35 -8 -49.5t-16 -14.5z" />
    <glyph glyph-name="parenleft" unicode="(" horiz-adv-x="681" 
d="M922 1434v-2q0 -6 -28 -14.5t-90.5 -36t-125.5 -70.5q-119 -81 -223.5 -246.5t-169 -349t-101.5 -357t-37 -292.5q0 -154 63 -263.5t146 -134.5q9 -2 18.5 -4.5t14.5 -3.5t9.5 -2.5t6 -3.5t1.5 -6q0 -17 -17 -17q-61 0 -119.5 41.5t-106.5 116.5t-77 192.5t-29 256.5
q0 277 118.5 553t320.5 452q117 102 235.5 154.5t173.5 52.5q17 0 17 -16z" />
    <glyph glyph-name="parenright" unicode=")" horiz-adv-x="681" 
d="M-283 -352v2q0 6 28 14.5t90.5 36t125.5 70.5q119 81 223.5 246.5t169 349t101.5 357t37 292.5q0 154 -63 263t-146 134l-18 4.5t-15 3.5t-9.5 3t-6 4t-1.5 6q0 16 17 16q61 0 119.5 -41.5t106.5 -116.5t77 -192t29 -256q0 -277 -119 -553.5t-320 -452.5
q-117 -102 -235.5 -154.5t-173.5 -52.5q-17 0 -17 17z" />
    <glyph glyph-name="asterisk" unicode="*" horiz-adv-x="796" 
d="M549 1315h2q29 0 47 -17.5t18 -46.5q0 -35 -28.5 -79.5t-57 -86t-28.5 -69.5q0 -15 20 -15q22 0 105 55.5t121 55.5q30 0 48.5 -15.5t18.5 -45.5q0 -38 -22 -55t-70 -17q-26 0 -77.5 6t-74.5 6q-53 0 -53 -22q0 -19 36 -41t79 -40t79 -48.5t36 -63.5q0 -65 -66 -65
q-32 0 -61.5 37.5t-47.5 83t-39 83t-38 37.5q-21 0 -21 -61q0 -42 8.5 -91t8.5 -65q0 -90 -76 -90q-31 0 -49.5 17.5t-18.5 46.5q0 35 29 79.5t57.5 86t28.5 69.5q0 14 -21 14q-22 0 -104.5 -55t-120.5 -55q-30 0 -48.5 15.5t-18.5 45.5q0 38 22 55t70 17q26 0 77 -6t74 -6
q53 0 53 22q0 19 -36 41t-78.5 40t-78.5 48.5t-36 63.5q0 65 66 65q32 0 61.5 -37.5t47.5 -83t39 -83t38 -37.5q20 0 20 61q0 42 -8 91t-8 65q0 90 76 90z" />
    <glyph glyph-name="plus" unicode="+" horiz-adv-x="1228" 
d="M563 569v467h103v-467h464v-102h-464v-467h-103v467h-465v102h465z" />
    <glyph glyph-name="comma" unicode="," 
d="M37 70v2q0 18 7.5 44t30 51.5t54.5 25.5q68 0 68 -119q0 -85 -54 -190.5t-114.5 -172.5t-87.5 -67q-11 0 -11 16q0 8 11.5 20t43 45.5t64.5 79.5q30 40 54 90.5t24 71.5q0 23 -21 31q-6 2 -28 2q-41 0 -41 70z" />
    <glyph glyph-name="hyphen" unicode="-" horiz-adv-x="569" 
d="M84 508h362q29 0 29 -10q0 -5 -31 -64q-8 -16 -26 -16h-371q-27 0 -27 10q0 1 29 61q5 9 7.5 11.5t9 5t18.5 2.5z" />
    <glyph glyph-name="period" unicode="." 
d="M184 115v-2q0 -52 -22.5 -92.5t-63.5 -40.5q-29 0 -47 21.5t-18 55.5q0 53 22.5 94.5t63.5 41.5q29 0 47 -22t18 -56z" />
    <glyph glyph-name="slash" unicode="/" horiz-adv-x="569" 
d="M768 1423v-2q0 -3 -20 -43l-932 -1685q-15 -28 -23 -36.5t-20 -8.5h-29q-23 0 -23 10q0 3 21 45l932 1686q15 28 23 36.5t20 8.5h28q23 0 23 -11z" />
    <glyph glyph-name="zero" unicode="0" horiz-adv-x="909" 
d="M70 420v2q0 150 48.5 310.5t126 288.5t182.5 211t210 83q116 0 184 -112.5t68 -340.5q0 -150 -48.5 -311.5t-126 -289.5t-182.5 -211t-210 -83q-116 0 -184 112.5t-68 340.5zM766 1034v2q0 230 -137 230q-178 0 -322 -443q-52 -159 -83 -327.5t-31 -247.5
q0 -232 137 -232q180 0 321 443q51 160 83 329t32 246z" />
    <glyph glyph-name="one" unicode="1" horiz-adv-x="909" 
d="M94 18v2q0 16 18 20.5t54 6.5h8q86 4 105 72q141 467 282 930q21 72 21 86q0 12 -13 12q-10 0 -80.5 -31t-89.5 -31q-24 0 -24 25q0 16 11.5 24t49.5 23q139 55 271 133q42 25 53 25q10 0 10 -15q0 -5 -25 -86q-196 -644 -296 -968q-29 -96 -29 -133q0 -58 84 -66
q4 0 13.5 -1t13.5 -1.5l12 -1.5t12 -2t10 -3t9 -4t6 -5.5t4.5 -7.5t1.5 -9q0 -20 -27 -20q-19 0 -104 4t-127 4q-44 0 -108.5 -4t-82.5 -4q-24 0 -33.5 5t-9.5 21z" />
    <glyph glyph-name="two" unicode="2" horiz-adv-x="909" 
d="M109 129l6 -6h106q128 0 191 4q79 6 115.5 39t78.5 119q4 9 12 25t11.5 23.5t9.5 18.5t10.5 16t10 11t11.5 8t13 2q29 0 29 -27q0 -17 -16 -76.5t-38 -133.5t-28 -99q-9 -38 -19 -49.5t-34 -11.5q-26 0 -132 4t-182 4q-80 0 -174 -4t-125 -4q-26 0 -26 20q0 21 124 148
q43 44 326 327q95 95 161 184t95.5 158t41 116t11.5 87q0 215 -151 215q-70 0 -132.5 -42.5t-99.5 -108.5q-17 -30 -31 -59.5t-21 -46t-14 -30t-13.5 -19t-14.5 -5.5q-24 0 -24 27q0 20 14 60t44 90.5t71 95t102 75.5t129 31q135 0 212 -77.5t77 -209.5q0 -72 -20 -136.5
t-45 -111t-85 -109.5t-100.5 -99.5t-130.5 -113.5l-21 -18q-203 -174 -335 -311z" />
    <glyph glyph-name="three" unicode="3" horiz-adv-x="909" 
d="M840 1098v-2q0 -72 -33.5 -133.5t-108.5 -115.5t-114 -76.5t-129 -66.5q-18 -10 -27 -14v-2q40 0 74 -6q119 -22 183.5 -103t64.5 -208q0 -156 -96.5 -299.5t-246 -228.5t-303.5 -85q-103 0 -156.5 45t-53.5 97q0 39 20.5 61.5t56.5 22.5q68 0 82 -90q6 -41 30 -64
t60 -23q107 0 210.5 80t170 216t66.5 286q0 107 -53.5 178.5t-149.5 71.5q-43 0 -79.5 -13t-56 -28t-38 -28t-29.5 -13q-20 0 -20 23q0 22 56.5 56t178.5 95q77 37 136 87.5t92 101.5t49 97.5t16 84.5q0 66 -34.5 105.5t-98.5 39.5q-85 0 -153 -71q-30 -33 -54 -72
t-36.5 -57.5t-24.5 -18.5q-23 0 -23 29q0 8 12 34.5t39.5 65t65 73.5t97.5 60t128 25q100 0 165 -60t65 -157z" />
    <glyph glyph-name="four" unicode="4" horiz-adv-x="909" 
d="M473 414h-405q-14 0 -18.5 3t-4.5 11q0 21 8 45q9 23 23 41q126 137 241 267t277 316t252 289q24 27 45 27h18q31 0 31 -16q0 -7 -35 -47q-524 -578 -786 -869h385q17 0 23 6.5t12 32.5l123 430q3 15 30 25q90 33 103 33q8 0 8 -11q0 -3 -3 -13t-9 -31.5t-11 -37.5
q-26 -90 -104 -364q-12 -36 -12 -57q0 -13 24 -13h90q29 0 29 -8q0 -3 -10 -43q-3 -11 -7.5 -13.5t-19.5 -2.5h-108q-17 0 -22 -6.5t-13 -34.5q-4 -16 -13 -46q-52 -193 -53 -229q0 -26 17.5 -38.5t42.5 -14.5q59 -4 59 -27q0 -15 -9 -20.5t-38 -5.5q-27 0 -82 4t-82 4
q-38 0 -96.5 -4t-85.5 -4q-33 0 -33 20q0 4 1 8t3.5 6.5t5 4.5t7.5 3.5t8.5 2.5t10.5 2t11 1.5t12.5 1.5t12.5 1q22 2 33.5 4.5t26 10.5t24.5 24.5t18 44.5q76 261 76 274t-31 13z" />
    <glyph glyph-name="five" unicode="5" horiz-adv-x="909" 
d="M811 1182l-365 -19q-71 -3 -84 -18q-12 -16 -51 -131.5t-39 -126.5q0 -2 1 -4t3 -3.5t4 -2.5t6 -2.5t7.5 -2t9.5 -1.5t10 -1.5l12 -1.5t13 -2q144 -23 221 -67q195 -105 195 -332q0 -124 -55 -236t-160 -198q-108 -89 -265 -139t-352 -50q-29 0 -41 5t-12 20t18.5 19
t63.5 6h8q128 5 244 43.5t206 105.5t143.5 168.5t53.5 222.5q0 290 -375 314q-49 3 -54 9q-1 2 -1 5q0 9 8 37q9 26 66 197t86 261q6 21 14 27.5t33 7.5q234 12 461 21q35 0 35 -10q0 -19 -23 -91q-3 -11 -5.5 -16.5t-9 -8.5t-11 -3.5t-19.5 -1.5z" />
    <glyph glyph-name="six" unicode="6" horiz-adv-x="909" 
d="M827 489v-2q0 -123 -54 -241.5t-156 -198.5t-224 -80q-101 0 -176 62t-111 159t-36 213q0 233 109 448t292 357q76 59 165.5 106t163.5 72t129 37.5t83 12.5q16 0 22 -6t6 -19q0 -12 -18.5 -19.5t-77.5 -21.5q-182 -43 -327 -151t-242 -265q-166 -269 -166 -612
q0 -149 51 -236.5t139 -87.5q81 0 148.5 72.5t104 184.5t36.5 233q0 122 -45 197t-117 75q-31 0 -53 -9t-31 -20.5t-19 -20.5t-20 -9q-16 0 -16 16q0 35 52.5 74t115.5 39q84 0 147.5 -55t94 -135.5t30.5 -168.5z" />
    <glyph glyph-name="seven" unicode="7" horiz-adv-x="909" 
d="M758 1163h-398h-102q-27 0 -39 12.5t-12 28.5q0 35 18 84q10 24 11 31q28 -22 92 -25q164 -8 278 -8q47 0 291 8h17t11.5 -1.5t8.5 -4t2 -6.5q0 -14 -45 -92q-454 -779 -688 -1276q-8 -18 -15 -21.5t-36 -3.5q-33 0 -33 11t18 47q94 197 271.5 520t363.5 637q23 34 23 49
q0 10 -37 10z" />
    <glyph glyph-name="eight" unicode="8" horiz-adv-x="909" 
d="M795 373v-2q0 -70 -27 -139.5t-78 -129.5t-136 -97.5t-189 -37.5q-144 0 -246.5 93.5t-102.5 248.5q0 61 23 114.5t58.5 91t88 70.5t100.5 53.5t107 39.5q-172 113 -172 276q0 152 122.5 256.5t279.5 104.5q139 0 227 -84t88 -209q0 -199 -371 -307q49 -33 80.5 -58.5
t70 -68t58 -96.5t19.5 -119zM344 1012v-2q0 -55 12.5 -96t40.5 -72.5t54.5 -51t72.5 -47.5q121 32 206 115.5t85 202.5q0 99 -58.5 158t-154.5 59q-104 0 -181 -81t-77 -185zM139 270v-2q0 -106 65 -185t169 -79q82 0 152 51t108.5 128.5t38.5 156.5q0 54 -15.5 97.5
t-50.5 80t-63.5 58t-81.5 57.5l-27 18q-145 -49 -220 -141t-75 -240z" />
    <glyph glyph-name="nine" unicode="9" horiz-adv-x="909" 
d="M889 866v-2q0 -362 -314 -729q-76 -88 -179.5 -154.5t-200.5 -100t-172 -49t-125 -15.5q-30 0 -37.5 2.5t-7.5 15.5q0 9 5 14t19 8.5t29 5.5t44 6.5t56 10.5q191 39 334.5 157.5t239.5 289.5q85 152 127.5 323.5t42.5 321.5q0 134 -45.5 214.5t-141.5 80.5
q-82 0 -152.5 -76t-109.5 -195.5t-39 -249.5q0 -107 41.5 -168t110.5 -61q36 0 63 11t41.5 21.5t20.5 10.5q18 0 18 -22q0 -12 -21 -32.5t-64 -39.5t-91 -19q-108 0 -183 96.5t-75 235.5q0 116 36 218t96 171t138.5 108.5t163.5 39.5q155 0 243.5 -119t88.5 -330z" />
    <glyph glyph-name="colon" unicode=":" 
d="M352 786v-2q0 -52 -22.5 -92.5t-63.5 -40.5q-29 0 -47 22t-18 56q0 53 22.5 94t63.5 41q29 0 47 -22t18 -56zM184 115v-2q0 -52 -22.5 -92.5t-63.5 -40.5q-29 0 -47 21.5t-18 55.5q0 53 22.5 94.5t63.5 41.5q29 0 47 -22t18 -56z" />
    <glyph glyph-name="semicolon" unicode=";" 
d="M352 786v-2q0 -52 -22.5 -92.5t-63.5 -40.5q-29 0 -47 22t-18 56q0 53 22.5 94t63.5 41q29 0 47 -22t18 -56zM37 70v2q0 18 7.5 44t30 51.5t54.5 25.5q68 0 68 -119q0 -85 -54 -190.5t-114.5 -172.5t-87.5 -67q-11 0 -11 16q0 8 11.5 20t43 45.5t64.5 79.5q30 40 54 90.5
t24 71.5q0 23 -21 31q-6 2 -28 2q-41 0 -41 70z" />
    <glyph glyph-name="less" unicode="&#x3c;" horiz-adv-x="1228" 
d="M1135 96v-112l-1041 479v110l1041 480v-113l-914 -422z" />
    <glyph glyph-name="equal" unicode="=" horiz-adv-x="1228" 
d="M1130 768v-102h-1032v102h1032zM1130 371v-103h-1032v103h1032z" />
    <glyph glyph-name="greater" unicode="&#x3e;" horiz-adv-x="1228" 
d="M94 96l914 422l-914 422v113l1041 -480v-110l-1041 -479v112z" />
    <glyph glyph-name="question" unicode="?" horiz-adv-x="681" 
d="M709 1044v-2q0 -108 -69.5 -206t-182.5 -172q-115 -76 -149 -122.5t-66 -174.5q-9 -33 -13 -41.5t-12 -8.5q-16 0 -16 13q0 4 0.5 9.5t1.5 16t2 19.5q10 102 37 225q13 61 28.5 83t63.5 56q13 9 44 30t50 34t49.5 36.5t50 42.5t43 46.5t37 53t22.5 57.5t9 65
q0 79 -33.5 120.5t-77.5 41.5q-80 0 -161 -162q-11 -22 -20 -44l-13.5 -33t-9.5 -21t-10 -13.5t-13 -3.5q-11 0 -15.5 6t-4.5 23q0 48 10 112q16 103 28 127q13 25 60.5 41.5t116.5 16.5q103 0 158 -79t55 -192zM233 115v-2q0 -52 -22.5 -92.5t-63.5 -40.5q-29 0 -47 21.5
t-18 55.5q0 53 22.5 94.5t63.5 41.5q29 0 47 -22t18 -56z" />
    <glyph glyph-name="at" unicode="@" horiz-adv-x="1638" 
d="M1245 961l-127 -494q-8 -28 -8 -53q0 -82 80 -82q81 0 144 66.5t92.5 157t29.5 181.5q0 96 -38 187t-108 166t-182 121t-247 46q-162 0 -293 -81t-205 -226t-74 -327q0 -123 41 -230.5t116 -187.5t190.5 -126t256.5 -46q32 0 63 2.5t53 5t50.5 10t42.5 11t43.5 15t38 15
t42 18t40.5 17.5l27 -55q-116 -50 -212.5 -77.5t-199.5 -27.5q-148 0 -272.5 39t-208 103.5t-142.5 149t-85.5 174t-26.5 179.5q0 205 97 367t259.5 249t358.5 87q282 0 461.5 -163.5t179.5 -414.5q0 -76 -24.5 -156t-69 -149t-115.5 -113.5t-154 -44.5q-36 0 -67.5 12
t-50.5 29.5t-32.5 37.5t-19 35.5t-4.5 23.5h-4q-13 -18 -31 -37t-47.5 -44t-68.5 -41t-78 -16q-189 0 -189 244q0 76 29.5 157.5t79 150t123 113t153.5 44.5q52 0 84 -23.5t58 -76.5l20 78h131zM702 512v-2q0 -81 35.5 -119.5t91.5 -38.5q68 0 143.5 117.5t94.5 312.5
q0 59 -22.5 91t-65.5 32q-38 0 -85 -27.5t-90 -76t-72.5 -125.5t-29.5 -164z" />
    <glyph glyph-name="A" unicode="A" horiz-adv-x="796" 
d="M487 471h-274q-13 0 -18 -2t-11 -12q-60 -106 -123 -226q-57 -112 -57 -133q0 -26 15.5 -36.5t60.5 -20.5t51 -19q2 -3 2 -8q0 -22 -41 -22q-22 0 -80 4t-86 4q-23 0 -68.5 -4t-66.5 -4q-24 0 -24 16q0 13 11 20t40 13q40 8 70 39.5t92 136.5q90 152 280.5 489t300.5 523
q37 65 49 65q10 0 13.5 -5t3.5 -23q0 -40 -7.5 -568t-7.5 -587q0 -35 12.5 -48.5t34.5 -17.5q3 -1 10.5 -2t10.5 -1.5l9 -1.5t8.5 -3t5.5 -4.5t4.5 -6t1.5 -8.5q0 -15 -6 -20.5t-25 -5.5q-17 0 -67.5 4t-82.5 4q-39 0 -92.5 -4t-64.5 -4q-13 0 -18.5 0.5t-10 5t-4.5 14.5
q0 4 1 7.5t4 6t6 4.5t8 4t9 3t10.5 2.5t11 2t12.5 1.5t12 2q33 6 52 19t19 45q0 47 2 172.5t2 189.5zM489 528l13 496l-4 2q-197 -351 -273 -498h264z" />
    <glyph glyph-name="B" unicode="B" horiz-adv-x="1024" 
d="M557 700v-4q96 0 171.5 -27.5t124 -92.5t48.5 -160q0 -188 -117 -305q-60 -60 -151.5 -89.5t-190.5 -29.5q-49 0 -154 4t-159 4q-33 0 -104.5 -4t-75.5 -4q-27 0 -37 4t-10 16q0 16 11 21t44 8q43 5 70 31.5t41 87.5q33 135 73.5 285t93 339t78.5 285q31 117 31 121
q0 43 -51 51q-39 5 -51.5 9.5t-12.5 15.5q0 24 27 24q30 0 86 -4t78 -4q37 0 120.5 4t151.5 4q150 0 220.5 -59.5t70.5 -181.5q0 -149 -112 -240.5t-314 -108.5zM657 1241h-2q-149 0 -163 -14q-10 -10 -29 -84l-74 -281q-6 -23 -18.5 -69t-18.5 -70q23 -2 68 -2
q206 0 319 96q113 93 113 256q0 168 -195 168zM311 578l-75 -285q-37 -136 -37 -187q0 -32 26.5 -48.5t91.5 -16.5q53 0 89 2.5t84 10.5t86.5 28t68.5 51q109 114 109 316q0 58 -13.5 97.5t-37.5 64t-68.5 38t-96 18t-130.5 5.5q-64 0 -70 -6t-27 -88z" />
    <glyph glyph-name="C" unicode="C" horiz-adv-x="909" 
d="M49 401v2q0 193 78 362.5t211 295.5q125 120 276.5 187t292.5 67q62 0 79.5 -9t17.5 -30q0 -22 -15 -80q-26 -106 -59 -213q-2 -6 -5 -17.5t-4.5 -15t-4.5 -10t-6 -8.5t-7.5 -4t-11.5 -2q-27 0 -27 22q0 10 14.5 134.5t14.5 144.5q0 39 -37 39q-91 -3 -205 -67t-211 -175
q-111 -125 -177 -292.5t-66 -371.5q0 -165 50.5 -254.5t143.5 -89.5q84 0 154 56t112 153q17 39 40 95q34 80 45 89q7 5 16 5q20 0 20 -25q0 -24 -26 -115q-31 -119 -64 -227q-5 -17 -117.5 -48.5t-189.5 -31.5q-161 0 -248 117q-84 116 -84 317z" />
    <glyph glyph-name="D" unicode="D" horiz-adv-x="1138" 
d="M78 154l241 852q37 127 37 170q0 35 -16 47t-64 18q-22 3 -28 7.5t-6 17.5q0 24 32 24q24 0 82.5 -4t98.5 -4q52 0 156.5 4t156.5 4q158 0 258 -112q84 -94 84 -279q0 -158 -46 -323.5t-138 -307.5q-86 -133 -219 -204.5t-291 -71.5q-50 0 -153 4t-140 4q-53 0 -112.5 -4
t-65.5 -4q-31 0 -31 22q0 9 9 17t20 10q66 8 90.5 27.5t44.5 85.5zM477 1100l-233 -834q-27 -97 -27 -145q0 -43 25 -61.5t92 -18.5q162 0 264.5 43.5t185.5 169.5q85 130 140 327.5t55 354.5q0 151 -60.5 228t-207.5 77q-166 0 -187 -18q-15 -13 -47 -123z" />
    <glyph glyph-name="E" unicode="E" horiz-adv-x="909" 
d="M338 647l-113 -397q-24 -98 -24 -127q0 -27 9 -41t47.5 -23.5t115.5 -9.5q175 0 250 66q13 12 25.5 28t20.5 26.5t19.5 34.5t14.5 31t16 37.5t14 32.5q12 29 21.5 41t25.5 12q23 0 23 -26q0 -11 -10 -56q-2 -10 -60 -241q-8 -31 -12.5 -37t-24.5 -6q-52 0 -186 4t-209 4
q-86 0 -205.5 -4t-156.5 -4q-23 0 -30 4.5t-7 19.5q0 13 6 18.5t24 6.5q53 4 75 13t33 28.5t26 73.5q222 785 258 919q22 86 22 107q0 56 -53 59q-45 3 -53 12q-4 5 -4 13q0 24 28 24q18 0 90 -4t138 -4q57 0 214.5 4t211.5 4q38 0 45.5 -2t7.5 -14q0 -4 -5.5 -25.5
t-17 -68.5t-20.5 -84q-18 -74 -28.5 -106t-18 -40t-21.5 -8q-13 0 -17.5 8t-4.5 33q0 14 1 62t1 88q0 62 -38.5 81t-168.5 19q-109 0 -121 -6q-9 -5 -35 -99l-121 -423h105q67 0 109 5t65.5 18.5t33.5 25t23 36.5l1.5 3t1.5 2.5t1.5 3t1.5 2.5q7 13 16.5 33t15 29.5t14 17.5
t18.5 8q22 0 22 -25q0 -3 -2.5 -11.5t-9 -27.5t-12.5 -37q-40 -124 -86 -329q-5 -20 -12.5 -27.5t-24.5 -7.5t-22 10t-5 37q0 16 4 47.5t4 44.5q0 40 -31.5 62t-131.5 22h-117z" />
    <glyph glyph-name="F" unicode="F" horiz-adv-x="909" 
d="M344 647l-119 -393q-32 -104 -32 -143q0 -70 98 -70q21 0 30.5 -0.5t20.5 -2.5t14.5 -7.5t3.5 -14.5q0 -24 -41 -24q-9 0 -63 4t-109 4q-87 0 -151 -4t-70 -4q-15 0 -20.5 0.5t-11 6t-5.5 17.5q0 4 1 8t3 6.5t4 4.5t6.5 3.5t7 2.5t8.5 2l9 1.5t10.5 1.5t10.5 1
q55 7 72.5 26.5t35.5 82.5q175 604 258 878q39 123 39 148q0 27 -11 40t-38 19q-6 1 -15.5 3t-14 3t-10.5 2.5t-9 2.5t-6.5 3t-4.5 5t-1 6q0 24 26 24q34 0 140.5 -4t171.5 -4q71 0 198 4t178 4q42 0 52 -2t10 -12q0 -5 -16 -53q-25 -76 -66 -240q-13 -49 -43 -49
q-25 0 -25 49q0 15 3.5 60t3.5 79q0 51 -42 81t-161 30q-41 0 -88.5 -1t-59.5 -1q-11 0 -16 -17l-145 -507q69 0 104 -2q96 0 143.5 8t72.5 27t46 61q6 13 13.5 28t10.5 22t7.5 14t8.5 9.5t9 2.5q21 0 21 -19q0 -16 -15 -63q-57 -168 -81 -306q-6 -38 -14.5 -51.5
t-28.5 -13.5q-21 0 -21 22q0 7 2 50t2 51q0 36 -5 54t-27 29.5t-54 14t-98 2.5h-117z" />
    <glyph glyph-name="G" unicode="G" horiz-adv-x="1024" 
d="M12 410v2q0 194 79.5 361.5t215.5 291.5q130 119 294.5 184.5t330.5 65.5q79 0 119 -19q22 -9 22 -24q0 -21 -14 -64q-12 -38 -38.5 -112.5t-39.5 -112.5q-10 -32 -18.5 -42.5t-22.5 -10.5q-22 0 -22 31q0 20 22.5 119t22.5 139q0 47 -76 47q-104 0 -239.5 -66.5
t-244.5 -181.5q-85 -89 -142 -208t-79 -219.5t-22 -189.5q0 -188 86 -290q83 -95 213 -95q50 0 89 22t46 44q19 59 27 90l69 242q15 54 15 69q0 49 -62 54q-65 6 -72 12q-4 4 -4 14t8.5 16.5t20.5 6.5q30 0 89 -4t89 -4q41 0 101.5 4t78.5 4q33 0 33 -21q0 -14 -9 -19.5
t-30 -8.5q-61 -11 -78.5 -23.5t-29.5 -56.5l-117 -410q-4 -15 -70 -39q-105 -41 -235 -41q-175 0 -291 119q-115 121 -115 324z" />
    <glyph glyph-name="H" unicode="H" horiz-adv-x="1138" 
d="M334 647l-121 -432q-25 -91 -25 -117q0 -49 70 -53q52 -3 63 -13q7 -8 7 -18q0 -22 -41 -22q-10 0 -67 4t-101 4q-31 0 -94 -4t-93 -4q-15 0 -20.5 5t-5.5 19q0 25 41 25q60 0 76 16q21 16 36 78l271 967q22 76 22 90q0 26 -15 37.5t-52 11.5q-27 0 -36 4t-9 19
q0 10 8.5 18t25.5 8q26 0 83 -4t87 -4q32 0 88 4t78 4q21 0 21 -22q0 -15 -9 -20.5t-40 -6.5q-50 -3 -74 -24.5t-39 -79.5l-119 -432h250h238l108 403q17 64 17 100q0 33 -52 33q-45 0 -45 25q0 24 21 24q25 0 78.5 -4t81.5 -4q39 0 93 4t70 4q23 0 23 -22q0 -11 -8 -15
t-36 -9q-8 -2 -13 -3q-44 -9 -60.5 -27t-30.5 -69l-256 -942q-20 -72 -20 -103q0 -25 18 -38t60 -21q15 -3 21.5 -4.5t13 -7.5t6.5 -15q0 -22 -27 -22q-26 0 -85 4t-95 4q-35 0 -96.5 -4t-83.5 -4q-23 0 -23 22q0 14 12.5 20t40.5 9q3 0 18 2t22.5 3.5t19 4.5t19 9t12.5 14
q11 22 45 139l114 432h-248h-239z" />
    <glyph glyph-name="I" unicode="I" 
d="M162 80v-2q0 -14 12 -25t35 -12q39 -3 50 -9t11 -20q0 -20 -30 -20q-3 0 -47.5 4t-112.5 4q-57 0 -93 -2t-51.5 -4t-23.5 -2q-27 0 -27 20q0 26 35 29q63 5 82.5 16.5t32.5 59.5l268 977q23 85 23 98q0 21 -10 31.5t-40 17.5q-37 9 -42 15q-3 4 -3 12q0 22 27 22
q6 0 52 -4t102 -4t102 4t47 4q29 0 29 -20q0 -11 -6.5 -17t-28.5 -12q-50 -12 -72.5 -29.5t-31.5 -50.5l-248 -897q-41 -145 -41 -184z" />
    <glyph glyph-name="J" unicode="J" 
d="M319 1171v3q0 37 -18 48t-84 19q-27 3 -27 21q0 11 8.5 19.5t20.5 8.5q13 0 72.5 -4t103.5 -4q49 0 110 4t75 4q22 0 22 -24q0 -10 -8 -14.5t-37 -10.5q-56 -12 -73 -26t-27 -58q-156 -664 -234 -946q-16 -59 -30 -106t-26.5 -84t-20 -58.5t-19.5 -47.5l-15 -32.5
t-16 -30.5t-14 -26q-131 -248 -285 -248q-62 0 -93.5 37t-31.5 96q0 38 18 62t58 24q28 0 43.5 -20t15.5 -49q0 -4 -2 -16t-2 -21q0 -23 13 -39.5t28 -16.5q36 0 77 43.5t73 141.5q35 109 59 250q9 53 110 443.5t132 526.5q24 113 24 131z" />
    <glyph glyph-name="K" unicode="K" horiz-adv-x="909" 
d="M344 1190v2q0 17 -17 31.5t-53 17.5q-33 3 -44 8.5t-11 20.5q0 20 35 20q5 0 66 -4t112 -4q36 0 95.5 4t78.5 4q21 0 28 -4.5t7 -15.5q0 -7 -3.5 -11.5t-12 -7t-15 -4t-21 -3.5t-20.5 -3q-46 -7 -67 -28.5t-35 -71.5q-108 -389 -137 -490q4 0 4 -4q9 8 27.5 24.5
t27.5 24.5l115.5 104.5t109 98.5t79 72.5t71.5 68.5q121 121 121 152q0 19 -19 32.5t-49 16.5q-13 1 -19.5 2.5t-11 6t-4.5 12.5q0 10 5.5 19t15.5 9q22 0 80 -4t100 -4q38 0 90.5 4t67.5 4q22 0 22 -20q0 -14 -10.5 -21.5t-36.5 -13.5q-57 -14 -155 -92q-53 -42 -416 -373
q21 -56 39 -111l176 -497q26 -72 41 -93t39 -28q8 -2 19 -4.5t16.5 -4t11.5 -4.5t8 -6.5t2 -9.5q0 -20 -20 -20q-1 0 -30 4t-52 4q-12 0 -44 -4t-46 -4q-13 0 -21 6.5t-11.5 15t-12.5 33.5q-3 9 -5 14q-123 345 -178 523q-19 59 -25 73.5t-12 14.5t-54 -42.5t-83 -78.5
l-88 -348q-25 -98 -25 -109q0 -20 11 -32.5t24.5 -16.5t34.5 -6q5 -1 14.5 -1.5t15 -1t12.5 -2t11.5 -3t8.5 -4.5t6 -7t2 -10q0 -18 -27 -18q-20 0 -88 4t-102 4q-44 0 -108.5 -4t-76.5 -4t-19 7.5t-7 18.5q0 12 8.5 17.5t17.5 6.5t29 1h6q16 0 28 2t21.5 10t14.5 12
t11 19.5t8 21t7.5 28.5t7.5 30q208 729 263 928q20 78 20 96z" />
    <glyph glyph-name="L" unicode="L" horiz-adv-x="796" 
d="M350 1186v2q0 25 -13 35.5t-42 17.5q-12 2 -26 4t-21 2.5t-13.5 3t-9 6.5t-2.5 11q0 22 19 22q12 0 79 -4t128 -4q43 0 104.5 4t81.5 4q16 0 21.5 -3t5.5 -13q0 -15 -12 -20.5t-46 -10.5q-10 -1 -16 -2q-60 -9 -80 -25.5t-35 -68.5q-231 -796 -266 -914q-7 -27 -47 -159
q-5 -14 -2.5 -19.5t14.5 -5.5h115q150 0 222.5 36t129.5 151q16 32 35 74q19 40 24.5 47.5t16.5 7.5q20 0 20 -15q0 -18 -10 -54.5t-57 -195.5q-23 -77 -29.5 -92.5t-15.5 -15.5t-54.5 2t-151 4t-259.5 2q-74 0 -132.5 -2t-89 -4t-36.5 -2q-13 0 -18 4.5t-5 17.5
q0 12 13.5 18t54.5 9q38 3 59 24.5t35 67.5q91 305 178 591.5t96 317.5q37 122 37 144z" />
    <glyph glyph-name="M" unicode="M" horiz-adv-x="1251" 
d="M276 1264v2q0 10 8 17t21 7q5 0 41.5 -4t63.5 -4q26 0 67.5 4t59.5 4q8 0 11 -9.5t3 -39.5q0 -202 -12 -928l4 -4q284 473 524 910q2 4 7.5 14t8 15t7 12.5t8 12t8 9t8.5 6.5t8 2q8 0 42.5 -4t62.5 -4q16 0 46 4t44 4t19 -4.5t5 -17.5q0 -6 -2.5 -10t-8 -6t-10.5 -3.5
t-14.5 -3.5t-15.5 -4q-34 -10 -50.5 -34.5t-27.5 -71.5q-127 -528 -223 -893q-31 -117 -31 -144q0 -24 16 -40t44 -17q43 -3 43 -27q0 -12 -5.5 -17t-21.5 -5q-9 0 -57.5 4t-97.5 4q-50 0 -111.5 -4t-79.5 -4q-20 0 -20 18q0 2 0.5 4l1 4t2 3.5t3 2.5t5 2.5t6 2.5t7 2.5
t8 2.5l10.5 3t12 4q70 24 87 40.5t32 78.5q126 501 252 999h-4q-39 -66 -273 -470t-360 -617q-2 -3 -5 -9q-27 -46 -36 -47q-9 0 -11 14.5t-2 69.5q0 59 12.5 392t12.5 450q0 47 -2 117t-2 100h-4q-164 -495 -252 -764q-53 -161 -67.5 -213t-14.5 -78q0 -54 61 -63
l17.5 -2.5t15 -2.5t11 -2.5t9.5 -3t6 -4t4 -6t1 -8.5q0 -20 -35 -20q-4 0 -51 4t-86 4t-93.5 -4t-62.5 -4q-18 0 -18 20q0 12 10 17.5t47 11.5q38 5 62 31t47 92q87 255 160 466.5t113.5 327.5t53.5 154q25 76 25 94q0 27 -53 31q-18 1 -27 2.5t-18 7.5t-9 17z" />
    <glyph glyph-name="N" unicode="N" horiz-adv-x="1138" 
d="M803 272h4q166 541 233 787q29 106 29 115q0 32 -15 46.5t-59 20.5q-28 3 -38.5 8.5t-10.5 18.5q0 22 31 22q24 0 78.5 -4t81.5 -4q29 0 69 4t56 4q22 0 22 -22q0 -6 -2.5 -10t-8 -6t-10.5 -3.5t-14.5 -3.5t-15.5 -4q-41 -12 -65 -37.5t-46 -91.5q-151 -464 -305 -985
q-27 -93 -37 -118t-22 -25q-6 0 -12 7.5t-12 24.5t-10 30.5t-11 39.5l-287 1044h-4q-187 -567 -256 -792q-60 -196 -60 -225q0 -23 11 -37.5t24.5 -19.5t34.5 -9q55 -9 65 -20q5 -5 5 -13q0 -22 -29 -22q-17 0 -72.5 4t-101.5 4q-42 0 -92 -4t-70 -4q-24 0 -24 24
q0 22 26 25q50 5 76 13t43 26q11 12 21.5 34.5t16.5 40t23 68.5q60 184 126 382.5t105 316t56 176.5q23 80 23 94q0 24 -11.5 33t-54.5 16q-35 6 -35 25q0 24 25 24q17 0 55.5 -2t59.5 -2q20 0 54 2t44 2q13 0 20 -15.5t19 -70.5q25 -110 60.5 -243.5t58 -214.5t71.5 -252
t64 -222z" />
    <glyph glyph-name="O" unicode="O" horiz-adv-x="1024" 
d="M995 791v-3q0 -105 -26 -218t-78.5 -220.5t-122.5 -193t-166 -137.5t-201 -52q-194 0 -282 178q-70 137 -70 347q0 105 26 219t78.5 221.5t122.5 193t166 137.5t201 52q117 0 198 -69.5t117.5 -185t36.5 -269.5zM643 1266h-2q-103 0 -195.5 -107.5t-158.5 -279.5
q-50 -128 -78.5 -269.5t-28.5 -261.5q0 -147 57.5 -239.5t163.5 -92.5q105 0 198 107.5t159 279.5q50 127 78 269t28 262q0 147 -57.5 239.5t-163.5 92.5z" />
    <glyph glyph-name="P" unicode="P" horiz-adv-x="909" 
d="M958 1034v-2q0 -36 -8 -77t-26.5 -92t-57 -102.5t-92.5 -92.5q-75 -57 -170.5 -78t-218.5 -25h-84q-82 -288 -100 -362q-21 -89 -21 -105q0 -31 16.5 -42.5t55.5 -14.5q42 -3 56 -8t14 -19q0 -22 -33 -22q-5 0 -25 2t-63.5 4t-106.5 2q-60 0 -101.5 -2t-60 -4t-22.5 -2
q-25 0 -25 20q0 13 15 18.5t57 10.5q45 5 63 23.5t33 76.5q65 247 256 930q31 112 31 121q0 28 -14 36t-60 13q-30 3 -30 27q0 22 34 22q16 0 78 -4t101 -4t113.5 4t111.5 4q132 0 205 -55q79 -59 79 -201zM811 1071v2q0 89 -46 128.5t-169 39.5q-82 0 -97.5 -2.5
t-19.5 -19.5q-23 -87 -157 -586q-3 -11 2 -15t30 -4q123 0 193.5 22t134.5 87q62 63 95.5 162.5t33.5 185.5z" />
    <glyph glyph-name="Q" unicode="Q" horiz-adv-x="1024" 
d="M-115 -258v2q0 84 191 133q158 80 239 107q-72 17 -124.5 64t-83 116.5t-44.5 151t-14 176.5q0 132 42 277t118 265q83 129 193.5 205t240.5 76q117 0 198 -69.5t117.5 -185t36.5 -269.5q0 -179 -72.5 -369.5t-197.5 -312.5q-140 -136 -309 -142q-130 -39 -236 -96v-4
q60 0 127 -31q32 -15 80 -45.5t82.5 -47.5t62.5 -17q73 0 121.5 44.5t71.5 118.5q8 19 20 19q7 0 12 -6.5t5 -14.5q0 -16 -14 -56t-39 -81q-92 -156 -228 -156q-110 0 -219 109q-8 8 -30 30.5t-31 31t-25.5 22t-29.5 18.5t-27 5q-16 0 -34 -8.5t-28.5 -17t-31.5 -26.5
q-63 -51 -101 -51q-17 0 -28 10.5t-11 24.5zM864 934v2q0 146 -57.5 238t-163.5 92q-95 0 -180 -88.5t-152 -237.5q-61 -136 -96 -296.5t-35 -295.5q0 -147 57.5 -239.5t163.5 -92.5q95 0 180.5 89.5t151.5 236.5q61 136 96 296.5t35 295.5z" />
    <glyph glyph-name="R" unicode="R" horiz-adv-x="1024" 
d="M987 1061v-2q0 -117 -62 -216t-180 -169q-60 -37 -133 -60v-4q23 -9 37 -63q19 -80 40.5 -171.5t33.5 -142t20 -81.5q17 -65 28.5 -86t31.5 -25q8 -2 19 -4t17 -3t13.5 -3t11.5 -3.5t8 -4.5t5.5 -6.5t1.5 -8.5q0 -16 -31 -16q-13 0 -45 4t-51 4q-12 0 -39 -1t-43 -1
t-21.5 10.5t-13.5 52.5q-67 323 -103 447q-12 44 -23 57t-26 13q-12 0 -81.5 -6.5t-90.5 -6.5q-5 -15 -14 -51l-84 -334q-18 -71 -18 -102t30 -37q2 0 6 -1q58 -11 64 -24q2 -3 2 -6q0 -18 -31 -18q-26 0 -83 4t-93 4q-26 0 -78 -4t-78 -4q-13 0 -16.5 4.5t-3.5 15.5
q0 7 4.5 11.5t14.5 7t18 4t24 3.5t23 3q27 3 41.5 22t30.5 80q210 762 254 936q20 83 20 103q0 28 -14.5 39.5t-38.5 15.5q-49 7 -54 17q-1 3 -1 6q0 30 30 30t88 -4t88 -4q46 0 142 4t139 4q116 0 190 -58t74 -171zM856 1069v2q0 100 -50 135t-157 35q-48 0 -74.5 -2
t-45.5 -5t-27.5 -13.5t-13.5 -21t-11 -34.5l-121 -424q-27 -96 -34 -127q50 0 77 2q165 10 256 72q83 58 142 165t59 216z" />
    <glyph glyph-name="S" unicode="S" horiz-adv-x="681" 
d="M152 934v2q0 81 33.5 153t88 120.5t123 77t138.5 28.5q89 0 178 -41q41 -18 41 -31q0 -3 -15 -76q-3 -15 -22 -92q-24 -94 -32 -114.5t-23 -20.5q-17 0 -17 27q0 24 5 71.5t5 69.5q0 170 -137 170q-105 0 -170 -75t-65 -179q0 -49 22.5 -102t45 -85t69.5 -92
q50 -63 78 -104t54 -108.5t26 -135.5q0 -116 -59.5 -216t-154 -157t-198.5 -57q-56 0 -111.5 17.5t-91.5 44.5q-35 21 -35 47q0 14 2.5 33t11 82.5t17.5 130.5q6 46 12.5 58.5t24.5 12.5q14 0 17 -13t3 -52q0 -135 13 -203q9 -47 50.5 -78t96.5 -31q121 0 195.5 93.5
t74.5 234.5q0 65 -33.5 128.5t-95.5 141.5q-91 119 -119 168q-46 82 -46 152z" />
    <glyph glyph-name="T" unicode="T" horiz-adv-x="796" 
d="M195 172l323 1065h-143q-87 0 -148 -82q-17 -23 -30 -50t-28 -64t-19 -46q-24 -57 -44 -57t-20 27q0 10 9.5 44.5t24.5 81t29 89t28 83.5t16 48q1 3 3 10t3 9.5t3 8.5t3.5 8t4 6t4.5 5.5t5 4t6.5 3t7.5 0.5q12 0 18 -6t7 -11.5t2 -21.5q4 -45 41 -45h580q30 0 44.5 9.5
t24.5 29.5q2 4 6.5 12t7.5 12.5t7 10t8.5 8t9.5 2.5q19 0 19 -25q0 -10 -37 -142t-58 -198q-12 -40 -20.5 -51.5t-24.5 -11.5q-18 0 -18 20q0 10 13.5 83t13.5 104q0 58 -26.5 75t-127.5 17h-74l-327 -1087q-11 -33 -11 -60q0 -37 64 -49q26 -4 34.5 -9t8.5 -14
q0 -26 -41 -26q-15 0 -69 4t-97 4q-37 0 -90 -4t-64 -4q-28 0 -28 18q0 25 32 31q74 15 91.5 32.5t42.5 98.5z" />
    <glyph glyph-name="U" unicode="U" horiz-adv-x="1138" 
d="M119 229v2q0 63 61 295q27 101 83.5 297t72.5 256q20 82 20 99q0 31 -10.5 44t-40.5 19q-6 1 -14.5 3t-13 2.5t-10 2t-8.5 3t-6 4t-4 5.5t-1 7q0 22 26 22q11 0 74 -4t105 -4q39 0 102.5 4t91.5 4q15 0 22.5 -3t9 -6.5t1.5 -10.5t-4.5 -11.5t-16.5 -7t-20.5 -4
t-27.5 -3.5t-27 -3q-37 -5 -62.5 -36.5t-52.5 -127.5q-158 -559 -195 -706q-24 -98 -24 -154q0 -92 67 -146.5t162 -54.5q87 0 153.5 26.5t112.5 80t77 121.5t55 162q35 138 95.5 363t74.5 282q26 110 26 125q0 38 -19.5 52.5t-76.5 14.5q-25 0 -33.5 1t-13 5.5t-4.5 16.5
q0 24 30 24q15 0 65.5 -4t88.5 -4q37 0 89.5 4t66.5 4q30 0 30 -16q0 -5 -2 -9t-6 -7t-8.5 -5t-12.5 -3.5t-14 -2.5t-16.5 -3t-17.5 -3q-49 -9 -66 -34t-36 -97l-3 -12q-31 -122 -95 -365.5t-95 -365.5q-45 -174 -129 -267q-119 -133 -336 -133q-156 0 -248 65t-92 197z" />
    <glyph glyph-name="V" unicode="V" horiz-adv-x="796" 
d="M356 246h6q381 723 443 854q39 79 39 96q0 23 -16 32t-68 13q-20 2 -29.5 6.5t-9.5 18.5q0 24 27 24q19 0 59.5 -4t73.5 -4q56 0 101 4t48 4q19 0 19 -18q0 -11 -9 -17t-34 -14q-29 -10 -48.5 -20t-34.5 -28t-21.5 -28t-21.5 -41t-22 -45q-312 -594 -575 -1085
q-13 -27 -29 -27q-11 0 -13.5 20.5t-4.5 84.5q-28 926 -33 1058q-2 48 -7 71t-12.5 29t-25.5 11q-8 2 -23 4t-24.5 3.5t-17 6.5t-7.5 13t8.5 15t22.5 7q10 0 54 -4t89 -4q34 0 101 4t81 4q25 0 25 -18q0 -23 -70 -31q-43 -4 -56 -18t-13 -52v-61q2 -56 11 -334.5t17 -529.5z
" />
    <glyph glyph-name="W" unicode="W" horiz-adv-x="1251" 
d="M641 567l-350 -573q-16 -27 -33 -27q-18 0 -18 29l-29 1137q-1 68 -9 85.5t-34 22.5q-31 6 -40 11t-9 18q0 8 5.5 14t14.5 6q25 0 75 -4t75 -4q28 0 76 4t61 4q27 0 27 -18q0 -4 -1 -7t-2.5 -5.5t-3.5 -4t-5.5 -3t-5.5 -2t-6.5 -1t-6.5 -1t-7.5 -1t-6.5 -0.5
q-27 -4 -42.5 -18.5t-15.5 -50.5q0 -17 1 -65.5t1 -63.5l8 -828h5l278 447l-16 465q-1 59 -15 81t-45 27q-37 5 -42 12q-5 6 -5 15q0 22 35 22q15 0 59 -4t76 -4q26 0 72.5 4t62.5 4q29 0 29 -18q0 -19 -32 -26q-5 -1 -17 -3l-10 -2q-50 -11 -50 -70q0 -23 2 -73.5t5 -124.5
t4 -119h4l160 266q43 72 43 97q0 22 -33 26t-33 23q0 10 8.5 17t22.5 7q12 0 52.5 -4t68.5 -4q24 0 63 4t53 4q23 0 23 -22q0 -21 -47 -27q-52 -6 -85 -33t-89 -114l-205 -328l20 -514h4l461 817q41 72 52.5 98.5t11.5 44.5q0 23 -29 29q-41 8 -41 29q0 7 7 13.5t18 6.5
q21 0 64 -4t61 -4q22 0 54.5 4t45.5 4q20 0 20 -22q0 -14 -11.5 -20t-43.5 -15q-65 -20 -127 -129l-624 -1110q-14 -27 -33 -27t-19 29l-8 571h-4z" />
    <glyph glyph-name="X" unicode="X" horiz-adv-x="909" 
d="M117 1268v2q0 20 33 20q4 0 22.5 -2t56.5 -4t90 -2q47 0 110.5 4t78.5 4q22 0 22 -18q0 -16 -9 -20.5t-46 -8.5q-13 -1 -20 -2q-36 -5 -51 -16t-15 -37q0 -14 27 -113l86 -332q54 69 105.5 132.5t94 115.5t58.5 72q51 65 67.5 91t16.5 48q0 33 -53 39q-69 8 -76 12
q-8 5 -8 19q0 18 30 18q4 0 27.5 -2t68.5 -4t101 -2q67 0 112 4l44 4q18 0 25 -5t7 -17t-9 -18t-34 -9q-27 -3 -52 -13t-41.5 -19t-45 -36t-42 -41t-53.5 -58.5t-59 -65.5q-32 -35 -70 -79.5t-62 -74t-71 -88t-65 -80.5l133 -455q34 -119 51 -151t52 -39q11 -2 25 -4.5
t21 -3.5t14.5 -3.5t10 -6.5t2.5 -11q0 -11 -4.5 -15.5t-17.5 -4.5q-11 0 -73.5 4t-129.5 4q-33 0 -100.5 -4t-91.5 -4q-23 0 -23 18q0 12 8.5 16t30.5 6q8 1 12 1q56 5 80.5 14.5t24.5 36.5q0 49 -39 186q-10 37 -40 142.5t-46 162.5q-198 -249 -262 -339q-86 -119 -86 -148
q0 -19 7 -30t29 -17q14 -4 28.5 -6.5t23 -3.5t15.5 -3t10 -5.5t3 -10.5q0 -11 -6 -15.5t-24 -4.5q-10 0 -69 4t-89 4q-33 0 -99.5 -4t-80.5 -4q-18 0 -23.5 4t-5.5 16q0 5 2.5 8.5t9.5 6.5t13.5 4.5l19.5 4.5t21 5q49 12 86.5 40t101.5 103q33 37 77 91t133.5 165.5
t149.5 186.5q-111 418 -135 489q-24 78 -39.5 99t-42.5 26q-9 2 -23 4q-30 5 -38 8.5t-8 14.5z" />
    <glyph glyph-name="Y" unicode="Y" horiz-adv-x="796" 
d="M356 1178v-2q0 -13 17 -125q6 -43 17.5 -105t30 -158t30.5 -161q239 320 307 424q78 121 78 141q0 18 -15.5 31t-40.5 18q-58 11 -64 17q-3 3 -3 10q0 22 20 22l49 -4q50 -4 131 -4q31 0 68 4t45 4q27 0 27 -18q0 -27 -35 -31q-28 -6 -45.5 -15t-48.5 -40.5t-74 -91.5
q-310 -427 -395 -541q-62 -210 -105 -346q-22 -81 -22 -111q0 -26 13.5 -37t45.5 -18q7 -1 17 -2.5t15.5 -2.5t12 -2.5t10.5 -3t7 -4t4.5 -5.5t1.5 -7q0 -12 -7 -17t-30 -5q-13 0 -76 4t-104 4q-50 0 -120 -4t-77 -4q-27 0 -27 18q0 12 10.5 17t39.5 8t42 6q37 8 56 30.5
t39 84.5q43 139 125 417q-63 355 -82 453q-27 146 -40 173q-12 27 -45 39q-4 1 -9 3q-11 4 -30.5 8t-25.5 8t-6 13q0 20 25 20q1 0 41.5 -4t111.5 -4t118 2t68.5 4t30.5 2q23 0 23 -20q0 -6 -3 -9.5t-11 -6.5t-15 -4.5t-23.5 -4t-27.5 -4.5q-42 -9 -56 -22t-14 -41z" />
    <glyph glyph-name="Z" unicode="Z" horiz-adv-x="796" 
d="M-94 12v2q0 16 96 154q345 496 639 944q8 12 20.5 30.5t19.5 29.5t15 23t11.5 19.5t3.5 10.5q0 6 -20 7t-113 1q-91 0 -151 -21t-94.5 -57.5t-68.5 -101.5q-16 -31 -28 -59t-16.5 -41.5t-9.5 -23.5t-10.5 -13t-15.5 -3q-18 0 -18 21q0 7 15 69.5t34 137.5t23 94
q8 36 12.5 45.5t11.5 9.5q26 0 144.5 -4t203.5 -4q68 0 152 4t108 4q21 0 21 -12q0 -13 -64 -111q-44 -68 -245.5 -366.5t-364.5 -542.5q-9 -13 -49 -72t-59 -89.5t-19 -37.5t27 -8.5t153 -1.5q97 0 154 14.5t104 58.5t90 132q18 37 29.5 73.5t17 47t19.5 10.5q18 0 18 -18
q0 -8 -33.5 -152t-43.5 -182q-7 -27 -13.5 -34t-17.5 -7q-28 0 -145.5 4t-237.5 4q-90 0 -175.5 -4t-98.5 -4q-19 0 -25 4t-6 16z" />
    <glyph glyph-name="bracketleft" unicode="[" horiz-adv-x="681" 
d="M557 1434h242q24 0 24 -21q0 -10 -9 -19.5t-23 -9.5h-101q-71 0 -92.5 -17t-42.5 -93l-379 -1401q-31 -115 -31 -135q0 -22 18 -31.5t73 -9.5h122q15 0 22 -3.5t8 -7t1 -12.5q0 -26 -33 -26h-274q-51 0 -66.5 7t-15.5 26q0 15 5.5 38.5t17 61.5t16.5 59l424 1569
q4 17 20 21t74 4z" />
    <glyph glyph-name="backslash" unicode="\" horiz-adv-x="569" 
d="M78 1423v2q0 9 22 9h21q12 0 18.5 -9t12.5 -36l374 -1686q0 -3 4.5 -20.5t4.5 -24.5q0 -10 -23 -10h-20q-12 0 -18.5 9t-12.5 36l-375 1685l-4 19q-4 19 -4 26z" />
    <glyph glyph-name="bracketright" unicode="]" horiz-adv-x="681" 
d="M78 -352h-242q-24 0 -24 20q0 10 9 19.5t23 9.5h101q71 0 92.5 17t42.5 93l379 1401q30 111 30 135q0 22 -17.5 31.5t-72.5 9.5h-123q-15 0 -21.5 3.5t-7.5 7t-1 12.5q0 27 33 27h274q51 0 66.5 -7t15.5 -26q0 -15 -5.5 -39t-17 -62.5t-16.5 -58.5l-424 -1569
q-4 -17 -19.5 -20.5t-74.5 -3.5z" />
    <glyph glyph-name="asciicircum" unicode="^" horiz-adv-x="1228" 
d="M567 1282h95l413 -819h-112l-349 688l-348 -688h-112z" />
    <glyph glyph-name="underscore" unicode="_" horiz-adv-x="1024" 
d="M0 -154h1024v-102h-1024v102z" />
    <glyph glyph-name="grave" unicode="`" 
d="M76 1360v2q0 23 13.5 36t35.5 13q28 0 49 -16.5t51 -55.5l160 -198q43 -53 43 -64q0 -16 -16 -16q-17 0 -60 37l-213 178q-21 18 -30 26.5t-20.5 25.5t-12.5 32z" />
    <glyph glyph-name="a" unicode="a" horiz-adv-x="909" 
d="M-45 158v2q0 128 60 265.5t157 256.5q96 116 203.5 186t197.5 70q26 0 48.5 -5t37.5 -12t25.5 -14.5t16 -12.5t6.5 -5q4 0 22 49q5 12 11 16t24 4h59q21 0 21 -14q0 -11 -8 -31q-165 -497 -199 -598q-43 -131 -43 -172q0 -28 22 -28q31 0 127 145q14 21 24.5 40t14.5 29
t8 18t7.5 10.5t9.5 2.5q14 0 14 -16q0 -23 -32 -83.5t-78 -121.5q-51 -71 -106 -117.5t-103 -46.5q-32 0 -44 19.5t-12 54.5q0 42 25 125q9 33 96 291l-4 4q-30 -45 -42.5 -64.5t-55.5 -81t-72 -98t-76 -90t-83 -84t-77.5 -53.5t-74.5 -23q-127 0 -127 183zM672 805v2
q0 45 -25.5 69.5t-68.5 24.5q-73 0 -159 -78t-165 -202q-74 -118 -121 -241.5t-47 -203.5q0 -90 64 -90q54 0 140 87t177 220q86 124 145.5 242t59.5 170z" />
    <glyph glyph-name="b" unicode="b" horiz-adv-x="909" 
d="M838 690v-2q0 -91 -29.5 -192t-84.5 -194t-127 -168.5t-164.5 -121t-188.5 -45.5q-106 0 -165 65.5t-59 172.5q0 72 48 244q36 141 123.5 421t95.5 306q24 91 24 106q0 23 -11 34.5t-44 14.5q-28 3 -37.5 8.5t-9.5 18.5q3 22 61 22q48 0 93.5 13t61 22t42.5 25
q13 10 18 10q15 0 15 -16q0 -4 -3.5 -15t-15.5 -45.5t-26 -77.5l-230 -745h6q6 8 31 46.5t40.5 62t46.5 65.5t55.5 69.5t59 61.5t65.5 54t67 34t70 14q172 0 172 -268zM700 709v2q0 74 -27 114.5t-73 40.5q-74 0 -189.5 -138t-201.5 -315.5t-86 -283.5q0 -52 31 -82.5
t90 -30.5q84 0 170 75.5t147 184t100 227.5t39 206z" />
    <glyph glyph-name="c" unicode="c" horiz-adv-x="681" 
d="M682 823v-2q0 -35 -26 -59.5t-66 -24.5q-45 0 -60 37q-10 24 -16 70q-7 44 -18 55q-12 10 -33 10q-45 0 -102 -46t-109 -126q-121 -188 -121 -440q0 -103 44.5 -163t119.5 -60q55 0 114.5 50t106.5 124q16 24 33 57.5t27 49t18 16.5q16 0 16 -21q0 -25 -32 -94
q-23 -47 -55 -93t-76 -90t-100.5 -71t-115.5 -27q-107 0 -169 83t-62 241q0 133 44 254t120 213q74 90 165 141t181 51q82 0 127 -36.5t45 -98.5z" />
    <glyph glyph-name="d" unicode="d" horiz-adv-x="909" 
d="M-29 182v2q0 145 61 284.5t163 252.5q97 109 212.5 173t219.5 64q63 0 118 -36q31 98 93 290q18 61 18 74q0 20 -11 31t-44 14q-28 3 -37.5 8.5t-9.5 18.5q3 22 61 22q96 0 164 41q46 29 55 29q10 0 10 -14q0 -5 -30 -97q-170 -513 -342 -1026q-49 -143 -49 -182
q0 -25 22 -25q23 0 52.5 32.5t78.5 119.5q7 12 15.5 29t14 26.5t11.5 19.5t11.5 14.5t11.5 4.5q16 0 16 -16q0 -37 -63 -139q-54 -91 -118 -156.5t-120 -65.5q-63 0 -63 91q0 42 22 135q24 92 70 237l-4 4q-155 -237 -267 -352t-200 -115q-142 0 -142 207zM705 827v2
q0 43 -23.5 68t-71.5 25q-75 0 -163.5 -71t-167.5 -185q-79 -115 -128 -242.5t-49 -230.5q0 -119 80 -119q50 0 136.5 90t177.5 225q89 132 149 255.5t60 182.5z" />
    <glyph glyph-name="e" unicode="e" horiz-adv-x="681" 
d="M680 786v-2q0 -159 -121.5 -253.5t-386.5 -127.5q-4 0 -12.5 -1t-12.5 -1q-16 -69 -16 -131q0 -97 32 -146.5t91 -49.5q125 0 260 182q13 17 23 32.5t14.5 24.5t8.5 15.5t7 9t8 2.5q17 0 17 -18q0 -21 -43 -89q-27 -43 -62.5 -85t-81 -82.5t-100 -65.5t-106.5 -25
q-199 0 -199 301q0 135 49 264t124 218.5t164 144.5t169 55q87 0 130.5 -52t43.5 -120zM496 922h-2q-88 0 -191 -130.5t-147 -349.5q297 45 383 242q30 68 30 152q0 38 -19 62t-54 24z" />
    <glyph glyph-name="f" unicode="f" 
d="M768 1354v-2q0 -36 -23 -58t-51 -22q-36 0 -54.5 19.5t-18.5 54.5q0 10 -5 30q-6 25 -30 25q-47 0 -97 -60q-57 -68 -100 -237q-23 -96 -45 -178h154q6 0 9 -0.5t4.5 -3.5t0.5 -9q-4 -12 -6 -20q-3 -16 -21 -16h-153q-19 -79 -115 -469q-60 -245 -101.5 -385.5
t-90.5 -239.5q-54 -111 -123 -166t-164 -55q-54 0 -91.5 30t-37.5 89q0 39 18 58t45 19q45 0 56 -45q3 -11 4 -36.5t4 -34.5q9 -31 45 -31q39 0 64.5 25t52.5 94q29 73 67 210t119 455q41 162 123 482h-131q-11 0 -8 16q2 8 6 20q3 9 6 11t14 2h125q65 267 160 387
q107 137 270 137q50 0 84.5 -24.5t34.5 -71.5z" />
    <glyph glyph-name="g" unicode="g" horiz-adv-x="796" 
d="M113 606v2q0 138 93.5 244t235.5 106q67 0 129 -34q17 -8 31 -19h217q10 0 10 -3v-3q-4 -34 -8 -49q-3 -10 -12 -10l-152 -9q37 -88 37 -174q0 -89 -39.5 -171t-115 -135.5t-166.5 -53.5q-98 0 -170 53q-22 -8 -41 -31t-19 -45q0 -21 12 -38.5t40.5 -32.5t50.5 -24.5
t69.5 -26t69.5 -25.5q53 -20 90 -40.5t75 -51.5t57.5 -75t19.5 -99q0 -48 -25 -99t-71.5 -96.5t-124.5 -74.5t-173 -29q-154 0 -259 72.5t-105 201.5q0 56 29.5 100.5t80 72t100.5 44t109 27.5q-114 54 -114 145q0 101 104 156q-65 85 -65 225zM584 737v2q0 91 -37.5 137
t-102.5 46q-91 0 -156 -123.5t-65 -280.5q0 -184 129 -184q63 0 118.5 71t84.5 163t29 169zM242 -401h2q48 0 95 13.5t87 38.5t65 67t25 94q0 103 -108 165q-27 16 -61 31.5t-75 31t-59 23.5q-49 -16 -86.5 -34t-73 -46.5t-54.5 -69.5t-19 -93q0 -65 40 -117t99 -78t123 -26
z" />
    <glyph glyph-name="h" unicode="h" horiz-adv-x="796" 
d="M731 707v-2q0 -166 -66.5 -340.5t-165.5 -286t-188 -111.5q-37 0 -57.5 30t-20.5 77q0 35 18.5 57.5t45.5 22.5q47 0 47 -68q0 -49 27 -49q44 0 99.5 143.5t92.5 310t37 248.5q0 60 -14 84.5t-45 24.5q-87 0 -246 -279q-147 -267 -215 -514q-10 -40 -19.5 -47.5
t-44.5 -7.5q-45 0 -55 1.5t-10 10.5q0 5 10 43q29 102 143.5 499t174.5 611q32 118 32 133q0 24 -39 29q-11 2 -27.5 4.5t-21.5 3.5q-14 6 -14 21q0 17 24 20q133 19 181 51q34 23 47 23q14 0 14 -18q0 -4 -12 -54q-109 -361 -256 -884l4 -5q42 81 85 153t96.5 148.5
t107 122t96.5 45.5q135 0 135 -251z" />
    <glyph glyph-name="i" unicode="i" 
d="M483 1243v-2q0 -50 -31 -92.5t-69 -42.5q-24 0 -37.5 20.5t-13.5 51.5q0 51 31 94t69 43q24 0 37.5 -20.5t13.5 -51.5zM381 877v-3q0 -57 -39 -169q-13 -35 -76 -211t-96 -271q-23 -70 -23 -92q0 -25 25 -25q21 0 50.5 34t86.5 128q9 15 17 30.5t12 24.5t8.5 17t8.5 11
t10 3q16 0 16 -14q0 -29 -70 -145q-54 -88 -115 -149.5t-116 -61.5q-32 0 -48 25t-16 61q0 51 50 192q47 129 137 383q47 124 47 164q0 27 -23 27q-31 0 -94 -84q-25 -33 -43.5 -62t-26 -44t-13.5 -26.5t-10.5 -15.5t-12.5 -4q-15 0 -15 12q0 14 24.5 61t59.5 99
q127 186 219 186q31 0 48.5 -21t17.5 -60z" />
    <glyph glyph-name="j" unicode="j" 
d="M516 1243v-2q0 -50 -31 -92.5t-69 -42.5q-24 0 -37.5 20.5t-13.5 51.5q0 51 31 94t69 43q24 0 37.5 -20.5t13.5 -51.5zM403 887v-2q0 -48 -36 -183q-22 -83 -56 -198t-83 -277t-74 -245q-54 -183 -125 -291q-98 -146 -228 -146q-55 0 -90 36t-35 95q0 34 18.5 60t57.5 26
q31 0 43 -18t12 -57q0 -93 48 -93q20 0 36.5 18t38.5 69q21 47 66 204q157 560 231 785q45 140 45 143q0 23 -18 23q-36 0 -100 -78q-29 -35 -51.5 -70.5t-31.5 -50t-16 -14.5q-20 0 -20 12q0 19 23.5 61.5t60.5 89.5q56 73 117 122.5t110 49.5q57 0 57 -71z" />
    <glyph glyph-name="k" unicode="k" horiz-adv-x="796" 
d="M735 762v-2q0 -62 -30.5 -125t-84.5 -116.5t-138.5 -89.5t-184.5 -42v-4q26 -15 46.5 -37.5t34.5 -53t22.5 -54t17.5 -58.5q27 -94 43 -118q20 -29 49 -29q31 0 48 27t17 55q0 33 -30.5 67.5t-30.5 65.5q0 28 15 45.5t38 17.5q58 0 58 -112q0 -37 -8.5 -73t-27 -69
t-51.5 -53t-77 -20q-40 0 -71.5 16.5t-50.5 40t-35 60t-24 66.5t-18.5 71t-17.5 61q-10 31 -20.5 46t-26.5 15q-12 0 -20 -10.5t-19 -48.5q-14 -50 -40 -142.5t-34 -119.5q-6 -25 -11.5 -32t-19.5 -7h-90q-14 0 -14 10q0 17 12 53q145 480 336 1117q20 67 20 102
q0 23 -11 34.5t-44 14.5q-28 3 -37.5 8.5t-9.5 18.5q3 22 61 22q99 0 181 50q30 20 35 20q14 0 14 -14q0 -5 -3.5 -16t-16 -46.5t-25.5 -77.5l-225 -729l4 -4q25 43 39 66t49 78t64 89.5t67 74t76 59.5t73 20q63 0 95 -51t32 -137zM604 770v2q0 36 -14.5 58t-40.5 22
q-46 0 -127 -89.5t-145 -195t-74 -157.5q21 0 59 6q70 12 129.5 42.5t97.5 69t65 83.5t38.5 85t11.5 74z" />
    <glyph glyph-name="l" unicode="l" 
d="M-4 88v2q0 54 41 221q33 135 118.5 431t106.5 376q37 135 37 164q0 23 -11 34.5t-44 14.5q-28 3 -37.5 8.5t-9.5 18.5q3 22 61 22q98 0 176 47q38 23 39 23q14 0 14 -16q0 -4 -5.5 -19t-15 -43.5t-17.5 -56.5q-72 -255 -139 -488.5t-101 -352.5t-49 -173
q-33 -118 -33 -160q0 -15 7.5 -25t19.5 -10q23 0 47.5 26t70.5 101q14 23 33 61.5t31 60.5t20 22q15 0 15 -19q0 -12 -21.5 -60t-52.5 -101q-52 -89 -112.5 -151t-116.5 -62q-72 0 -72 104z" />
    <glyph glyph-name="m" unicode="m" horiz-adv-x="1478" 
d="M418 889v-2q0 -86 -109 -379l4 -4q12 17 49 73t65 98t74 99t85 94t87 63.5t91 26.5q44 0 72 -36t28 -103q0 -97 -92 -334l4 -4q105 187 211 310q145 167 250 167q55 0 85 -34t30 -86q0 -59 -54 -205q-30 -82 -96 -235.5t-82 -196.5q-20 -57 -20 -78q0 -29 26 -29
q54 0 142 119q28 36 50 71.5t30 48.5t14 13q14 0 14 -14q0 -15 -27 -66t-67 -104q-134 -178 -244 -178q-34 0 -52.5 21.5t-18.5 55.5q0 77 63 234q22 55 67.5 161.5t61.5 145.5q62 156 62 205q0 23 -14.5 38t-37.5 15q-45 0 -116 -68t-152 -186q-170 -251 -276 -534
q-19 -51 -26 -61.5t-19 -10.5h-84q-21 0 -21 10q0 5 3 13.5t8 21.5t8 21q13 35 66.5 179.5t91 250t53.5 161.5q28 103 28 144q0 59 -47 59q-36 0 -97 -59t-132 -158q-91 -125 -172.5 -275t-126.5 -284q-21 -62 -29 -73t-27 -11h-75q-19 0 -19 10q0 4 17 53q17 46 99.5 277
t127.5 354q35 93 35 121q0 33 -37 33q-20 0 -61.5 -45t-69.5 -82q-11 -15 -30 -44.5t-31.5 -46t-18.5 -16.5q-14 0 -14 15q0 13 26 58t64 95q139 176 239 176q30 0 47 -19t17 -50z" />
    <glyph glyph-name="n" unicode="n" horiz-adv-x="1024" 
d="M901 846v-2q0 -62 -35 -154q-25 -65 -82 -211.5t-86 -224.5q-34 -91 -34 -127q0 -33 24 -33q50 0 123 101q22 30 40 58.5t27 43.5t16 27t11.5 16t9.5 4q13 0 13 -18q0 -33 -76 -144q-58 -82 -121.5 -140t-114.5 -58q-84 0 -84 96t80 297q127 319 131 330q27 86 27 116
q0 58 -45 58q-51 0 -127 -67.5t-164 -190.5q-174 -245 -295 -578q-11 -32 -17 -38.5t-20 -6.5h-69q-21 0 -21 10t41 125q85 229 183 549q26 85 26 121q0 43 -33 43q-53 0 -141 -133q-11 -16 -29.5 -47t-29 -44.5t-19.5 -13.5q-14 0 -14 15q0 29 80 145q55 79 117 133.5
t116 54.5q42 0 63 -26t21 -70q0 -47 -26 -145q-9 -29 -25.5 -80t-27.5 -87.5t-15 -60.5l4 -4q24 47 60 104.5t88.5 123.5t107.5 120t118 89.5t118 35.5q48 0 77 -30t29 -82z" />
    <glyph glyph-name="o" unicode="o" horiz-adv-x="796" 
d="M711 598v-2q0 -96 -30 -198t-83 -189q-66 -109 -156.5 -175.5t-187.5 -66.5q-119 0 -186.5 96t-67.5 263q0 146 61.5 292t169 243t226.5 97t186.5 -96.5t67.5 -263.5zM600 672v2q0 235 -143 235q-58 0 -117 -59t-109 -156q-54 -102 -87 -222.5t-33 -219.5
q0 -236 143 -236q58 0 116.5 59t108.5 156q54 100 87.5 221t33.5 220z" />
    <glyph glyph-name="p" unicode="p" horiz-adv-x="796" 
d="M731 688v-2q0 -119 -44.5 -243t-119.5 -228q-77 -104 -171.5 -165.5t-190.5 -61.5q-88 0 -146 61q-42 -140 -65 -242q-31 -132 -31 -133q0 -26 12 -38t37 -17q9 -2 26.5 -4t27 -4t20 -5t15.5 -8t5 -12q0 -6 -1 -9t-7 -5t-18 -2q-25 0 -94.5 4t-104.5 4q-39 0 -103.5 -4
t-92.5 -4q-21 0 -21 14t12 21t50 10q60 4 76 25t48 127l328 1089q2 8 -1 8q-4 0 -17 -4q-33 -14 -65 -29.5t-46 -21.5t-24 -6q-13 0 -13 12q0 13 39 35q62 34 127 57q16 5 19 19l65 211q2 8 19 14q8 2 47 2h41q10 0 10 -10q0 -1 -0.5 -4t-1.5 -8.5t-2 -10.5
q-3 -12 -21.5 -78.5t-25.5 -95.5q42 10 67 10q20 2 66 2q125 0 197.5 -68t72.5 -202zM428 909h-2q-68 0 -115 -14q-8 -28 -27 -92t-28 -94q-71 -243 -127 -426q-33 -112 -33 -158q0 -48 30.5 -74t76.5 -26q73 0 144.5 63t129.5 168q57 103 90 228.5t33 244.5
q0 99 -43.5 139.5t-128.5 40.5z" />
    <glyph glyph-name="q" unicode="q" horiz-adv-x="796" 
d="M-74 193v2q0 122 55 257.5t144 249.5q89 116 193 186t198 70q40 0 90 -16q54 -16 60 -16q29 0 57 28q27 27 39 27t12 -16q0 -9 -9 -34t-27.5 -79.5t-35.5 -116.5q-118 -453 -243 -893q-39 -140 -39 -170q0 -38 65 -53q52 -12 57 -19q3 -5 3 -12q0 -10 -7 -14t-24 -4
q-23 0 -78.5 4t-101.5 4q-50 0 -116.5 -4t-82.5 -4q-18 0 -18 14q0 4 1 8t4 6.5t5.5 4.5t8 4t10 3t13 2.5t14 2t16.5 2t18 2.5q42 6 58 21.5t28 60.5l182 657l-4 4q-46 -69 -80 -117t-78 -100.5t-81 -84t-79.5 -52t-82.5 -20.5q-70 0 -107 59.5t-37 145.5zM606 815v2
q0 51 -26 78t-72 27q-69 0 -148.5 -75.5t-148.5 -197.5q-68 -118 -111 -244.5t-43 -220.5q0 -60 18 -87t56 -27q71 0 187 151t202 331t86 263z" />
    <glyph glyph-name="r" unicode="r" horiz-adv-x="681" 
d="M688 846v-2q0 -82 -38 -137.5t-79 -55.5q-47 0 -47 49q0 24 16.5 55t16.5 52q0 33 -25 33q-18 0 -60 -61t-99 -173q-116 -230 -217 -540q-15 -47 -25 -56.5t-49 -9.5q-42 0 -53 1.5t-11 8.5q0 4 13 51q82 292 162 615q24 100 24 121q0 30 -18 30q-41 0 -109 -110
q-18 -29 -43 -86q-7 -19 -11.5 -25t-17.5 -6q-18 0 -18 18q0 12 24 63t58 103q101 154 184 154q82 0 82 -88q0 -9 -1.5 -20.5t-5.5 -31t-7.5 -36t-12 -50.5t-15 -59t-19.5 -77.5t-23 -90.5l4 -4q209 469 350 469q70 0 70 -104z" />
    <glyph glyph-name="s" unicode="s" horiz-adv-x="569" 
d="M426 270v-2q0 -118 -84 -202q-91 -91 -221 -91q-90 0 -172 54q-35 25 -35 41q0 46 33 198q11 53 17 66.5t20 13.5q13 0 16.5 -13.5t3.5 -60.5q0 -52 8.5 -94.5t27.5 -78.5t52.5 -56t79.5 -20q58 0 100.5 50t42.5 111q0 65 -29 120.5t-81 117.5q-54 64 -82.5 117
t-28.5 118q0 117 76.5 208t191.5 91q72 0 135.5 -25t63.5 -46q0 -39 -22 -133q-20 -75 -26.5 -90t-20.5 -15q-9 0 -14.5 6.5t-9 21t-5 28.5t-4 37t-4.5 38q-20 129 -123 129q-59 0 -99 -44.5t-40 -106.5q0 -38 19 -82t35 -67.5t56 -76.5q31 -41 46 -62.5t37 -58t31 -71
t9 -70.5z" />
    <glyph glyph-name="t" unicode="t" 
d="M-16 63v3q0 70 53 245q39 126 188 566h-116q-12 0 -9 14q4 16 6 22q3 13 15 13h123l90 270q6 20 11.5 26.5t23.5 10.5q8 2 26 2h41q19 0 24 -2t5 -8q0 -16 -21 -80q-6 -17 -28 -88t-41 -131h141q15 0 10 -17q-4 -12 -6 -20q-2 -12 -16 -12h-148q-58 -182 -178 -529
q-63 -180 -63 -209q0 -16 8 -24.5t18 -8.5q16 0 38 23t71 86q27 36 47.5 70.5t28.5 46.5t18 12q14 0 14 -16q0 -30 -75 -140q-58 -85 -121.5 -144.5t-114.5 -59.5q-63 0 -63 79z" />
    <glyph glyph-name="u" unicode="u" horiz-adv-x="1024" 
d="M45 80v2q0 56 41 174q31 90 105.5 270.5t76.5 184.5q31 84 31 102q0 27 -20 27q-44 0 -132 -119q-19 -25 -35.5 -50t-25.5 -38.5t-16.5 -25t-12 -15.5t-8.5 -4q-18 0 -18 16q0 11 33 65t79.5 117t106 113.5t104.5 50.5q39 0 57.5 -21t18.5 -69q0 -39 -45 -162
q-25 -65 -83.5 -208t-80.5 -199q-45 -120 -45 -156q0 -41 41 -41q39 0 116.5 58t160.5 159q202 245 311 582q5 16 10 23t16 8q14 2 80 2q19 0 19 -21q0 -3 -10 -33q-8 -24 -104 -283.5t-128 -365.5q-22 -74 -22 -98q0 -14 7 -22.5t17 -8.5q37 0 133 125q28 36 47.5 68.5
t26 42.5t14.5 10q19 0 19 -18q0 -14 -32.5 -67t-80 -114t-109 -109t-110.5 -48q-31 0 -47 20.5t-16 50.5q0 53 22.5 130.5t71.5 218.5q8 23 12 34l-4 4q-51 -75 -108.5 -147.5t-127.5 -146t-141 -119t-127 -45.5q-41 0 -64.5 25t-23.5 71z" />
    <glyph glyph-name="v" unicode="v" horiz-adv-x="796" 
d="M23 125v2q0 67 53 211q26 72 81.5 205.5t71.5 175.5q27 76 27 98q0 35 -25 35q-21 0 -64.5 -49.5t-71 -90t-48.5 -73.5q-10 -16 -15 -21.5t-12 -5.5q-16 0 -16 13q0 16 23 55q81 128 133 180q86 90 162 90q33 0 49 -26.5t16 -65.5q0 -44 -35 -147q-24 -70 -82 -216.5
t-77 -199.5q-39 -112 -39 -158q0 -84 67 -84q63 0 132.5 52.5t126.5 130.5t104 163.5t73.5 156t26.5 103.5q0 43 -20 89q-2 5 -8 17.5t-9 19.5t-7 18.5t-5.5 24.5t-1.5 28q0 45 17.5 69.5t43.5 24.5q27 0 47.5 -32t20.5 -93q0 -115 -56 -263t-141 -275t-195 -215t-208 -88
q-139 0 -139 141z" />
    <glyph glyph-name="w" unicode="w" horiz-adv-x="1138" 
d="M705 926h40q23 0 30 -5t7 -18q0 -8 -14 -55q-9 -29 -70.5 -200.5t-101 -309.5t-39.5 -217q0 -28 13.5 -48t39.5 -20q53 0 114.5 53t113 131t94.5 163t67.5 155t24.5 100q0 44 -24.5 97t-24.5 98q0 47 16 73.5t45 26.5q66 0 66 -143q0 -52 -21 -132.5t-57.5 -172
t-89.5 -184t-112.5 -167t-132 -121t-142.5 -46.5q-46 0 -73.5 28.5t-27.5 81.5q0 80 48 260l-5 4q-79 -142 -117 -195q-126 -179 -251 -179q-123 0 -123 143q0 50 36.5 157t81 209.5t81 200t36.5 129.5q0 29 -20 29q-36 0 -117 -111q-23 -31 -41.5 -58.5t-26 -40.5
t-14.5 -23t-10.5 -12.5t-9.5 -2.5q-14 0 -14 14q0 12 31 63.5t75 112t101 108.5t102 48q41 0 58.5 -25.5t17.5 -62.5q0 -54 -59 -208.5t-118 -311t-59 -213.5q0 -68 49 -68q53 0 118.5 71t122.5 173t107 223q49 121 123 334q16 44 25.5 54t30.5 10z" />
    <glyph glyph-name="x" unicode="x" horiz-adv-x="796" 
d="M795 848v-2q0 -61 -26.5 -107.5t-66.5 -46.5q-21 0 -34 14t-13 35q0 15 14.5 47t14.5 39q0 11 -8 18t-19 7t-26.5 -17t-46.5 -59q-21 -28 -74.5 -112t-81.5 -127q9 -53 27.5 -160t27.5 -160q10 -57 19 -85t16 -33t19 -5q22 0 41 33t40 117l6 30t4.5 23.5l3 17t2.5 12.5
t3.5 7.5t5.5 4.5t8 1q17 0 17 -21q0 -25 -10.5 -76t-30.5 -111t-55.5 -104t-77.5 -44q-41 0 -64.5 19t-36.5 65q-8 28 -15.5 67.5t-20 122t-21.5 133.5q-142 -220 -230 -321q-39 -44 -71.5 -65t-71.5 -21q-78 0 -78 96q0 68 28.5 113t63.5 45q56 0 56 -62q0 -23 -18.5 -57
t-18.5 -37q0 -21 24 -21q31 0 115.5 107.5t190.5 275.5q-43 250 -64 326q-12 40 -23.5 55t-29.5 15q-63 0 -92 -152q-2 -12 -4 -25.5t-3.5 -21t-2.5 -15.5t-2.5 -12t-3.5 -7.5t-4.5 -5t-6.5 -1.5q-18 0 -18 18q0 8 3.5 37t16.5 81.5t33 98.5t58 80.5t87 34.5q43 0 67 -31
t42 -120q29 -150 39 -217q88 153 146 234.5t92.5 107.5t70.5 26q68 0 68 -102z" />
    <glyph glyph-name="y" unicode="y" horiz-adv-x="796" 
d="M768 823v-2q0 -122 -86 -299t-297 -469q-17 -23 -55.5 -74t-59.5 -79q-142 -192 -222 -265t-167 -73q-54 0 -81 36.5t-27 94.5q0 31 19 56.5t48 25.5q28 0 41.5 -20.5t22.5 -76.5q5 -38 47 -38q32 0 77 32.5t87 87.5q105 135 127 297q14 109 14 334q0 204 -8 305.5
t-20.5 128.5t-37.5 27q-23 0 -43.5 -24.5t-52.5 -84.5q-17 -29 -30.5 -64.5t-21 -49t-19.5 -13.5q-19 0 -19 25q0 24 55 129q40 76 87 128t92 52q68 0 98.5 -80.5t30.5 -271.5q0 -199 -2 -279q-3 -98 -9 -231l6 -4q4 6 40.5 57t72 103.5t66.5 103.5q133 216 133 344
q0 21 -21 82q-20 58 -20 86q0 40 18 65t47 25q70 0 70 -127z" />
    <glyph glyph-name="z" unicode="z" horiz-adv-x="796" 
d="M-66 18v2q0 40 50 74q45 31 104 47q4 0 22.5 24t60 82t75.5 103q202 274 395 434l-4 4q-76 -26 -115 -26q-57 0 -146.5 28.5t-117.5 28.5q-102 0 -102 -149q0 -42 -2.5 -53t-14.5 -11q-20 0 -20 39q0 55 10 106.5t31 100t61.5 77.5t95.5 29q45 0 146 -63q105 -64 158 -64
q20 0 32 1.5t21 8.5t12.5 12.5t13 21.5t17.5 28q41 64 80 64q26 0 26 -23q0 -27 -19.5 -50.5t-65.5 -60t-68 -57.5q-52 -52 -113 -125q-161 -197 -168 -205q-111 -131 -254 -286l4 -4q43 12 111 12q48 0 127 -23q75 -22 121 -22q57 0 82.5 32t25.5 95q0 25 -2 52t-2 32
q0 18 14 18q5 0 10.5 -7.5t11 -33.5t5.5 -65q0 -116 -70 -189q-67 -73 -163 -73q-74 0 -160 63q-66 49 -94 58q-18 6 -35 6q-39 0 -84 -64q-5 -6 -14 -18t-14 -18t-12 -13.5t-14 -10.5t-14 -3q-35 0 -35 34z" />
    <glyph glyph-name="braceleft" unicode="{" horiz-adv-x="681" 
d="M29 -244v2q0 30 28 138q70 262 107 393q24 87 24 129q0 84 -53 94q-3 1 -12 2.5t-12.5 2.5l-10.5 3t-10 4t-7 5.5t-5.5 7.5t-1.5 10q0 25 80 35q31 4 54 19t39.5 44t26.5 57t23 74l127 457q19 69 48.5 113t74 66.5t93 30t120.5 7.5q26 0 26 -25q0 -24 -32 -24
q-93 0 -134.5 -27t-64.5 -108l-125 -459q-17 -60 -34 -99t-43.5 -74t-66 -56.5t-95.5 -34.5l-3 -4q59 -14 88 -49t29 -80q0 -39 -31 -154q-8 -31 -45 -165t-53 -197q-26 -107 -26 -136q0 -42 30 -59.5t92 -17.5q27 0 27 -25q0 -13 -7 -19t-26 -6q-118 0 -178.5 28t-60.5 97z
" />
    <glyph glyph-name="bar" unicode="|" 
d="M279 -512h-103v2048h103v-2048z" />
    <glyph glyph-name="braceright" unicode="}" horiz-adv-x="681" 
d="M612 1325v-2q0 -29 -28 -137q-70 -262 -107 -393q-24 -87 -24 -129q0 -85 53 -95q4 -1 14 -3t14.5 -2.5t11.5 -3.5t10.5 -5.5t6 -7.5t2.5 -12q0 -25 -80 -35q-31 -4 -54 -19t-39.5 -44.5t-26.5 -57.5t-23 -74l-127 -457q-19 -69 -48.5 -113t-74 -66.5t-93 -30
t-120.5 -7.5q-26 0 -26 25t32 25q93 0 134.5 27t64.5 108l125 458q33 120 83 180t157 85l2 4q-59 14 -88 49t-29 80q0 38 31 153q8 28 45 164t53 199q26 107 26 135q0 43 -30.5 60.5t-91.5 17.5q-27 0 -27 24q0 13 7 19t26 6q118 0 178.5 -28t60.5 -97z" />
    <glyph glyph-name="asciitilde" unicode="~" horiz-adv-x="1228" 
d="M215 389l-74 74q92 176 256 176q80 0 236 -70q7 -3 32 -14.5t33 -15t28.5 -12t30.5 -11.5t25.5 -8t28 -6.5t23.5 -1.5q29 0 55 11.5t49.5 36t38 44.5t37.5 55l73 -74q-23 -32 -38.5 -52t-41 -46.5t-49.5 -41t-57 -25.5t-70 -11t-79.5 11.5t-70.5 24t-73 34.5
q-47 24 -72.5 35t-68 23t-80.5 12q-61 0 -101.5 -41t-70.5 -107z" />
    <glyph glyph-name="uni00A0" unicode="&#xa0;" 
 />
    <glyph glyph-name="exclamdown" unicode="&#xa1;" horiz-adv-x="569" 
d="M279 778v2q0 65 28 99t60 34q29 0 46 -21.5t17 -55.5q0 -69 -22.5 -102.5t-59.5 -33.5q-31 0 -50 22t-19 56zM-82 -356v2q0 36 41 129q150 354 279 717q17 49 26 65t25 16q20 0 20 -20q0 -9 -12 -55q-31 -116 -79 -311.5t-83 -340.5t-45 -174q-15 -49 -37.5 -71.5
t-70.5 -22.5q-30 0 -47 20t-17 46z" />
    <glyph glyph-name="cent" unicode="&#xa2;" horiz-adv-x="909" 
d="M586 1036l-211 -649q24 -6 33 -6q62 0 124.5 52.5t94.5 117.5q15 31 28 31q6 0 10.5 -5.5t4.5 -13.5q0 -23 -25.5 -64.5t-66.5 -84t-103.5 -75t-126.5 -34.5l-90 -274q-7 -22 -13.5 -26.5t-21.5 -4.5q-9 0 -13 1t-8.5 6.5t1.5 17.5l94 286q-145 42 -145 232q0 104 51 219
t143.5 203.5t198.5 107.5l59 182q7 22 13.5 26.5t21.5 4.5q10 0 13 -0.5t8 -6t-1 -17.5l-61 -189q67 -4 113.5 -32t46.5 -87q0 -36 -17.5 -59t-52.5 -23q-53 0 -53 58q0 15 4 41.5t4 34.5q0 27 -57 30zM328 403l204 633q-82 -25 -146 -108t-94 -179t-30 -182
q0 -69 15 -104.5t51 -59.5z" />
    <glyph glyph-name="sterling" unicode="&#xa3;" horiz-adv-x="909" 
d="M399 598h-174q-18 0 -18 6t10 31q4 8 9 10t20 2h145q-10 69 -10 180q0 79 26.5 164.5t72.5 158t115.5 119t147.5 46.5q54 0 87.5 -30.5t33.5 -84.5q0 -40 -22 -68t-60 -28q-42 0 -57 55q-3 11 -6 35t-6 33q-10 30 -45 30q-58 0 -111 -89.5t-53 -200.5q0 -67 15 -175
t18 -145h186q18 0 18 -6t-10 -31q-4 -8 -9 -10t-20 -2h-161q0 -210 -140 -387q7 -5 37.5 -26.5t43 -29.5t40.5 -25t45.5 -24t42 -13.5t45.5 -6.5q68 0 115 41t47 113q0 36 -13 67t-13 33q0 7 7.5 12.5t16.5 5.5q14 0 31.5 -35.5t17.5 -72.5q0 -110 -80.5 -192.5
t-185.5 -82.5q-126 0 -268 146q-65 -62 -140 -99.5t-145 -37.5q-75 0 -125.5 40t-50.5 113q0 85 68.5 135t160.5 50q43 0 89.5 -13.5t78 -28.5t92.5 -47q60 78 60 222q0 46 -19 143zM-8 139v-2q0 -42 29.5 -73t76.5 -31q46 0 103.5 34t99.5 85q-7 6 -32 29t-32 29t-27 21
t-31.5 19t-29 9t-36.5 5q-57 0 -89 -34t-32 -91z" />
    <glyph glyph-name="currency" unicode="&#xa4;" horiz-adv-x="909" 
d="M66 147l-78 78l170 172q-80 96 -80 240q0 67 22 130t58 107l-170 170l78 78l170 -170q100 80 237 80q69 0 133 -22t109 -58l170 170l78 -78l-170 -170q79 -96 79 -237q0 -144 -79 -240l170 -172l-78 -78l-170 172q-101 -81 -242 -81q-143 0 -237 81zM473 940h-2
q-122 0 -209.5 -91t-87.5 -212q0 -123 88 -215t211 -92q126 0 214.5 92t88.5 215q0 122 -88.5 212.5t-214.5 90.5z" />
    <glyph glyph-name="yen" unicode="&#xa5;" horiz-adv-x="909" 
d="M397 1178v-2q0 -19 17 -123q61 -348 78 -426q239 320 307 424q78 121 78 141q0 19 -15.5 32.5t-40.5 16.5q-43 6 -55 10.5t-12 16.5q0 22 20 22q13 0 65.5 -4t90.5 -4q32 0 78.5 4t58.5 4q27 0 27 -18q0 -27 -35 -31q-39 -5 -72 -32t-96 -115l-232 -316h179q24 0 24 -8
q0 -15 -6 -27q-3 -8 -9 -11t-22 -3h-200q-33 -45 -103 -139h260q25 0 25 -8q0 -15 -6 -27q-3 -8 -9 -11t-22 -3h-278q-65 -223 -101 -334q-22 -81 -22 -111q0 -26 13.5 -37t45.5 -18q7 -1 17 -2.5t15.5 -2.5t12 -2.5t10.5 -3t7 -4t4.5 -5.5t1.5 -7q0 -12 -7 -17t-30 -5
q-14 0 -75.5 4t-96.5 4q-50 0 -120 -4t-77 -4q-27 0 -27 18q0 12 11 17t40 8t42 6q36 8 55 30t39 85q78 258 115 385h-254q-25 0 -25 8q0 14 6 26q6 15 31 15h250q-13 75 -27 139h-180q-25 0 -25 8q0 15 6 27q3 8 9 11t22 3h160l-45 248q-2 11 -6 31q-23 126 -36 151
q-15 24 -52 33q-6 1 -15 3l-13.5 3t-11 2.5t-10 3t-6.5 4t-4.5 6t-1.5 7.5q0 20 25 20q12 0 66.5 -4t95.5 -4q43 0 110 4t90 4t23 -20q0 -14 -17 -19t-63 -10q-41 -4 -55.5 -18.5t-14.5 -44.5z" />
    <glyph glyph-name="brokenbar" unicode="&#xa6;" 
d="M279 666h-103v716h103v-716zM279 -358h-103v716h103v-716z" />
    <glyph glyph-name="section" unicode="&#xa7;" horiz-adv-x="1024" 
d="M823 424v-2q0 -107 -67.5 -184.5t-177.5 -77.5q-30 0 -68 12q-10 0 -10 -10q26 -32 38.5 -48.5t35 -52t33.5 -70.5t11 -69q0 -132 -92 -215.5t-227 -83.5q-107 0 -179.5 59t-72.5 136q0 56 26 95.5t74 39.5q34 0 55 -23.5t21 -62.5q0 -27 -11.5 -48t-26 -31t-27 -24.5
t-13.5 -29.5q0 -28 52 -51t94 -23q94 0 161.5 58.5t67.5 150.5q0 51 -39.5 115t-96 128t-113.5 132t-96.5 147.5t-39.5 153.5q0 114 70.5 180t165.5 66q44 0 90 -17q6 0 6 10q-121 160 -121 273q0 83 46 143t114.5 87.5t148.5 27.5q114 0 176 -61t62 -128q0 -46 -26.5 -80
t-69.5 -34q-34 0 -57 21.5t-23 56.5q0 34 32.5 66t32.5 54q0 27 -35.5 47.5t-89.5 20.5q-95 0 -154 -53t-59 -135q0 -60 39 -127t95 -130t111.5 -127t94.5 -138.5t39 -143.5zM573 197h2q70 0 110 53.5t40 118.5q0 37 -30 101t-77 128q-50 69 -110 112.5t-119 43.5
q-64 0 -110 -44t-46 -106q0 -52 22.5 -104.5t98.5 -153.5q111 -149 219 -149z" />
    <glyph glyph-name="dieresis" unicode="&#xa8;" 
d="M158 1130h-2q-28 0 -43 22t-15 54q0 42 31 84.5t72 42.5q30 0 46.5 -20t16.5 -49q0 -47 -31 -90.5t-75 -43.5zM459 1130h-2q-28 0 -43 22t-15 54q0 42 31 84.5t72 42.5q30 0 46.5 -20t16.5 -49q0 -47 -31 -90.5t-75 -43.5z" />
    <glyph glyph-name="copyright" unicode="&#xa9;" horiz-adv-x="1638" 
d="M1544 715v-2q0 -198 -97 -368t-264 -270t-364 -100q-147 0 -281 59t-231.5 158.5t-155 236t-57.5 286.5q0 201 97.5 372t264.5 271t363 100q197 0 364 -99.5t264 -270.5t97 -373zM197 715v-2q0 -127 50 -247.5t133.5 -210t199 -144t239.5 -54.5q166 0 310.5 92
t228.5 243.5t84 322.5q0 173 -83.5 325t-228 244t-311.5 92q-125 0 -240.5 -54.5t-198.5 -145t-133 -212t-50 -249.5zM1180 528l-35 -145q-4 -17 -15.5 -25t-37.5 -16q-112 -35 -228 -35q-94 0 -173 23.5t-143 72.5t-100 133t-36 197q0 69 30 140t85 133t147 101.5t203 39.5
q53 0 97.5 -6.5t66 -13t59.5 -19.5q45 -16 45 -45v-150h-37q-2 77 -60.5 129t-181.5 52q-144 0 -226.5 -97t-84.5 -256q-2 -178 81.5 -279.5t248.5 -101.5q196 0 256 168h39z" />
    <glyph glyph-name="ordfeminine" unicode="&#xaa;" horiz-adv-x="606" 
d="M494 985h-5q-28 -40 -44.5 -62.5t-53 -66t-64 -68.5t-63 -46t-65.5 -21q-82 0 -82 108q0 78 40.5 165t100 154t130.5 111t130 44q49 0 86 -29q11 29 15.5 35t17.5 6h51q19 0 19 -8q0 -3 -83 -221t-83 -263q0 -12 12 -12q3 0 12.5 8.5t25.5 28.5t32 45q7 11 14.5 23t11 18
l7 12t7 8t7.5 2q7 0 11.5 -4.5t4.5 -9.5q0 -19 -30 -70.5t-82.5 -101t-100.5 -49.5q-43 0 -43 43q0 35 30 119.5t34 101.5zM575 1214v3q0 49 -57 49q-45 0 -101.5 -49.5t-102 -117t-76.5 -138t-31 -111.5q0 -47 39 -47q33 0 90.5 56t109.5 127.5t90.5 138.5t38.5 89z" />
    <glyph glyph-name="guillemotleft" unicode="&#xab;" horiz-adv-x="909" 
d="M391 205h-78q-45 0 -59 39l-55 139q-9 24 -27 49q-10 13 -10 19q0 2 2.5 4l7.5 6t8 8q33 33 45 49l113 139q32 39 78 39h80q18 0 18 -8t-27 -8q-31 0 -86 -66l-100 -125q-22 -26 -39 -38q9 -12 21 -39l49 -125q25 -66 57 -66q25 0 25 -8t-23 -8zM625 205h-78
q-46 0 -60 39l-55 139q-10 27 -26 49q-11 15 -11 19q0 2 3 4t8 6t8 8q33 33 45 49l112 139q32 39 78 39h80q19 0 19 -8t-27 -8q-31 0 -86 -66l-100 -125q-22 -26 -39 -38q7 -9 20 -39l49 -125q25 -66 58 -66q24 0 24 -8t-22 -8z" />
    <glyph glyph-name="logicalnot" unicode="&#xac;" horiz-adv-x="1228" 
d="M1028 221v445h-930v102h1032v-547h-102z" />
    <glyph glyph-name="uni00AD" unicode="&#xad;" horiz-adv-x="569" 
d="M84 508h362q29 0 29 -10q0 -5 -31 -64q-8 -16 -26 -16h-371q-27 0 -27 10q0 1 29 61q5 9 7.5 11.5t9 5t18.5 2.5z" />
    <glyph glyph-name="registered" unicode="&#xae;" horiz-adv-x="1638" 
d="M1544 715v-2q0 -198 -97 -368t-264 -270t-364 -100q-147 0 -281 59t-231.5 158.5t-155 236t-57.5 286.5q0 201 97.5 372t264.5 271t363 100q197 0 364 -99.5t264 -270.5t97 -373zM197 715v-2q0 -127 50 -247.5t133.5 -210t199 -144t239.5 -54.5q166 0 310.5 92
t228.5 243.5t84 322.5q0 173 -83.5 325t-228 244t-311.5 92q-125 0 -240.5 -54.5t-198.5 -145t-133 -212t-50 -249.5zM475 1094v28h365q67 0 122.5 -19.5t93.5 -64.5t38 -108q0 -84 -49 -144t-127 -86l124 -170q48 -64 97 -115.5t80 -68.5v-16h-117q-22 0 -41.5 13.5
t-44 46.5t-47 68.5t-65 101t-81.5 122.5h-118v-211q0 -74 15 -89.5t93 -21.5v-30h-338v30q78 6 93.5 22t15.5 89v510q0 75 -15.5 91t-93.5 22zM705 1085v-368h104q81 0 122.5 52.5t41.5 150.5q0 87 -47.5 126t-124.5 39h-96z" />
    <glyph glyph-name="macron" unicode="&#xaf;" 
d="M139 1249h447q16 0 16 -6q0 -7 -24 -49q-11 -21 -18 -26t-25 -5h-447q-16 0 -16 6q0 8 24 50q11 20 17.5 25t25.5 5z" />
    <glyph glyph-name="degree" unicode="&#xb0;" horiz-adv-x="819" 
d="M489 1315h3q122 0 206 -85t84 -208t-85 -208t-208 -85t-207.5 85t-84.5 208t84.5 208t207.5 85zM489 1253h-2q-90 0 -154.5 -69t-64.5 -162t65 -162t156 -69t156.5 69t65.5 162t-65.5 162t-156.5 69z" />
    <glyph glyph-name="plusminus" unicode="&#xb1;" horiz-adv-x="1228" 
d="M563 655v381h103v-381h464v-102h-464v-381h-103v381h-465v102h465zM98 -25v103h1032v-103h-1032z" />
    <glyph glyph-name="twosuperior" unicode="&#xb2;" horiz-adv-x="544" 
d="M145 612l5 -4h49q84 0 125 2q53 3 78.5 21.5t48.5 64.5q23 51 35 59q7 5 16 5q22 0 22 -17q0 -10 -10 -45.5t-24.5 -81.5t-18.5 -59q-6 -23 -12 -30t-23 -7q-14 0 -86 3t-129 3q-51 0 -112.5 -3t-81.5 -3q-17 0 -17 12q0 14 80 91q32 31 113.5 105t99.5 91
q199 184 199 324q0 125 -96 125q-81 0 -144 -84q-12 -17 -25.5 -43.5t-23 -40t-20.5 -13.5q-15 0 -15 17t14.5 49t41.5 69.5t78 65t112 27.5q88 0 139 -46.5t51 -125.5q0 -53 -16 -97t-53.5 -85.5t-75 -74t-103.5 -83.5q-11 -8 -16 -12q-114 -88 -205 -179z" />
    <glyph glyph-name="threesuperior" unicode="&#xb3;" horiz-adv-x="544" 
d="M348 944v-4q29 0 45 -2q74 -15 116 -64.5t42 -125.5q0 -94 -63.5 -179.5t-164 -136.5t-206.5 -51q-68 0 -101.5 24.5t-33.5 61.5q0 55 53 55q24 0 39 -14.5t18 -38.5q9 -51 55 -51q105 0 195 104t90 234q0 63 -34.5 106t-96.5 43q-34 0 -61 -12.5t-44 -24.5t-26 -12
q-16 0 -16 16t38.5 38t116.5 57q94 41 141.5 104t47.5 111q0 39 -20.5 62.5t-59.5 23.5q-58 0 -101 -43q-19 -19 -34.5 -42.5t-24 -34.5t-18.5 -11q-17 0 -17 22q0 5 7 21t25 39t43.5 44.5t68 36.5t92.5 15q66 0 108.5 -36t42.5 -95q0 -27 -11 -53t-24 -44.5t-41 -40
t-44 -32.5t-52 -28.5t-46 -22t-44 -19.5z" />
    <glyph glyph-name="acute" unicode="&#xb4;" 
d="M201 1061h-2q-15 0 -15 16q0 6 3 12.5t13 17t15.5 15t22.5 19.5l217 196q24 21 34.5 29.5t32.5 20.5t39 12q22 0 36.5 -12.5t14.5 -36.5t-19 -42t-50 -37q-2 -1 -3.5 -1.5t-2.5 -1.5l-273 -176q-48 -31 -63 -31z" />
    <glyph glyph-name="mu" unicode="&#xb5;" horiz-adv-x="1024" 
d="M641 438l-4 4q-14 -19 -49.5 -70t-55.5 -78t-57.5 -74t-65 -74.5t-68 -62.5t-76.5 -53.5t-81 -32t-90 -13.5q-44 -94 -67 -226q-4 -25 -5.5 -32.5t-6.5 -32t-8.5 -34.5t-10.5 -29.5t-14.5 -28t-18 -19.5t-23.5 -15.5t-28 -4.5q-27 0 -40.5 15t-14.5 50q0 27 29 99
t67.5 157t48.5 113q55 160 88 260q28 89 99.5 262t78.5 193q31 84 31 102q0 27 -20 27q-44 0 -132 -119q-19 -25 -35.5 -50t-25.5 -38.5t-16.5 -25t-12 -15.5t-8.5 -4q-18 0 -18 16q0 11 33 65t79.5 117t106 113.5t104.5 50.5q39 0 57.5 -21t18.5 -69q0 -39 -45 -162
q-25 -65 -83.5 -208t-80.5 -199q-45 -120 -45 -156q0 -41 41 -41q39 0 116.5 58t160.5 159q202 245 311 582q5 16 10 23t16 8q14 2 80 2q19 0 19 -21q0 -3 -10 -33q-8 -24 -104 -283.5t-128 -365.5q-22 -74 -22 -98q0 -14 7 -22.5t17 -8.5q37 0 133 125q28 36 47.5 68.5
t26 42.5t14.5 10q19 0 19 -18q0 -14 -32.5 -67t-80 -114t-109 -109t-110.5 -48q-31 0 -47 20.5t-16 50.5q0 53 22.5 130.5t71.5 218.5q8 23 12 34z" />
    <glyph glyph-name="paragraph" unicode="&#xb6;" horiz-adv-x="1228" 
d="M322 -328l217 789q-85 0 -149 25.5t-101 70t-54.5 99t-17.5 118.5q0 136 81 254.5t209 186t267 67.5h440q46 0 46 -22q0 -27 -50 -27q-28 0 -50 -3.5t-37.5 -7.5t-28 -16t-19.5 -19.5t-15.5 -28.5t-12 -31.5t-11.5 -39.5l-389 -1415h-102l426 1549h-121l-426 -1549h-102z
" />
    <glyph glyph-name="periodcentered" unicode="&#xb7;" 
d="M301 547v-2q0 -52 -22.5 -92.5t-63.5 -40.5q-29 0 -47 21.5t-18 55.5q0 53 22.5 94.5t63.5 41.5q29 0 47 -22t18 -56z" />
    <glyph glyph-name="cedilla" unicode="&#xb8;" 
d="M63 0l-61 -109q24 7 47 7q60 0 106 -36.5t46 -103.5q0 -87 -70 -137.5t-147 -50.5q-56 0 -116.5 30.5t-60.5 80.5q0 16 10 27t27 11q19 0 33.5 -16.5t24.5 -35.5t32 -35.5t54 -16.5q48 0 83 38t35 93q0 47 -29.5 66.5t-68.5 19.5q-14 0 -39 -4t-32 -4q-15 0 -15 12
q0 14 19 43l69 121h53z" />
    <glyph glyph-name="onesuperior" unicode="&#xb9;" horiz-adv-x="544" 
d="M326 594v-2q0 -29 53 -33q18 -1 27 -2.5t17.5 -7.5t8.5 -17q0 -12 -18 -12q-10 0 -69 3t-95 3q-29 0 -71.5 -3t-55.5 -3q-27 0 -27 19q0 16 32 19q1 0 19 1q56 4 68 41q27 83 58 175.5t68.5 205.5t57.5 174q13 35 13 49q0 6 -6 6t-52 -18t-59 -18q-16 0 -16 18
q0 10 6.5 14.5t31.5 14.5q122 46 177 79q26 15 45 15q12 0 12 -8q0 -6 -16 -52q-99 -303 -193 -581q-16 -52 -16 -80z" />
    <glyph glyph-name="ordmasculine" unicode="&#xba;" horiz-adv-x="477" 
d="M565 1112v-2q0 -92 -40 -181.5t-110 -148.5t-147 -59q-74 0 -120 63.5t-46 143.5q0 92 40 181t109.5 147.5t147.5 58.5q74 0 120 -62t46 -141zM190 885v-2q0 -51 19.5 -85t58.5 -34q47 0 97.5 74t81 166t30.5 151q0 49 -20.5 83t-57.5 34q-51 0 -101.5 -74t-79 -164
t-28.5 -149z" />
    <glyph glyph-name="guillemotright" unicode="&#xbb;" horiz-adv-x="909" 
d="M274 696h78q46 0 60 -39l55 -139q9 -24 27 -49q10 -13 10 -18q0 -2 -3 -4.5t-8 -6.5t-8 -8q-33 -33 -45 -49l-112 -139q-32 -39 -78 -39h-80q-18 0 -18 8t26 8q31 0 86 66l101 125q26 31 38 39q-8 10 -20 38l-49 125q-25 66 -58 66q-24 0 -24 8t22 8zM508 696h78
q45 0 59 -39l55 -139q9 -24 27 -49q10 -13 10 -18q0 -2 -2.5 -4.5t-7.5 -6.5t-8 -8q-33 -33 -45 -49l-113 -139q-32 -39 -78 -39h-80q-18 0 -18 8t27 8q31 0 86 66l100 125q25 29 39 39q-10 13 -21 38l-49 125q-25 66 -57 66q-25 0 -25 8t23 8z" />
    <glyph glyph-name="onequarter" unicode="&#xbc;" horiz-adv-x="1363" 
d="M539 1315h2q10 0 10 -8q0 -6 -16 -52q-99 -303 -193 -581q-16 -52 -16 -80q0 -31 53 -35q18 -1 27 -2.5t17.5 -7.5t8.5 -17q0 -12 -18 -12q-10 0 -69 3t-95 3q-29 0 -71.5 -3t-55.5 -3q-27 0 -27 19q0 16 32 19q1 0 19 1q56 4 68 41q27 83 58 175.5t68.5 205.5t57.5 174
q13 35 13 49q0 6 -6 6t-52 -18t-59 -18q-16 0 -16 18q0 10 6.5 14.5t31.5 14.5q122 46 177 79q26 15 45 15zM307 -33h-24q-27 0 -27 13q0 10 33 57l856 1243q15 22 21.5 28.5t17.5 6.5h24q27 0 27 -12q0 -11 -33 -58l-856 -1243q-15 -22 -21.5 -28.5t-17.5 -6.5zM1274 244
h-72q-10 0 -13.5 -3.5t-8.5 -17.5q-43 -132 -43 -166q0 -20 39 -24q38 0 38 -21q0 -10 -5.5 -13t-24.5 -3q-16 0 -55 2t-68 2q-25 0 -62.5 -2t-52.5 -2q-24 0 -24 14q0 11 9 15t31 7q5 1 7 1q17 1 27.5 3.5t21 12.5t16.5 27q49 156 49 160q0 8 -22 8h-258q-11 0 -14 2.5
t-3 9.5q0 8 7 29q6 12 14 24q89 89 244.5 254.5t257.5 267.5q2 1 5.5 4.5t5.5 5t6 3.5t8 3t9 1h19q24 0 24 -10q0 -7 -22 -29q-168 -172 -508 -516h229q11 0 15.5 3t7.5 15l76 246q8 23 26 29q56 18 78 18q6 0 6 -6q0 -2 -14 -49q-10 -32 -21.5 -68.5t-25 -80.5t-21.5 -70
q-8 -16 -8 -29q0 -8 17 -8h57q18 0 18 -4q0 -11 -6 -35q-2 -10 -16 -10z" />
    <glyph glyph-name="onehalf" unicode="&#xbd;" horiz-adv-x="1363" 
d="M551 1307v-2q0 -4 -16 -50q-99 -303 -193 -581q-16 -52 -16 -80q0 -31 53 -35q18 -1 27 -2.5t17.5 -7.5t8.5 -17q0 -12 -18 -12q-10 0 -69 3t-95 3q-29 0 -71.5 -3t-55.5 -3q-27 0 -27 19q0 16 32 19q1 0 19 1q56 4 68 41q27 83 58 175.5t68.5 205.5t57.5 174
q13 35 13 49q0 6 -6 6t-52 -18t-59 -18q-16 0 -16 18q0 10 6.5 14.5t31.5 14.5q122 46 177 79q26 15 45 15q12 0 12 -8zM283 -33h-25q-27 0 -27 13q0 10 33 57l856 1243q15 22 21.5 28.5t17.5 6.5h25q26 0 26 -12t-32 -58l-856 -1243q-15 -22 -21.5 -28.5t-17.5 -6.5z
M858 86l4 -4h49q84 0 125 2q53 3 78.5 21.5t48.5 64.5q12 26 17 35.5t14 18.5t20 9q23 0 23 -16q0 -10 -10 -45.5t-24.5 -81.5t-18.5 -59q-6 -23 -12 -30t-23 -7q-14 0 -86 3t-129 3q-51 0 -113 -3t-82 -3q-16 0 -16 12q0 13 80 90q9 9 213 197q198 184 198 323
q0 125 -96 125q-80 0 -143 -84q-12 -17 -26 -43.5t-23.5 -39.5t-20.5 -13q-14 0 -14 17q0 13 8.5 36t28 53.5t46.5 57t70 45t93 18.5q88 0 139 -46.5t51 -125.5q0 -53 -16 -97t-53.5 -85.5t-75 -74t-103.5 -83.5q-11 -8 -16 -12q-119 -92 -205 -178z" />
    <glyph glyph-name="threequarters" unicode="&#xbe;" horiz-adv-x="1363" 
d="M348 944v-4q29 0 45 -2q74 -15 116 -64.5t42 -125.5q0 -94 -63.5 -179.5t-164 -136.5t-206.5 -51q-68 0 -101.5 24.5t-33.5 61.5q0 55 53 55q24 0 39 -14.5t18 -38.5q9 -51 55 -51q105 0 195 104t90 234q0 63 -34.5 106t-96.5 43q-34 0 -61 -12.5t-44 -24.5t-26 -12
q-16 0 -16 16t38.5 38t116.5 57q94 41 141.5 104t47.5 111q0 39 -20.5 62.5t-59.5 23.5q-58 0 -101 -43q-19 -19 -34.5 -42.5t-24 -34.5t-18.5 -11q-17 0 -17 22q0 5 7 21t25 39t43.5 44.5t68 36.5t92.5 15q66 0 108.5 -36t42.5 -95q0 -27 -11 -53t-24 -44.5t-41 -40
t-44 -32.5t-52 -28.5t-46 -22t-44 -19.5zM309 -33h-24q-27 0 -27 13q0 10 33 57l856 1243q15 22 21.5 28.5t17.5 6.5h24q27 0 27 -12q0 -11 -33 -58l-856 -1243q-15 -22 -21.5 -28.5t-17.5 -6.5zM1274 244h-72q-10 0 -13.5 -3.5t-8.5 -17.5q-43 -132 -43 -166q0 -20 39 -24
q38 0 38 -21q0 -10 -5.5 -13t-24.5 -3q-16 0 -55 2t-68 2q-25 0 -62.5 -2t-52.5 -2q-24 0 -24 14q0 11 9 15t31 7q5 1 7 1q17 1 27.5 3.5t21 12.5t16.5 27q49 156 49 160q0 8 -22 8h-258q-11 0 -14 2.5t-3 9.5q0 8 7 29q6 12 14 24q89 89 244.5 254.5t257.5 267.5
q2 1 5.5 4.5t5.5 5t6 3.5t8 3t9 1h19q24 0 24 -10q0 -7 -22 -29q-168 -172 -508 -516h229q11 0 15.5 3t7.5 15l76 246q8 23 26 29q56 18 78 18q6 0 6 -6q0 -2 -14 -49q-10 -32 -21.5 -68.5t-25 -80.5t-21.5 -70q-8 -16 -8 -29q0 -8 17 -8h57q18 0 18 -4q0 -11 -6 -35
q-2 -10 -16 -10z" />
    <glyph glyph-name="questiondown" unicode="&#xbf;" horiz-adv-x="681" 
d="M367 778v2q0 52 22.5 92.5t63.5 40.5q29 0 47 -21.5t18 -55.5q0 -53 -22.5 -94.5t-63.5 -41.5q-29 0 -47 22t-18 56zM-109 -152v2q0 108 70 206.5t182 172.5q115 76 149 122.5t66 174.5q9 33 13 41t12 8q16 0 16 -12q0 -4 -0.5 -9.5t-1.5 -16t-2 -19.5q-10 -102 -37 -225
q-13 -61 -28.5 -83t-63.5 -56q-13 -9 -44 -30t-50 -34t-49.5 -36.5t-50 -42.5t-43 -46.5t-37 -53t-22.5 -57.5t-9 -65q0 -79 33.5 -120.5t77.5 -41.5q80 0 161 162q11 22 20 44l13.5 33t9.5 21t10 13.5t13 3.5q11 0 15.5 -6t4.5 -23q0 -49 -10 -113q-16 -103 -28 -127
q-13 -24 -60.5 -40.5t-116.5 -16.5q-103 0 -158 78.5t-55 191.5z" />
    <glyph glyph-name="Agrave" unicode="&#xc0;" horiz-adv-x="796" 
d="M487 471h-274q-13 0 -18 -2t-11 -12q-60 -106 -123 -226q-57 -112 -57 -133q0 -26 15.5 -36.5t60.5 -20.5t51 -19q2 -3 2 -8q0 -22 -41 -22q-22 0 -80 4t-86 4q-23 0 -68.5 -4t-66.5 -4q-24 0 -24 16q0 13 11 20t40 13q40 8 70 39.5t92 136.5q90 152 280.5 489t300.5 523
q37 65 49 65q10 0 13.5 -5t3.5 -23q0 -40 -7.5 -568t-7.5 -587q0 -35 12.5 -48.5t34.5 -17.5q3 -1 10.5 -2t10.5 -1.5l9 -1.5t8.5 -3t5.5 -4.5t4.5 -6t1.5 -8.5q0 -15 -6 -20.5t-25 -5.5q-17 0 -67.5 4t-82.5 4q-39 0 -92.5 -4t-64.5 -4q-13 0 -18.5 0.5t-10 5t-4.5 14.5
q0 4 1 7.5t4 6t6 4.5t8 4t9 3t10.5 2.5t11 2t12.5 1.5t12 2q33 6 52 19t19 45q0 47 2 172.5t2 189.5zM489 528l13 496l-4 2q-197 -351 -273 -498h264zM371 1659v2q0 23 13.5 36t35.5 13q28 0 49 -16.5t51 -55.5l160 -198q43 -53 43 -64q0 -16 -16 -16q-17 0 -60 37l-213 178
q-21 18 -30 26.5t-20.5 25.5t-12.5 32z" />
    <glyph glyph-name="Aacute" unicode="&#xc1;" horiz-adv-x="796" 
d="M487 471h-274q-13 0 -18 -2t-11 -12q-60 -106 -123 -226q-57 -112 -57 -133q0 -26 15.5 -36.5t60.5 -20.5t51 -19q2 -3 2 -8q0 -22 -41 -22q-22 0 -80 4t-86 4q-23 0 -68.5 -4t-66.5 -4q-24 0 -24 16q0 13 11 20t40 13q40 8 70 39.5t92 136.5q90 152 280.5 489t300.5 523
q37 65 49 65q10 0 13.5 -5t3.5 -23q0 -40 -7.5 -568t-7.5 -587q0 -35 12.5 -48.5t34.5 -17.5q3 -1 10.5 -2t10.5 -1.5l9 -1.5t8.5 -3t5.5 -4.5t4.5 -6t1.5 -8.5q0 -15 -6 -20.5t-25 -5.5q-17 0 -67.5 4t-82.5 4q-39 0 -92.5 -4t-64.5 -4q-13 0 -18.5 0.5t-10 5t-4.5 14.5
q0 4 1 7.5t4 6t6 4.5t8 4t9 3t10.5 2.5t11 2t12.5 1.5t12 2q33 6 52 19t19 45q0 47 2 172.5t2 189.5zM489 528l13 496l-4 2q-197 -351 -273 -498h264zM475 1360h-2q-14 0 -14 16q0 12 12 25.5t41 38.5l217 196q71 62 107 62q22 0 36.5 -12.5t14.5 -36.5q0 -17 -12 -32.5
t-24.5 -24.5t-32.5 -21q-5 -3 -7 -4l-272 -176q-48 -31 -64 -31z" />
    <glyph glyph-name="Acircumflex" unicode="&#xc2;" horiz-adv-x="796" 
d="M487 471h-274q-13 0 -18 -2t-11 -12q-60 -106 -123 -226q-57 -112 -57 -133q0 -26 15.5 -36.5t60.5 -20.5t51 -19q2 -3 2 -8q0 -22 -41 -22q-22 0 -80 4t-86 4q-23 0 -68.5 -4t-66.5 -4q-24 0 -24 16q0 13 11 20t40 13q40 8 70 39.5t92 136.5q90 152 280.5 489t300.5 523
q37 65 49 65q10 0 13.5 -5t3.5 -23q0 -40 -7.5 -568t-7.5 -587q0 -35 12.5 -48.5t34.5 -17.5q3 -1 10.5 -2t10.5 -1.5l9 -1.5t8.5 -3t5.5 -4.5t4.5 -6t1.5 -8.5q0 -15 -6 -20.5t-25 -5.5q-17 0 -67.5 4t-82.5 4q-39 0 -92.5 -4t-64.5 -4q-13 0 -18.5 0.5t-10 5t-4.5 14.5
q0 4 1 7.5t4 6t6 4.5t8 4t9 3t10.5 2.5t11 2t12.5 1.5t12 2q33 6 52 19t19 45q0 47 2 172.5t2 189.5zM489 528l13 496l-4 2q-197 -351 -273 -498h264zM641 1602l-260 -211q-39 -31 -55 -31q-17 0 -17 16q0 17 49 66l187 194q42 43 56 54.5t30 11.5h41q17 0 23.5 -7.5
t25.5 -49.5l96 -211q21 -42 21 -56q0 -18 -17 -18q-14 0 -43 45z" />
    <glyph glyph-name="Atilde" unicode="&#xc3;" horiz-adv-x="796" 
d="M487 471h-274q-13 0 -18 -2t-11 -12q-60 -106 -123 -226q-57 -112 -57 -133q0 -26 15.5 -36.5t60.5 -20.5t51 -19q2 -3 2 -8q0 -22 -41 -22q-22 0 -80 4t-86 4q-23 0 -68.5 -4t-66.5 -4q-24 0 -24 16q0 13 11 20t40 13q40 8 70 39.5t92 136.5q90 152 280.5 489t300.5 523
q37 65 49 65q10 0 13.5 -5t3.5 -23q0 -40 -7.5 -568t-7.5 -587q0 -35 12.5 -48.5t34.5 -17.5q3 -1 10.5 -2t10.5 -1.5l9 -1.5t8.5 -3t5.5 -4.5t4.5 -6t1.5 -8.5q0 -15 -6 -20.5t-25 -5.5q-17 0 -67.5 4t-82.5 4q-39 0 -92.5 -4t-64.5 -4q-13 0 -18.5 0.5t-10 5t-4.5 14.5
q0 4 1 7.5t4 6t6 4.5t8 4t9 3t10.5 2.5t11 2t12.5 1.5t12 2q33 6 52 19t19 45q0 47 2 172.5t2 189.5zM489 528l13 496l-4 2q-197 -351 -273 -498h264zM737 1417h-2q-36 0 -75 21.5t-67.5 47t-63 47t-60.5 21.5q-39 0 -73.5 -30t-55.5 -60t-27 -30q-8 0 -8 10q0 51 68 115.5
t149 64.5q36 0 76.5 -21.5t70 -47t64 -47t58.5 -21.5q39 0 73.5 30.5t55 60.5t26.5 30q8 0 8 -11q0 -51 -68 -115.5t-149 -64.5z" />
    <glyph glyph-name="Adieresis" unicode="&#xc4;" horiz-adv-x="796" 
d="M487 471h-274q-13 0 -18 -2t-11 -12q-60 -106 -123 -226q-57 -112 -57 -133q0 -26 15.5 -36.5t60.5 -20.5t51 -19q2 -3 2 -8q0 -22 -41 -22q-22 0 -80 4t-86 4q-23 0 -68.5 -4t-66.5 -4q-24 0 -24 16q0 13 11 20t40 13q40 8 70 39.5t92 136.5q90 152 280.5 489t300.5 523
q37 65 49 65q10 0 13.5 -5t3.5 -23q0 -40 -7.5 -568t-7.5 -587q0 -35 12.5 -48.5t34.5 -17.5q3 -1 10.5 -2t10.5 -1.5l9 -1.5t8.5 -3t5.5 -4.5t4.5 -6t1.5 -8.5q0 -15 -6 -20.5t-25 -5.5q-17 0 -67.5 4t-82.5 4q-39 0 -92.5 -4t-64.5 -4q-13 0 -18.5 0.5t-10 5t-4.5 14.5
q0 4 1 7.5t4 6t6 4.5t8 4t9 3t10.5 2.5t11 2t12.5 1.5t12 2q33 6 52 19t19 45q0 47 2 172.5t2 189.5zM489 528l13 496l-4 2q-197 -351 -273 -498h264zM453 1430h-2q-28 0 -43 22t-15 53q0 42 31 84.5t72 42.5q30 0 46.5 -20t16.5 -49q0 -47 -31 -90t-75 -43zM754 1430h-2
q-28 0 -43 22t-15 53q0 42 31 84.5t72 42.5q30 0 46.5 -20t16.5 -49q0 -47 -31 -90t-75 -43z" />
    <glyph glyph-name="Aring" unicode="&#xc5;" horiz-adv-x="796" 
d="M487 471h-274q-13 0 -18 -2t-11 -12q-60 -106 -123 -226q-57 -112 -57 -133q0 -26 15.5 -36.5t60.5 -20.5t51 -19q2 -3 2 -8q0 -22 -41 -22q-22 0 -80 4t-86 4q-23 0 -68.5 -4t-66.5 -4q-24 0 -24 16q0 13 11 20t40 13q40 8 70 39.5t92 136.5q90 152 280.5 489t300.5 523
q37 65 49 65q10 0 13.5 -5t3.5 -23q0 -40 -7.5 -568t-7.5 -587q0 -35 12.5 -48.5t34.5 -17.5q3 -1 10.5 -2t10.5 -1.5l9 -1.5t8.5 -3t5.5 -4.5t4.5 -6t1.5 -8.5q0 -15 -6 -20.5t-25 -5.5q-17 0 -67.5 4t-82.5 4q-39 0 -92.5 -4t-64.5 -4q-13 0 -18.5 0.5t-10 5t-4.5 14.5
q0 4 1 7.5t4 6t6 4.5t8 4t9 3t10.5 2.5t11 2t12.5 1.5t12 2q33 6 52 19t19 45q0 47 2 172.5t2 189.5zM489 528l13 496l-4 2q-197 -351 -273 -498h264zM639 1348h-2q-83 0 -142 59t-59 143q0 85 59 144t144 59t144 -59t59 -144t-59 -143.5t-144 -58.5zM639 1411h2
q57 0 97 40.5t40 98.5q0 59 -40.5 99.5t-98.5 40.5t-98.5 -40.5t-40.5 -99.5q0 -58 40 -98.5t99 -40.5z" />
    <glyph glyph-name="AE" unicode="&#xc6;" horiz-adv-x="1366" 
d="M698 647h-272q-10 0 -16 -4.5t-17 -19.5l-289 -390q-42 -57 -54.5 -79t-12.5 -41q0 -31 19.5 -47t70.5 -23q26 -3 35.5 -8t9.5 -19q0 -24 -33 -24q-10 0 -68 4t-100 4q-41 0 -97 -4t-71 -4q-20 0 -20 26q0 12 7 19t15.5 9.5t26.5 6.5q60 12 96 60l801 1015q64 80 64 93
q0 17 -50 20q-38 1 -49.5 7t-11.5 18q0 24 25 24q52 0 157 -4t156 -4q67 0 183.5 4t168.5 4q38 0 45.5 -2t7.5 -14q0 -4 -5.5 -25.5t-17 -68.5t-20.5 -84q-25 -106 -36 -130t-31 -24q-14 0 -18.5 8t-4.5 33q0 14 1 62t1 88q0 61 -31 80.5t-126 19.5q-109 0 -121 -6
q-6 -3 -35 -99l-131 -423h88q56 0 90.5 4.5t56 19t29.5 24.5t22 36q5 8 7 12q8 13 17 32.5t14 29.5t13.5 18t18.5 8q23 0 23 -25q0 -3 -3 -11.5t-9.5 -27.5t-12.5 -37q-58 -179 -94 -329q-5 -20 -12.5 -27.5t-24.5 -7.5q-13 0 -17.5 8.5t-4.5 28.5q0 13 5 52.5t5 55.5
q0 17 -3.5 28.5t-15.5 24t-40 19t-72 6.5h-96l-117 -397q-27 -94 -27 -135q0 -34 24.5 -50t102.5 -16q175 0 250 66q72 64 111 180q19 55 47 55q22 0 22 -26q0 -11 -10 -56q-24 -108 -59 -233q-9 -31 -14.5 -37t-22.5 -6q-54 0 -183 4t-192 4q-60 0 -181.5 -4t-181.5 -4
q-34 0 -34 20q0 25 37 29q42 4 67.5 11.5t40.5 24t21.5 32t15.5 47.5zM455 705h258l139 440q10 34 10 41q0 10 -8 10q-11 0 -37 -33q-165 -207 -362 -458z" />
    <glyph glyph-name="Ccedilla" unicode="&#xc7;" horiz-adv-x="909" 
d="M362 -33l-45 -76q24 7 48 7q60 0 105.5 -36.5t45.5 -103.5q0 -87 -70 -137.5t-147 -50.5q-56 0 -116 30.5t-60 80.5q0 16 10 27t27 11q19 0 33.5 -16.5t24 -35.5t31.5 -35.5t54 -16.5q48 0 83.5 38t35.5 93q0 47 -29.5 66.5t-68.5 19.5q-14 0 -39.5 -4t-32.5 -4
q-14 0 -14 12q0 16 18 43l55 94q-109 20 -178 111q-84 116 -84 317q0 194 78 364t211 296q125 120 276.5 187t292.5 67q62 0 79.5 -9t17.5 -30q0 -22 -15 -80q-26 -106 -59 -213q-2 -6 -5 -17.5t-4.5 -15t-4.5 -10t-6 -8.5t-7.5 -4t-11.5 -2q-27 0 -27 22q0 10 14.5 134.5
t14.5 144.5q0 39 -37 39q-91 -3 -205 -67t-211 -175q-111 -125 -177 -292.5t-66 -371.5q0 -165 50.5 -254.5t143.5 -89.5q84 0 154 56t112 153q17 39 40 95q34 80 45 89q7 5 16 5q20 0 20 -25q0 -24 -26 -115q-31 -119 -64 -227q-5 -17 -117.5 -48.5t-189.5 -31.5h-19z" />
    <glyph glyph-name="Egrave" unicode="&#xc8;" horiz-adv-x="909" 
d="M338 647l-113 -397q-24 -98 -24 -127q0 -27 9 -41t47.5 -23.5t115.5 -9.5q175 0 250 66q13 12 25.5 28t20.5 26.5t19.5 34.5t14.5 31t16 37.5t14 32.5q12 29 21.5 41t25.5 12q23 0 23 -26q0 -11 -10 -56q-2 -10 -60 -241q-8 -31 -12.5 -37t-24.5 -6q-52 0 -186 4t-209 4
q-86 0 -205.5 -4t-156.5 -4q-23 0 -30 4.5t-7 19.5q0 13 6 18.5t24 6.5q53 4 75 13t33 28.5t26 73.5q222 785 258 919q22 86 22 107q0 56 -53 59q-45 3 -53 12q-4 5 -4 13q0 24 28 24q18 0 90 -4t138 -4q57 0 214.5 4t211.5 4q38 0 45.5 -2t7.5 -14q0 -4 -5.5 -25.5
t-17 -68.5t-20.5 -84q-18 -74 -28.5 -106t-18 -40t-21.5 -8q-13 0 -17.5 8t-4.5 33q0 14 1 62t1 88q0 62 -38.5 81t-168.5 19q-109 0 -121 -6q-9 -5 -35 -99l-121 -423h105q67 0 109 5t65.5 18.5t33.5 25t23 36.5l1.5 3t1.5 2.5t1.5 3t1.5 2.5q7 13 16.5 33t15 29.5t14 17.5
t18.5 8q22 0 22 -25q0 -3 -2.5 -11.5t-9 -27.5t-12.5 -37q-40 -124 -86 -329q-5 -20 -12.5 -27.5t-24.5 -7.5t-22 10t-5 37q0 16 4 47.5t4 44.5q0 40 -31.5 62t-131.5 22h-117zM426 1659v2q0 23 13.5 36t35.5 13q28 0 49 -16.5t51 -55.5l160 -198q43 -53 43 -64
q0 -16 -16 -16q-17 0 -60 37l-213 178q-21 18 -30 26.5t-20.5 25.5t-12.5 32z" />
    <glyph glyph-name="Eacute" unicode="&#xc9;" horiz-adv-x="909" 
d="M338 647l-113 -397q-24 -98 -24 -127q0 -27 9 -41t47.5 -23.5t115.5 -9.5q175 0 250 66q13 12 25.5 28t20.5 26.5t19.5 34.5t14.5 31t16 37.5t14 32.5q12 29 21.5 41t25.5 12q23 0 23 -26q0 -11 -10 -56q-2 -10 -60 -241q-8 -31 -12.5 -37t-24.5 -6q-52 0 -186 4t-209 4
q-86 0 -205.5 -4t-156.5 -4q-23 0 -30 4.5t-7 19.5q0 13 6 18.5t24 6.5q53 4 75 13t33 28.5t26 73.5q222 785 258 919q22 86 22 107q0 56 -53 59q-45 3 -53 12q-4 5 -4 13q0 24 28 24q18 0 90 -4t138 -4q57 0 214.5 4t211.5 4q38 0 45.5 -2t7.5 -14q0 -4 -5.5 -25.5
t-17 -68.5t-20.5 -84q-18 -74 -28.5 -106t-18 -40t-21.5 -8q-13 0 -17.5 8t-4.5 33q0 14 1 62t1 88q0 62 -38.5 81t-168.5 19q-109 0 -121 -6q-9 -5 -35 -99l-121 -423h105q67 0 109 5t65.5 18.5t33.5 25t23 36.5l1.5 3t1.5 2.5t1.5 3t1.5 2.5q7 13 16.5 33t15 29.5t14 17.5
t18.5 8q22 0 22 -25q0 -3 -2.5 -11.5t-9 -27.5t-12.5 -37q-40 -124 -86 -329q-5 -20 -12.5 -27.5t-24.5 -7.5t-22 10t-5 37q0 16 4 47.5t4 44.5q0 40 -31.5 62t-131.5 22h-117zM551 1360h-2q-14 0 -14 16q0 12 12 25.5t41 38.5l217 196q24 21 34.5 29.5t32.5 20.5t39 12
q22 0 37 -13t15 -36q0 -17 -12 -32.5t-24.5 -24.5t-32.5 -21q-5 -3 -7 -4l-273 -176q-48 -31 -63 -31z" />
    <glyph glyph-name="Ecircumflex" unicode="&#xca;" horiz-adv-x="909" 
d="M338 647l-113 -397q-24 -98 -24 -127q0 -27 9 -41t47.5 -23.5t115.5 -9.5q175 0 250 66q13 12 25.5 28t20.5 26.5t19.5 34.5t14.5 31t16 37.5t14 32.5q12 29 21.5 41t25.5 12q23 0 23 -26q0 -11 -10 -56q-2 -10 -60 -241q-8 -31 -12.5 -37t-24.5 -6q-52 0 -186 4t-209 4
q-86 0 -205.5 -4t-156.5 -4q-23 0 -30 4.5t-7 19.5q0 13 6 18.5t24 6.5q53 4 75 13t33 28.5t26 73.5q222 785 258 919q22 86 22 107q0 56 -53 59q-45 3 -53 12q-4 5 -4 13q0 24 28 24q18 0 90 -4t138 -4q57 0 214.5 4t211.5 4q38 0 45.5 -2t7.5 -14q0 -4 -5.5 -25.5
t-17 -68.5t-20.5 -84q-18 -74 -28.5 -106t-18 -40t-21.5 -8q-13 0 -17.5 8t-4.5 33q0 14 1 62t1 88q0 62 -38.5 81t-168.5 19q-109 0 -121 -6q-9 -5 -35 -99l-121 -423h105q67 0 109 5t65.5 18.5t33.5 25t23 36.5l1.5 3t1.5 2.5t1.5 3t1.5 2.5q7 13 16.5 33t15 29.5t14 17.5
t18.5 8q22 0 22 -25q0 -3 -2.5 -11.5t-9 -27.5t-12.5 -37q-40 -124 -86 -329q-5 -20 -12.5 -27.5t-24.5 -7.5t-22 10t-5 37q0 16 4 47.5t4 44.5q0 40 -31.5 62t-131.5 22h-117zM717 1602l-260 -211q-39 -31 -56 -31q-16 0 -16 16q0 17 49 66l187 194q42 43 56 54.5t30 11.5
h41q17 0 23.5 -7.5t25.5 -49.5l96 -211q20 -40 20 -56q0 -18 -16 -18q-14 0 -43 45z" />
    <glyph glyph-name="Edieresis" unicode="&#xcb;" horiz-adv-x="909" 
d="M338 647l-113 -397q-24 -98 -24 -127q0 -27 9 -41t47.5 -23.5t115.5 -9.5q175 0 250 66q13 12 25.5 28t20.5 26.5t19.5 34.5t14.5 31t16 37.5t14 32.5q12 29 21.5 41t25.5 12q23 0 23 -26q0 -11 -10 -56q-2 -10 -60 -241q-8 -31 -12.5 -37t-24.5 -6q-52 0 -186 4t-209 4
q-86 0 -205.5 -4t-156.5 -4q-23 0 -30 4.5t-7 19.5q0 13 6 18.5t24 6.5q53 4 75 13t33 28.5t26 73.5q222 785 258 919q22 86 22 107q0 56 -53 59q-45 3 -53 12q-4 5 -4 13q0 24 28 24q18 0 90 -4t138 -4q57 0 214.5 4t211.5 4q38 0 45.5 -2t7.5 -14q0 -4 -5.5 -25.5
t-17 -68.5t-20.5 -84q-18 -74 -28.5 -106t-18 -40t-21.5 -8q-13 0 -17.5 8t-4.5 33q0 14 1 62t1 88q0 62 -38.5 81t-168.5 19q-109 0 -121 -6q-9 -5 -35 -99l-121 -423h105q67 0 109 5t65.5 18.5t33.5 25t23 36.5l1.5 3t1.5 2.5t1.5 3t1.5 2.5q7 13 16.5 33t15 29.5t14 17.5
t18.5 8q22 0 22 -25q0 -3 -2.5 -11.5t-9 -27.5t-12.5 -37q-40 -124 -86 -329q-5 -20 -12.5 -27.5t-24.5 -7.5t-22 10t-5 37q0 16 4 47.5t4 44.5q0 40 -31.5 62t-131.5 22h-117zM508 1430h-2q-28 0 -42.5 21.5t-14.5 53.5q0 42 30.5 84.5t71.5 42.5q30 0 46.5 -20t16.5 -49
q0 -47 -31 -90t-75 -43zM809 1430h-2q-28 0 -42.5 21.5t-14.5 53.5q0 42 30.5 84.5t71.5 42.5q30 0 46.5 -20t16.5 -49q0 -47 -31 -90t-75 -43z" />
    <glyph glyph-name="Igrave" unicode="&#xcc;" 
d="M162 80v-2q0 -14 12 -25t35 -12q39 -3 50 -9t11 -20q0 -20 -30 -20q-3 0 -47.5 4t-112.5 4q-57 0 -93 -2t-51.5 -4t-23.5 -2q-27 0 -27 20q0 26 35 29q63 5 82.5 16.5t32.5 59.5l268 977q23 85 23 98q0 21 -10 31.5t-40 17.5q-37 9 -42 15q-3 4 -3 12q0 22 27 22
q6 0 52 -4t102 -4t102 4t47 4q29 0 29 -20q0 -11 -6.5 -17t-28.5 -12q-50 -12 -72.5 -29.5t-31.5 -50.5l-248 -897q-41 -145 -41 -184zM199 1659v2q0 23 13.5 36t35.5 13q28 0 49 -16.5t51 -55.5l160 -198q43 -53 43 -64q0 -16 -16 -16q-17 0 -60 37l-213 178
q-21 18 -30 26.5t-20.5 25.5t-12.5 32z" />
    <glyph glyph-name="Iacute" unicode="&#xcd;" 
d="M162 80v-2q0 -14 12 -25t35 -12q39 -3 50 -9t11 -20q0 -20 -30 -20q-3 0 -47.5 4t-112.5 4q-57 0 -93 -2t-51.5 -4t-23.5 -2q-27 0 -27 20q0 26 35 29q63 5 82.5 16.5t32.5 59.5l268 977q23 85 23 98q0 21 -10 31.5t-40 17.5q-37 9 -42 15q-3 4 -3 12q0 22 27 22
q6 0 52 -4t102 -4t102 4t47 4q29 0 29 -20q0 -11 -6.5 -17t-28.5 -12q-50 -12 -72.5 -29.5t-31.5 -50.5l-248 -897q-41 -145 -41 -184zM324 1360h-2q-15 0 -15 16q0 12 12 25.5t41 38.5l218 196q24 21 34.5 29.5t32.5 20.5t39 12q22 0 36.5 -12.5t14.5 -36.5
q0 -17 -12 -32.5t-24.5 -24.5t-32.5 -21q-5 -3 -7 -4l-272 -176q-48 -31 -63 -31z" />
    <glyph glyph-name="Icircumflex" unicode="&#xce;" 
d="M162 80v-2q0 -14 12 -25t35 -12q39 -3 50 -9t11 -20q0 -20 -30 -20q-3 0 -47.5 4t-112.5 4q-57 0 -93 -2t-51.5 -4t-23.5 -2q-27 0 -27 20q0 26 35 29q63 5 82.5 16.5t32.5 59.5l268 977q23 85 23 98q0 21 -10 31.5t-40 17.5q-37 9 -42 15q-3 4 -3 12q0 22 27 22
q6 0 52 -4t102 -4t102 4t47 4q29 0 29 -20q0 -11 -6.5 -17t-28.5 -12q-50 -12 -72.5 -29.5t-31.5 -50.5l-248 -897q-41 -145 -41 -184zM489 1602l-260 -211q-39 -31 -55 -31t-16 16q0 17 49 66l186 194q42 43 56 54.5t30 11.5h41q17 0 23.5 -7.5t25.5 -49.5l97 -211
q20 -40 20 -56q0 -18 -16 -18q-14 0 -43 45z" />
    <glyph glyph-name="Idieresis" unicode="&#xcf;" 
d="M162 80v-2q0 -14 12 -25t35 -12q39 -3 50 -9t11 -20q0 -20 -30 -20q-3 0 -47.5 4t-112.5 4q-57 0 -93 -2t-51.5 -4t-23.5 -2q-27 0 -27 20q0 26 35 29q63 5 82.5 16.5t32.5 59.5l268 977q23 85 23 98q0 21 -10 31.5t-40 17.5q-37 9 -42 15q-3 4 -3 12q0 22 27 22
q6 0 52 -4t102 -4t102 4t47 4q29 0 29 -20q0 -11 -6.5 -17t-28.5 -12q-50 -12 -72.5 -29.5t-31.5 -50.5l-248 -897q-41 -145 -41 -184zM281 1430h-2q-28 0 -43 22t-15 53q0 42 31 84.5t72 42.5q30 0 46.5 -20t16.5 -49q0 -47 -31 -90t-75 -43zM582 1430h-2q-28 0 -43 22
t-15 53q0 42 31 84.5t72 42.5q30 0 46.5 -20t16.5 -49q0 -47 -31 -90t-75 -43z" />
    <glyph glyph-name="Eth" unicode="&#xd0;" horiz-adv-x="1138" 
d="M233 705l86 301q37 127 37 170q0 35 -16 47t-64 18q-22 3 -28 7.5t-6 17.5q0 24 32 24q24 0 82.5 -4t98.5 -4q52 0 156.5 4t156.5 4q158 0 258 -112q84 -94 84 -279q0 -158 -46 -323.5t-138 -307.5q-86 -133 -219 -204.5t-291 -71.5q-50 0 -153 4t-140 4q-53 0 -112.5 -4
t-65.5 -4q-31 0 -31 22q0 9 9 17t20 10q67 8 92 27.5t43 85.5l139 493h-143q-21 0 -21 10q0 3 1.5 8.5t3.5 12.5t3 10q3 10 8 13.5t19 3.5h145zM350 647l-106 -381q-27 -97 -27 -145q0 -43 25 -61.5t92 -18.5q162 0 264.5 43.5t185.5 169.5q85 130 140 327.5t55 354.5
q0 151 -60.5 228t-207.5 77q-166 0 -187 -18q-15 -13 -47 -123l-110 -395h297q20 0 20 -11q0 -3 -1.5 -8.5t-3.5 -12t-3 -9.5q-3 -10 -8 -13.5t-19 -3.5h-299z" />
    <glyph glyph-name="Ntilde" unicode="&#xd1;" horiz-adv-x="1138" 
d="M803 272h4q166 541 233 787q29 106 29 115q0 32 -15 46.5t-59 20.5q-28 3 -38.5 8.5t-10.5 18.5q0 22 31 22q24 0 78.5 -4t81.5 -4q29 0 69 4t56 4q22 0 22 -22q0 -6 -2.5 -10t-8 -6t-10.5 -3.5t-14.5 -3.5t-15.5 -4q-41 -12 -65 -37.5t-46 -91.5q-151 -464 -305 -985
q-27 -93 -37 -118t-22 -25q-6 0 -12 7.5t-12 24.5t-10 30.5t-11 39.5l-287 1044h-4q-187 -567 -256 -792q-60 -196 -60 -225q0 -23 11 -37.5t24.5 -19.5t34.5 -9q55 -9 65 -20q5 -5 5 -13q0 -22 -29 -22q-17 0 -72.5 4t-101.5 4q-42 0 -92 -4t-70 -4q-24 0 -24 24
q0 22 26 25q50 5 76 13t43 26q11 12 21.5 34.5t16.5 40t23 68.5q60 184 126 382.5t105 316t56 176.5q23 80 23 94q0 24 -11.5 33t-54.5 16q-35 6 -35 25q0 24 25 24q17 0 55.5 -2t59.5 -2q20 0 54 2t44 2q13 0 20 -15.5t19 -70.5q25 -110 60.5 -243.5t58 -214.5t71.5 -252
t64 -222zM944 1417h-2q-36 0 -75 21.5t-67.5 47t-63 47t-60.5 21.5q-39 0 -73.5 -30t-55.5 -60t-27 -30q-8 0 -8 10q0 51 68 115.5t149 64.5q36 0 76 -21.5t70 -47t64 -47t58 -21.5q39 0 73.5 30.5t55.5 60.5t27 30q8 0 8 -11q0 -51 -68 -115.5t-149 -64.5z" />
    <glyph glyph-name="Ograve" unicode="&#xd2;" horiz-adv-x="1024" 
d="M995 791v-3q0 -105 -26 -218t-78.5 -220.5t-122.5 -193t-166 -137.5t-201 -52q-194 0 -282 178q-70 137 -70 347q0 105 26 219t78.5 221.5t122.5 193t166 137.5t201 52q117 0 198 -69.5t117.5 -185t36.5 -269.5zM643 1266h-2q-103 0 -195.5 -107.5t-158.5 -279.5
q-50 -128 -78.5 -269.5t-28.5 -261.5q0 -147 57.5 -239.5t163.5 -92.5q105 0 198 107.5t159 279.5q50 127 78 269t28 262q0 147 -57.5 239.5t-163.5 92.5zM432 1659v2q0 23 13.5 36t35.5 13q28 0 49.5 -17t51.5 -55l159 -198q43 -53 43 -64q0 -16 -16 -16t-59 37l-213 178
q-46 40 -57 59q-6 13 -7 25z" />
    <glyph glyph-name="Oacute" unicode="&#xd3;" horiz-adv-x="1024" 
d="M995 791v-3q0 -105 -26 -218t-78.5 -220.5t-122.5 -193t-166 -137.5t-201 -52q-194 0 -282 178q-70 137 -70 347q0 105 26 219t78.5 221.5t122.5 193t166 137.5t201 52q117 0 198 -69.5t117.5 -185t36.5 -269.5zM643 1266h-2q-103 0 -195.5 -107.5t-158.5 -279.5
q-50 -128 -78.5 -269.5t-28.5 -261.5q0 -147 57.5 -239.5t163.5 -92.5q105 0 198 107.5t159 279.5q50 127 78 269t28 262q0 147 -57.5 239.5t-163.5 92.5zM557 1360h-2q-14 0 -14 16q0 12 12 25.5t41 38.5l217 196q71 62 107 62q22 0 36.5 -12.5t14.5 -36.5q0 -17 -12 -32.5
t-24.5 -24.5t-32.5 -21q-5 -3 -7 -4l-272 -176q-48 -31 -64 -31z" />
    <glyph glyph-name="Ocircumflex" unicode="&#xd4;" horiz-adv-x="1024" 
d="M995 791v-3q0 -105 -26 -218t-78.5 -220.5t-122.5 -193t-166 -137.5t-201 -52q-194 0 -282 178q-70 137 -70 347q0 105 26 219t78.5 221.5t122.5 193t166 137.5t201 52q117 0 198 -69.5t117.5 -185t36.5 -269.5zM643 1266h-2q-103 0 -195.5 -107.5t-158.5 -279.5
q-50 -128 -78.5 -269.5t-28.5 -261.5q0 -147 57.5 -239.5t163.5 -92.5q105 0 198 107.5t159 279.5q50 127 78 269t28 262q0 147 -57.5 239.5t-163.5 92.5zM723 1602l-260 -211q-39 -31 -55 -31q-17 0 -17 16q0 17 49 66l187 194q42 43 56 54.5t30 11.5h41q17 0 23.5 -7.5
t25.5 -49.5l96 -211q21 -42 21 -56q0 -18 -17 -18q-14 0 -43 45z" />
    <glyph glyph-name="Otilde" unicode="&#xd5;" horiz-adv-x="1024" 
d="M995 791v-3q0 -105 -26 -218t-78.5 -220.5t-122.5 -193t-166 -137.5t-201 -52q-194 0 -282 178q-70 137 -70 347q0 105 26 219t78.5 221.5t122.5 193t166 137.5t201 52q117 0 198 -69.5t117.5 -185t36.5 -269.5zM643 1266h-2q-103 0 -195.5 -107.5t-158.5 -279.5
q-50 -128 -78.5 -269.5t-28.5 -261.5q0 -147 57.5 -239.5t163.5 -92.5q105 0 198 107.5t159 279.5q50 127 78 269t28 262q0 147 -57.5 239.5t-163.5 92.5zM799 1417h-2q-36 0 -75.5 21.5t-68 47t-63 47t-60.5 21.5q-30 0 -58.5 -19t-45.5 -41t-31.5 -41t-19.5 -19
q-8 0 -8 10q0 51 68 115.5t149 64.5q36 0 76 -21.5t70 -47t64 -47t58 -21.5q39 0 73.5 30.5t55.5 60.5t27 30q8 0 8 -11q0 -51 -68 -115.5t-149 -64.5z" />
    <glyph glyph-name="Odieresis" unicode="&#xd6;" horiz-adv-x="1024" 
d="M995 791v-3q0 -105 -26 -218t-78.5 -220.5t-122.5 -193t-166 -137.5t-201 -52q-194 0 -282 178q-70 137 -70 347q0 105 26 219t78.5 221.5t122.5 193t166 137.5t201 52q117 0 198 -69.5t117.5 -185t36.5 -269.5zM643 1266h-2q-103 0 -195.5 -107.5t-158.5 -279.5
q-50 -128 -78.5 -269.5t-28.5 -261.5q0 -147 57.5 -239.5t163.5 -92.5q105 0 198 107.5t159 279.5q50 127 78 269t28 262q0 147 -57.5 239.5t-163.5 92.5zM514 1430h-2q-28 0 -42.5 21.5t-14.5 53.5q0 42 30.5 84.5t71.5 42.5q30 0 47 -20t17 -49q0 -47 -31 -90t-76 -43z
M815 1430h-2q-28 0 -42.5 21.5t-14.5 53.5q0 42 30.5 84.5t71.5 42.5q30 0 47 -20t17 -49q0 -47 -31 -90t-76 -43z" />
    <glyph glyph-name="multiply" unicode="&#xd7;" horiz-adv-x="1228" 
d="M541 518l-400 400l74 73l397 -401l402 401l73 -73l-401 -400l401 -399l-73 -74l-402 401l-397 -401l-74 74z" />
    <glyph glyph-name="Oslash" unicode="&#xd8;" horiz-adv-x="1024" 
d="M0 -193h-25q-18 0 -18 7q0 8 29 51l151 246q-88 139 -88 381q0 105 26 219t78.5 221.5t122.5 193t166 137.5t201 52q137 0 223 -92l135 219q13 22 20.5 27.5t22.5 5.5h25q18 0 18 -7q0 -9 -28 -51l-152 -246q88 -134 88 -380q0 -105 -26 -219t-78.5 -221.5t-122.5 -193.5
t-166 -138t-201 -52q-137 0 -223 92l-135 -219q-13 -22 -20.5 -27.5t-22.5 -5.5zM205 170l600 1006q-23 43 -66 66.5t-96 23.5q-76 0 -144 -52.5t-117 -137t-89 -186.5t-64 -206t-36.5 -190.5t-12.5 -143.5q0 -85 25 -180zM840 1112l-600 -1006q23 -43 65.5 -66.5
t95.5 -23.5q76 0 144 52.5t117 137t89 186.5t64 206t36.5 190.5t12.5 143.5q0 88 -24 180z" />
    <glyph glyph-name="Ugrave" unicode="&#xd9;" horiz-adv-x="1138" 
d="M119 229v2q0 63 61 295q27 101 83.5 297t72.5 256q20 82 20 99q0 31 -10.5 44t-40.5 19q-6 1 -14.5 3t-13 2.5t-10 2t-8.5 3t-6 4t-4 5.5t-1 7q0 22 26 22q11 0 74 -4t105 -4q39 0 102.5 4t91.5 4q15 0 22.5 -3t9 -6.5t1.5 -10.5t-4.5 -11.5t-16.5 -7t-20.5 -4
t-27.5 -3.5t-27 -3q-37 -5 -62.5 -36.5t-52.5 -127.5q-158 -559 -195 -706q-24 -98 -24 -154q0 -92 67 -146.5t162 -54.5q87 0 153.5 26.5t112.5 80t77 121.5t55 162q35 138 95.5 363t74.5 282q26 110 26 125q0 38 -19.5 52.5t-76.5 14.5q-25 0 -33.5 1t-13 5.5t-4.5 16.5
q0 24 30 24q15 0 65.5 -4t88.5 -4q37 0 89.5 4t66.5 4q30 0 30 -16q0 -5 -2 -9t-6 -7t-8.5 -5t-12.5 -3.5t-14 -2.5t-16.5 -3t-17.5 -3q-49 -9 -66 -34t-36 -97l-3 -12q-31 -122 -95 -365.5t-95 -365.5q-45 -174 -129 -267q-119 -133 -336 -133q-156 0 -248 65t-92 197z
M561 1659v2q0 23 13.5 36t35.5 13q28 0 49.5 -17t51.5 -55l159 -198q43 -53 43 -64q0 -16 -16 -16t-59 37l-213 178q-46 40 -57 59q-6 13 -7 25z" />
    <glyph glyph-name="Uacute" unicode="&#xda;" horiz-adv-x="1138" 
d="M119 229v2q0 63 61 295q27 101 83.5 297t72.5 256q20 82 20 99q0 31 -10.5 44t-40.5 19q-6 1 -14.5 3t-13 2.5t-10 2t-8.5 3t-6 4t-4 5.5t-1 7q0 22 26 22q11 0 74 -4t105 -4q39 0 102.5 4t91.5 4q15 0 22.5 -3t9 -6.5t1.5 -10.5t-4.5 -11.5t-16.5 -7t-20.5 -4
t-27.5 -3.5t-27 -3q-37 -5 -62.5 -36.5t-52.5 -127.5q-158 -559 -195 -706q-24 -98 -24 -154q0 -92 67 -146.5t162 -54.5q87 0 153.5 26.5t112.5 80t77 121.5t55 162q35 138 95.5 363t74.5 282q26 110 26 125q0 38 -19.5 52.5t-76.5 14.5q-25 0 -33.5 1t-13 5.5t-4.5 16.5
q0 24 30 24q15 0 65.5 -4t88.5 -4q37 0 89.5 4t66.5 4q30 0 30 -16q0 -5 -2 -9t-6 -7t-8.5 -5t-12.5 -3.5t-14 -2.5t-16.5 -3t-17.5 -3q-49 -9 -66 -34t-36 -97l-3 -12q-31 -122 -95 -365.5t-95 -365.5q-45 -174 -129 -267q-119 -133 -336 -133q-156 0 -248 65t-92 197z
M707 1360h-2q-15 0 -15 16q0 12 12 25.5t41 38.5l218 196q24 21 34.5 29.5t32.5 20.5t39 12q22 0 36.5 -12.5t14.5 -36.5q0 -35 -56 -70q-4 -2 -13 -8l-7 -4l-272 -176q-48 -31 -63 -31z" />
    <glyph glyph-name="Ucircumflex" unicode="&#xdb;" horiz-adv-x="1138" 
d="M119 229v2q0 63 61 295q27 101 83.5 297t72.5 256q20 82 20 99q0 31 -10.5 44t-40.5 19q-6 1 -14.5 3t-13 2.5t-10 2t-8.5 3t-6 4t-4 5.5t-1 7q0 22 26 22q11 0 74 -4t105 -4q39 0 102.5 4t91.5 4q15 0 22.5 -3t9 -6.5t1.5 -10.5t-4.5 -11.5t-16.5 -7t-20.5 -4
t-27.5 -3.5t-27 -3q-37 -5 -62.5 -36.5t-52.5 -127.5q-158 -559 -195 -706q-24 -98 -24 -154q0 -92 67 -146.5t162 -54.5q87 0 153.5 26.5t112.5 80t77 121.5t55 162q35 138 95.5 363t74.5 282q26 110 26 125q0 38 -19.5 52.5t-76.5 14.5q-25 0 -33.5 1t-13 5.5t-4.5 16.5
q0 24 30 24q15 0 65.5 -4t88.5 -4q37 0 89.5 4t66.5 4q30 0 30 -16q0 -5 -2 -9t-6 -7t-8.5 -5t-12.5 -3.5t-14 -2.5t-16.5 -3t-17.5 -3q-49 -9 -66 -34t-36 -97l-3 -12q-31 -122 -95 -365.5t-95 -365.5q-45 -174 -129 -267q-119 -133 -336 -133q-156 0 -248 65t-92 197z
M872 1602l-260 -211q-39 -31 -55 -31t-16 16q0 17 49 66l186 194q42 43 56 54.5t30 11.5h41q17 0 23.5 -7.5t25.5 -49.5l97 -211q20 -40 20 -56q0 -18 -16 -18q-14 0 -43 45z" />
    <glyph glyph-name="Udieresis" unicode="&#xdc;" horiz-adv-x="1138" 
d="M119 229v2q0 63 61 295q27 101 83.5 297t72.5 256q20 82 20 99q0 31 -10.5 44t-40.5 19q-6 1 -14.5 3t-13 2.5t-10 2t-8.5 3t-6 4t-4 5.5t-1 7q0 22 26 22q11 0 74 -4t105 -4q39 0 102.5 4t91.5 4q15 0 22.5 -3t9 -6.5t1.5 -10.5t-4.5 -11.5t-16.5 -7t-20.5 -4
t-27.5 -3.5t-27 -3q-37 -5 -62.5 -36.5t-52.5 -127.5q-158 -559 -195 -706q-24 -98 -24 -154q0 -92 67 -146.5t162 -54.5q87 0 153.5 26.5t112.5 80t77 121.5t55 162q35 138 95.5 363t74.5 282q26 110 26 125q0 38 -19.5 52.5t-76.5 14.5q-25 0 -33.5 1t-13 5.5t-4.5 16.5
q0 24 30 24q15 0 65.5 -4t88.5 -4q37 0 89.5 4t66.5 4q30 0 30 -16q0 -5 -2 -9t-6 -7t-8.5 -5t-12.5 -3.5t-14 -2.5t-16.5 -3t-17.5 -3q-49 -9 -66 -34t-36 -97l-3 -12q-31 -122 -95 -365.5t-95 -365.5q-45 -174 -129 -267q-119 -133 -336 -133q-156 0 -248 65t-92 197z
M643 1430h-2q-28 0 -42.5 21.5t-14.5 53.5q0 42 30.5 84.5t71.5 42.5q30 0 47 -20t17 -49q0 -47 -31 -90t-76 -43zM944 1430h-2q-28 0 -42.5 21.5t-14.5 53.5q0 42 30.5 84.5t71.5 42.5q30 0 47 -20t17 -49q0 -47 -31 -90t-76 -43z" />
    <glyph glyph-name="Yacute" unicode="&#xdd;" horiz-adv-x="796" 
d="M356 1178v-2q0 -13 17 -125q6 -43 17.5 -105t30 -158t30.5 -161q239 320 307 424q78 121 78 141q0 18 -15.5 31t-40.5 18q-58 11 -64 17q-3 3 -3 10q0 22 20 22l49 -4q50 -4 131 -4q31 0 68 4t45 4q27 0 27 -18q0 -27 -35 -31q-28 -6 -45.5 -15t-48.5 -40.5t-74 -91.5
q-310 -427 -395 -541q-62 -210 -105 -346q-22 -81 -22 -111q0 -26 13.5 -37t45.5 -18q7 -1 17 -2.5t15.5 -2.5t12 -2.5t10.5 -3t7 -4t4.5 -5.5t1.5 -7q0 -12 -7 -17t-30 -5q-13 0 -76 4t-104 4q-50 0 -120 -4t-77 -4q-27 0 -27 18q0 12 10.5 17t39.5 8t42 6q37 8 56 30.5
t39 84.5q43 139 125 417q-63 355 -82 453q-27 146 -40 173q-12 27 -45 39q-4 1 -9 3q-11 4 -30.5 8t-25.5 8t-6 13q0 20 25 20q1 0 41.5 -4t111.5 -4t118 2t68.5 4t30.5 2q23 0 23 -20q0 -6 -3 -9.5t-11 -6.5t-15 -4.5t-23.5 -4t-27.5 -4.5q-42 -9 -56 -22t-14 -41z
M506 1360h-2q-15 0 -15 16q0 6 3 12.5t13 17t15.5 15t22.5 19.5l217 196q24 21 34.5 29.5t32.5 20.5t39 12q22 0 37 -13t15 -36q0 -17 -12 -32.5t-24.5 -24.5t-32.5 -21q-5 -3 -7 -4l-273 -176q-48 -31 -63 -31z" />
    <glyph glyph-name="Thorn" unicode="&#xde;" horiz-adv-x="909" 
d="M891 788v-2q0 -36 -8 -77t-26.5 -92t-57 -102.5t-92.5 -92.5q-137 -103 -381 -103h-93q-53 -173 -53 -221q0 -31 16.5 -42.5t55.5 -14.5q42 -3 56 -8t14 -19q0 -22 -33 -22q-5 0 -25 2t-63.5 4t-106.5 2q-60 0 -101.5 -2t-60 -4t-22.5 -2q-25 0 -25 20q0 13 15 18.5
t57 10.5q45 5 63 23.5t33 76.5q132 501 264 959q23 80 23 92q0 28 -14 36t-60 13q-30 3 -30 27q0 22 34 22q14 0 67.5 -4t88.5 -4q38 0 93 4t67 4q18 0 18 -20q0 -12 -6.5 -18.5t-28.5 -10.5q-29 -6 -44 -12.5t-29 -16.5t-23.5 -34.5t-18.5 -54.5t-22 -87q148 8 178 8
q150 0 213 -55q68 -59 68 -201zM403 942l-135 -504q-12 -48 -12 -57q0 -12 31 -12q123 0 193.5 21.5t133.5 86.5q62 63 95.5 162.5t33.5 185.5q0 90 -47 130t-174 40q-75 0 -92 -7t-27 -46z" />
    <glyph glyph-name="germandbls" unicode="&#xdf;" horiz-adv-x="909" 
d="M209 877h-131q-11 0 -8 16q2 8 6 20q3 9 6 11t14 2h125q24 102 68.5 193.5t107 167t149 119.5t183.5 44q111 0 179.5 -62.5t68.5 -164.5q0 -68 -23 -119.5t-60 -82t-82 -52.5t-90 -37.5t-82 -30.5t-60 -37.5t-23 -52.5q0 -36 25.5 -80.5t61.5 -90.5t72 -95.5t61.5 -111.5
t25.5 -124q0 -83 -31.5 -155t-95.5 -119t-148 -47q-55 0 -111 20.5t-89 46t-33 43.5q0 77 16 199q7 59 14 78.5t19 19.5q6 0 9.5 -0.5l7 -1t5.5 -3t4 -4.5t3.5 -7.5t2.5 -10t2.5 -13t3 -16.5t3.5 -21t4 -25q24 -139 54.5 -197.5t97.5 -58.5q71 0 119.5 60.5t48.5 152.5
q0 44 -27 95.5t-65.5 100.5t-77.5 99.5t-66 109.5t-27 113q0 43 22.5 74t58.5 50.5t79.5 36.5t87 38.5t79.5 50t58.5 77t22.5 113.5q0 193 -156 193q-133 0 -219 -133t-149 -391q-19 -79 -115 -469q-60 -245 -101.5 -385.5t-90.5 -239.5q-54 -111 -122 -166t-161 -55
q-54 0 -91.5 30t-37.5 89q0 39 18 58t45 19q45 0 56 -45q3 -11 4 -36.5t4 -34.5q9 -31 45 -31q39 0 64.5 25t52.5 94q29 73 67 210t119 455q41 162 123 482z" />
    <glyph glyph-name="agrave" unicode="&#xe0;" horiz-adv-x="909" 
d="M-45 158v2q0 128 60 265.5t157 256.5q96 116 203.5 186t197.5 70q26 0 48.5 -5t37.5 -12t25.5 -14.5t16 -12.5t6.5 -5q4 0 22 49q5 12 11 16t24 4h59q21 0 21 -14q0 -11 -8 -31q-165 -497 -199 -598q-43 -131 -43 -172q0 -28 22 -28q31 0 127 145q14 21 24.5 40t14.5 29
t8 18t7.5 10.5t9.5 2.5q14 0 14 -16q0 -23 -32 -83.5t-78 -121.5q-51 -71 -106 -117.5t-103 -46.5q-32 0 -44 19.5t-12 54.5q0 42 25 125q9 33 96 291l-4 4q-30 -45 -42.5 -64.5t-55.5 -81t-72 -98t-76 -90t-83 -84t-77.5 -53.5t-74.5 -23q-127 0 -127 183zM672 805v2
q0 45 -25.5 69.5t-68.5 24.5q-73 0 -159 -78t-165 -202q-74 -118 -121 -241.5t-47 -203.5q0 -90 64 -90q54 0 140 87t177 220q86 124 145.5 242t59.5 170zM395 1360v2q0 23 13.5 36t35.5 13q28 0 49.5 -17t51.5 -55l160 -198q43 -53 43 -64q0 -16 -17 -16q-16 0 -59 37
l-213 178q-46 40 -57 59q-6 13 -7 25z" />
    <glyph glyph-name="aacute" unicode="&#xe1;" horiz-adv-x="909" 
d="M-45 158v2q0 128 60 265.5t157 256.5q96 116 203.5 186t197.5 70q26 0 48.5 -5t37.5 -12t25.5 -14.5t16 -12.5t6.5 -5q4 0 22 49q5 12 11 16t24 4h59q21 0 21 -14q0 -11 -8 -31q-165 -497 -199 -598q-43 -131 -43 -172q0 -28 22 -28q31 0 127 145q14 21 24.5 40t14.5 29
t8 18t7.5 10.5t9.5 2.5q14 0 14 -16q0 -23 -32 -83.5t-78 -121.5q-51 -71 -106 -117.5t-103 -46.5q-32 0 -44 19.5t-12 54.5q0 42 25 125q9 33 96 291l-4 4q-30 -45 -42.5 -64.5t-55.5 -81t-72 -98t-76 -90t-83 -84t-77.5 -53.5t-74.5 -23q-127 0 -127 183zM672 805v2
q0 45 -25.5 69.5t-68.5 24.5q-73 0 -159 -78t-165 -202q-74 -118 -121 -241.5t-47 -203.5q0 -90 64 -90q54 0 140 87t177 220q86 124 145.5 242t59.5 170zM489 1061h-2q-14 0 -14 16q0 12 12 25.5t41 38.5l217 196q71 62 107 62q22 0 36.5 -12.5t14.5 -36.5q0 -17 -12 -32.5
t-24.5 -24.5t-32.5 -21q-5 -3 -7 -4l-272 -176q-48 -31 -64 -31z" />
    <glyph glyph-name="acircumflex" unicode="&#xe2;" horiz-adv-x="909" 
d="M-45 158v2q0 128 60 265.5t157 256.5q96 116 203.5 186t197.5 70q26 0 48.5 -5t37.5 -12t25.5 -14.5t16 -12.5t6.5 -5q4 0 22 49q5 12 11 16t24 4h59q21 0 21 -14q0 -11 -8 -31q-165 -497 -199 -598q-43 -131 -43 -172q0 -28 22 -28q31 0 127 145q14 21 24.5 40t14.5 29
t8 18t7.5 10.5t9.5 2.5q14 0 14 -16q0 -23 -32 -83.5t-78 -121.5q-51 -71 -106 -117.5t-103 -46.5q-32 0 -44 19.5t-12 54.5q0 42 25 125q9 33 96 291l-4 4q-30 -45 -42.5 -64.5t-55.5 -81t-72 -98t-76 -90t-83 -84t-77.5 -53.5t-74.5 -23q-127 0 -127 183zM672 805v2
q0 45 -25.5 69.5t-68.5 24.5q-73 0 -159 -78t-165 -202q-74 -118 -121 -241.5t-47 -203.5q0 -90 64 -90q54 0 140 87t177 220q86 124 145.5 242t59.5 170zM645 1303l-260 -211q-39 -31 -55 -31q-17 0 -17 16q0 17 49 66l187 194q42 43 56 54.5t30 11.5h41q17 0 23.5 -7.5
t25.5 -49.5l96 -211q21 -42 21 -56q0 -18 -17 -18q-14 0 -43 45z" />
    <glyph glyph-name="atilde" unicode="&#xe3;" horiz-adv-x="909" 
d="M-45 158v2q0 128 60 265.5t157 256.5q96 116 203.5 186t197.5 70q26 0 48.5 -5t37.5 -12t25.5 -14.5t16 -12.5t6.5 -5q4 0 22 49q5 12 11 16t24 4h59q21 0 21 -14q0 -11 -8 -31q-165 -497 -199 -598q-43 -131 -43 -172q0 -28 22 -28q31 0 127 145q14 21 24.5 40t14.5 29
t8 18t7.5 10.5t9.5 2.5q14 0 14 -16q0 -23 -32 -83.5t-78 -121.5q-51 -71 -106 -117.5t-103 -46.5q-32 0 -44 19.5t-12 54.5q0 42 25 125q9 33 96 291l-4 4q-30 -45 -42.5 -64.5t-55.5 -81t-72 -98t-76 -90t-83 -84t-77.5 -53.5t-74.5 -23q-127 0 -127 183zM672 805v2
q0 45 -25.5 69.5t-68.5 24.5q-73 0 -159 -78t-165 -202q-74 -118 -121 -241.5t-47 -203.5q0 -90 64 -90q54 0 140 87t177 220q86 124 145.5 242t59.5 170zM721 1118h-2q-36 0 -75 21.5t-67.5 47t-63 47t-60.5 21.5q-39 0 -73.5 -30t-55.5 -60t-27 -30q-8 0 -8 10
q0 51 68 115.5t149 64.5q36 0 76 -21.5t70 -47t64 -47t58 -21.5q39 0 73.5 30t55.5 60.5t27 30.5q8 0 8 -11q0 -51 -68 -115.5t-149 -64.5z" />
    <glyph glyph-name="adieresis" unicode="&#xe4;" horiz-adv-x="909" 
d="M-45 158v2q0 128 60 265.5t157 256.5q96 116 203.5 186t197.5 70q26 0 48.5 -5t37.5 -12t25.5 -14.5t16 -12.5t6.5 -5q4 0 22 49q5 12 11 16t24 4h59q21 0 21 -14q0 -11 -8 -31q-165 -497 -199 -598q-43 -131 -43 -172q0 -28 22 -28q31 0 127 145q14 21 24.5 40t14.5 29
t8 18t7.5 10.5t9.5 2.5q14 0 14 -16q0 -23 -32 -83.5t-78 -121.5q-51 -71 -106 -117.5t-103 -46.5q-32 0 -44 19.5t-12 54.5q0 42 25 125q9 33 96 291l-4 4q-30 -45 -42.5 -64.5t-55.5 -81t-72 -98t-76 -90t-83 -84t-77.5 -53.5t-74.5 -23q-127 0 -127 183zM672 805v2
q0 45 -25.5 69.5t-68.5 24.5q-73 0 -159 -78t-165 -202q-74 -118 -121 -241.5t-47 -203.5q0 -90 64 -90q54 0 140 87t177 220q86 124 145.5 242t59.5 170zM457 1130h-2q-28 0 -43 22t-15 54q0 42 31 84.5t72 42.5q30 0 46.5 -20t16.5 -49q0 -47 -31 -90.5t-75 -43.5z
M758 1130h-2q-28 0 -43 22t-15 54q0 42 31 84.5t72 42.5q30 0 46.5 -20t16.5 -49q0 -47 -31 -90.5t-75 -43.5z" />
    <glyph glyph-name="aring" unicode="&#xe5;" horiz-adv-x="909" 
d="M-45 158v2q0 128 60 265.5t157 256.5q96 116 203.5 186t197.5 70q26 0 48.5 -5t37.5 -12t25.5 -14.5t16 -12.5t6.5 -5q4 0 22 49q5 12 11 16t24 4h59q21 0 21 -14q0 -11 -8 -31q-165 -497 -199 -598q-43 -131 -43 -172q0 -28 22 -28q31 0 127 145q14 21 24.5 40t14.5 29
t8 18t7.5 10.5t9.5 2.5q14 0 14 -16q0 -23 -32 -83.5t-78 -121.5q-51 -71 -106 -117.5t-103 -46.5q-32 0 -44 19.5t-12 54.5q0 42 25 125q9 33 96 291l-4 4q-30 -45 -42.5 -64.5t-55.5 -81t-72 -98t-76 -90t-83 -84t-77.5 -53.5t-74.5 -23q-127 0 -127 183zM672 805v2
q0 45 -25.5 69.5t-68.5 24.5q-73 0 -159 -78t-165 -202q-74 -118 -121 -241.5t-47 -203.5q0 -90 64 -90q54 0 140 87t177 220q86 124 145.5 242t59.5 170zM612 1049h-2q-83 0 -141.5 58.5t-58.5 143.5t58.5 144t143.5 59t144 -59t59 -144t-59 -143.5t-144 -58.5zM612 1112h2
q57 0 97.5 40.5t40.5 98.5q0 59 -41 99.5t-99 40.5t-98.5 -40.5t-40.5 -99.5t40.5 -99t98.5 -40z" />
    <glyph glyph-name="ae" unicode="&#xe6;" horiz-adv-x="1251" 
d="M559 387l-4 4q-16 -40 -61.5 -106t-107.5 -137t-139 -122t-141 -51q-78 0 -114.5 55t-36.5 142q0 113 41 229.5t108 210.5t147.5 169t163.5 116t152 41q102 0 144 -64q2 6 8 22t9 21t9 14t12.5 12t16.5 3h51q25 0 25 -14q0 -11 -17 -76q44 33 72 51.5t72 34.5t88 16
q91 0 141.5 -55.5t50.5 -138.5q0 -130 -93.5 -210t-281.5 -126q-78 -19 -186 -35q-12 -47 -12 -98q0 -92 39.5 -156.5t126.5 -64.5q101 0 215 155q13 17 23 32.5t14.5 24.5t8.5 15.5t7 9t8 2.5q17 0 17 -18q0 -10 -17 -45t-43 -72q-142 -203 -295 -203q-101 0 -164 77.5
t-63 234.5q0 65 6 100zM1118 823v2q0 97 -84 97q-37 0 -84.5 -30t-97 -86.5t-93 -154t-65.5 -217.5q89 11 162 37.5t133.5 71.5t94.5 116.5t34 163.5zM676 797v2q0 54 -20.5 78t-65.5 24q-68 0 -157 -70.5t-165 -175t-129 -236.5t-53 -243q0 -45 21.5 -73.5t64.5 -28.5
q56 0 144 82.5t167 196t136 239.5t57 205z" />
    <glyph glyph-name="ccedilla" unicode="&#xe7;" horiz-adv-x="681" 
d="M240 -23l-50 -86q24 7 48 7q60 0 105.5 -36.5t45.5 -103.5q0 -87 -70 -137.5t-147 -50.5q-56 0 -116 30.5t-60 80.5q0 16 10 27t27 11q19 0 33.5 -16.5t24 -35.5t31.5 -35.5t54 -16.5q48 0 83.5 38t35.5 93q0 47 -29.5 66.5t-68.5 19.5q-14 0 -39.5 -4t-32.5 -4
q-14 0 -14 12q0 16 18 43l57 101q-88 18 -137 98.5t-49 220.5q0 133 44 254t120 213q74 90 165 141t181 51q82 0 127 -36.5t45 -98.5q0 -36 -26 -61t-66 -25q-45 0 -60 37q-10 24 -16 70q-7 44 -18 55q-12 10 -33 10q-45 0 -102 -46t-109 -126q-121 -188 -121 -440
q0 -103 44.5 -163t119.5 -60q55 0 114.5 50t106.5 124q16 24 33 57.5t27 49t18 16.5q16 0 16 -21q0 -25 -32 -94q-23 -47 -54 -91.5t-74 -88t-97.5 -71t-112.5 -28.5z" />
    <glyph glyph-name="egrave" unicode="&#xe8;" horiz-adv-x="681" 
d="M680 786v-2q0 -159 -121.5 -253.5t-386.5 -127.5q-4 0 -12.5 -1t-12.5 -1q-16 -69 -16 -131q0 -97 32 -146.5t91 -49.5q125 0 260 182q13 17 23 32.5t14.5 24.5t8.5 15.5t7 9t8 2.5q17 0 17 -18q0 -21 -43 -89q-27 -43 -62.5 -85t-81 -82.5t-100 -65.5t-106.5 -25
q-199 0 -199 301q0 135 49 264t124 218.5t164 144.5t169 55q87 0 130.5 -52t43.5 -120zM496 922h-2q-88 0 -191 -130.5t-147 -349.5q297 45 383 242q30 68 30 152q0 38 -19 62t-54 24zM272 1360v2q0 23 14 36t36 13q28 0 49 -16.5t51 -55.5l160 -198q43 -53 43 -64
q0 -16 -17 -16q-16 0 -59 37l-213 178q-46 40 -57 59q-6 13 -7 25z" />
    <glyph glyph-name="eacute" unicode="&#xe9;" horiz-adv-x="681" 
d="M680 786v-2q0 -159 -121.5 -253.5t-386.5 -127.5q-4 0 -12.5 -1t-12.5 -1q-16 -69 -16 -131q0 -97 32 -146.5t91 -49.5q125 0 260 182q13 17 23 32.5t14.5 24.5t8.5 15.5t7 9t8 2.5q17 0 17 -18q0 -21 -43 -89q-27 -43 -62.5 -85t-81 -82.5t-100 -65.5t-106.5 -25
q-199 0 -199 301q0 135 49 264t124 218.5t164 144.5t169 55q87 0 130.5 -52t43.5 -120zM496 922h-2q-88 0 -191 -130.5t-147 -349.5q297 45 383 242q30 68 30 152q0 38 -19 62t-54 24zM397 1061h-2q-14 0 -14 16q0 12 12 25.5t41 38.5l217 196q71 62 107 62q22 0 36.5 -12.5
t14.5 -36.5q0 -17 -12 -32.5t-24.5 -24.5t-32.5 -21q-5 -3 -7 -4l-272 -176q-48 -31 -64 -31z" />
    <glyph glyph-name="ecircumflex" unicode="&#xea;" horiz-adv-x="681" 
d="M680 786v-2q0 -159 -121.5 -253.5t-386.5 -127.5q-4 0 -12.5 -1t-12.5 -1q-16 -69 -16 -131q0 -97 32 -146.5t91 -49.5q125 0 260 182q13 17 23 32.5t14.5 24.5t8.5 15.5t7 9t8 2.5q17 0 17 -18q0 -21 -43 -89q-27 -43 -62.5 -85t-81 -82.5t-100 -65.5t-106.5 -25
q-199 0 -199 301q0 135 49 264t124 218.5t164 144.5t169 55q87 0 130.5 -52t43.5 -120zM496 922h-2q-88 0 -191 -130.5t-147 -349.5q297 45 383 242q30 68 30 152q0 38 -19 62t-54 24zM543 1303l-260 -211q-39 -31 -56 -31q-16 0 -16 16q0 17 49 66l186 194q42 43 56 54.5
t30 11.5h41q17 0 24 -8t26 -49l96 -211q20 -40 20 -56q0 -18 -16 -18q-14 0 -43 45z" />
    <glyph glyph-name="edieresis" unicode="&#xeb;" horiz-adv-x="681" 
d="M680 786v-2q0 -159 -121.5 -253.5t-386.5 -127.5q-4 0 -12.5 -1t-12.5 -1q-16 -69 -16 -131q0 -97 32 -146.5t91 -49.5q125 0 260 182q13 17 23 32.5t14.5 24.5t8.5 15.5t7 9t8 2.5q17 0 17 -18q0 -21 -43 -89q-27 -43 -62.5 -85t-81 -82.5t-100 -65.5t-106.5 -25
q-199 0 -199 301q0 135 49 264t124 218.5t164 144.5t169 55q87 0 130.5 -52t43.5 -120zM496 922h-2q-88 0 -191 -130.5t-147 -349.5q297 45 383 242q30 68 30 152q0 38 -19 62t-54 24zM354 1130h-2q-28 0 -42.5 22t-14.5 54q0 42 30.5 84.5t71.5 42.5q30 0 47 -20t17 -49
q0 -47 -31.5 -90.5t-75.5 -43.5zM655 1130h-2q-28 0 -42.5 22t-14.5 54q0 42 30.5 84.5t71.5 42.5q30 0 47 -20t17 -49q0 -47 -31.5 -90.5t-75.5 -43.5z" />
    <glyph glyph-name="igrave" unicode="&#xec;" 
d="M381 877v-3q0 -57 -39 -169q-13 -35 -76 -211t-96 -271q-23 -70 -23 -92q0 -25 25 -25q21 0 50.5 34t86.5 128q9 15 17 30.5t12 24.5t8.5 17t8.5 11t10 3q16 0 16 -14q0 -29 -70 -145q-54 -88 -115 -149.5t-116 -61.5q-32 0 -48 25t-16 61q0 51 50 192q47 129 137 383
q47 124 47 164q0 27 -23 27q-31 0 -94 -84q-25 -33 -43.5 -62t-26 -44t-13.5 -26.5t-10.5 -15.5t-12.5 -4q-15 0 -15 12q0 14 24.5 61t59.5 99q127 186 219 186q31 0 48.5 -21t17.5 -60zM147 1360v2q0 23 14 36t36 13q28 0 49 -16.5t51 -55.5l160 -198q43 -53 43 -64
q0 -16 -17 -16q-16 0 -59 37l-213 178q-46 40 -57 59q-6 13 -7 25z" />
    <glyph glyph-name="iacute" unicode="&#xed;" 
d="M381 877v-3q0 -57 -39 -169q-13 -35 -76 -211t-96 -271q-23 -70 -23 -92q0 -25 25 -25q21 0 50.5 34t86.5 128q9 15 17 30.5t12 24.5t8.5 17t8.5 11t10 3q16 0 16 -14q0 -29 -70 -145q-54 -88 -115 -149.5t-116 -61.5q-32 0 -48 25t-16 61q0 51 50 192q47 129 137 383
q47 124 47 164q0 27 -23 27q-31 0 -94 -84q-25 -33 -43.5 -62t-26 -44t-13.5 -26.5t-10.5 -15.5t-12.5 -4q-15 0 -15 12q0 14 24.5 61t59.5 99q127 186 219 186q31 0 48.5 -21t17.5 -60zM252 1061h-2q-14 0 -14 16q0 12 12 25.5t41 38.5l217 196q24 21 34.5 29.5t32.5 20.5
t39 12q22 0 37 -13t15 -36q0 -17 -12 -32.5t-24.5 -24.5t-32.5 -21q-5 -3 -7 -4l-273 -176q-48 -31 -63 -31z" />
    <glyph glyph-name="icircumflex" unicode="&#xee;" 
d="M381 877v-3q0 -57 -39 -169q-13 -35 -76 -211t-96 -271q-23 -70 -23 -92q0 -25 25 -25q21 0 50.5 34t86.5 128q9 15 17 30.5t12 24.5t8.5 17t8.5 11t10 3q16 0 16 -14q0 -29 -70 -145q-54 -88 -115 -149.5t-116 -61.5q-32 0 -48 25t-16 61q0 51 50 192q47 129 137 383
q47 124 47 164q0 27 -23 27q-31 0 -94 -84q-25 -33 -43.5 -62t-26 -44t-13.5 -26.5t-10.5 -15.5t-12.5 -4q-15 0 -15 12q0 14 24.5 61t59.5 99q127 186 219 186q31 0 48.5 -21t17.5 -60zM387 1303l-260 -211q-39 -31 -55 -31q-17 0 -17 16q0 17 49 66l187 194q42 43 56 54.5
t30 11.5h41q17 0 23.5 -7.5t25.5 -49.5l96 -211q21 -42 21 -56q0 -18 -17 -18q-14 0 -43 45z" />
    <glyph glyph-name="idieresis" unicode="&#xef;" 
d="M381 877v-3q0 -57 -39 -169q-13 -35 -76 -211t-96 -271q-23 -70 -23 -92q0 -25 25 -25q21 0 50.5 34t86.5 128q9 15 17 30.5t12 24.5t8.5 17t8.5 11t10 3q16 0 16 -14q0 -29 -70 -145q-54 -88 -115 -149.5t-116 -61.5q-32 0 -48 25t-16 61q0 51 50 192q47 129 137 383
q47 124 47 164q0 27 -23 27q-31 0 -94 -84q-25 -33 -43.5 -62t-26 -44t-13.5 -26.5t-10.5 -15.5t-12.5 -4q-15 0 -15 12q0 14 24.5 61t59.5 99q127 186 219 186q31 0 48.5 -21t17.5 -60zM188 1130h-2q-28 0 -42.5 22t-14.5 54q0 42 30.5 84.5t71.5 42.5q30 0 47 -20t17 -49
q0 -47 -31.5 -90.5t-75.5 -43.5zM489 1130h-2q-28 0 -42.5 22t-14.5 54q0 42 30.5 84.5t71.5 42.5q30 0 47 -20t17 -49q0 -47 -31.5 -90.5t-75.5 -43.5z" />
    <glyph glyph-name="eth" unicode="&#xf0;" horiz-adv-x="796" 
d="M606 1270l217 110q35 15 37 15q9 0 18 -16.5t9 -26.5q0 -8 -31 -23l-221 -115q88 -180 88 -462q0 -153 -28.5 -284t-75.5 -221.5t-108 -154.5t-126.5 -94.5t-130.5 -30.5q-119 0 -186.5 96t-67.5 263q0 146 61.5 292t169 243t226.5 97q91 0 153 -65q0 168 -49 283
l-205 -99q-33 -14 -37 -14q-9 0 -17.5 16.5t-8.5 26.5q0 6 31 22l215 107q-33 76 -68 121q-13 16 -28.5 33.5t-22 26t-6.5 14.5q0 8 6 14t16 6q25 0 74.5 -49t95.5 -131zM600 672v2q0 235 -143 235q-58 0 -117 -59t-109 -156q-54 -102 -87 -222.5t-33 -219.5
q0 -236 143 -236q58 0 116.5 59t108.5 156q54 100 87.5 221t33.5 220z" />
    <glyph glyph-name="ntilde" unicode="&#xf1;" horiz-adv-x="1024" 
d="M901 846v-2q0 -62 -35 -154q-25 -65 -82 -211.5t-86 -224.5q-34 -91 -34 -127q0 -33 24 -33q50 0 123 101q22 30 40 58.5t27 43.5t16 27t11.5 16t9.5 4q13 0 13 -18q0 -33 -76 -144q-58 -82 -121.5 -140t-114.5 -58q-84 0 -84 96t80 297q127 319 131 330q27 86 27 116
q0 58 -45 58q-51 0 -127 -67.5t-164 -190.5q-174 -245 -295 -578q-11 -32 -17 -38.5t-20 -6.5h-69q-21 0 -21 10t41 125q85 229 183 549q26 85 26 121q0 43 -33 43q-53 0 -141 -133q-11 -16 -29.5 -47t-29 -44.5t-19.5 -13.5q-14 0 -14 15q0 29 80 145q55 79 117 133.5
t116 54.5q42 0 63 -26t21 -70q0 -47 -26 -145q-9 -29 -25.5 -80t-27.5 -87.5t-15 -60.5l4 -4q24 47 60 104.5t88.5 123.5t107.5 120t118 89.5t118 35.5q48 0 77 -30t29 -82zM748 1118h-3q-36 0 -75 21.5t-67.5 47t-63 47t-60.5 21.5q-30 0 -58.5 -18.5t-45.5 -41.5
t-31.5 -41.5t-19.5 -18.5q-9 0 -9 10q0 51 68 115.5t149 64.5q36 0 76.5 -21.5t70 -47t64 -47t58.5 -21.5q30 0 58.5 19t45.5 41.5t31.5 41.5t19.5 19q9 0 9 -11q0 -51 -68 -115.5t-149 -64.5z" />
    <glyph glyph-name="ograve" unicode="&#xf2;" horiz-adv-x="796" 
d="M711 598v-2q0 -96 -30 -198t-83 -189q-66 -109 -156.5 -175.5t-187.5 -66.5q-119 0 -186.5 96t-67.5 263q0 146 61.5 292t169 243t226.5 97t186.5 -96.5t67.5 -263.5zM600 672v2q0 235 -143 235q-58 0 -117 -59t-109 -156q-54 -102 -87 -222.5t-33 -219.5
q0 -236 143 -236q58 0 116.5 59t108.5 156q54 100 87.5 221t33.5 220zM268 1360v2q0 23 13.5 36t35.5 13q28 0 49.5 -17t51.5 -55l160 -198q43 -53 43 -64q0 -16 -17 -16q-16 0 -59 37l-213 178q-46 40 -57 59q-6 13 -7 25z" />
    <glyph glyph-name="oacute" unicode="&#xf3;" horiz-adv-x="796" 
d="M711 598v-2q0 -96 -30 -198t-83 -189q-66 -109 -156.5 -175.5t-187.5 -66.5q-119 0 -186.5 96t-67.5 263q0 146 61.5 292t169 243t226.5 97t186.5 -96.5t67.5 -263.5zM600 672v2q0 235 -143 235q-58 0 -117 -59t-109 -156q-54 -102 -87 -222.5t-33 -219.5
q0 -236 143 -236q58 0 116.5 59t108.5 156q54 100 87.5 221t33.5 220zM373 1061h-2q-15 0 -15 16q0 6 3 12.5t13 17t15.5 15t22.5 19.5l217 196q24 21 34.5 29.5t32.5 20.5t39 12q22 0 36.5 -12.5t14.5 -36.5t-19 -42t-50 -37q-2 -1 -3.5 -1.5t-2.5 -1.5l-273 -176
q-48 -31 -63 -31z" />
    <glyph glyph-name="ocircumflex" unicode="&#xf4;" horiz-adv-x="796" 
d="M711 598v-2q0 -96 -30 -198t-83 -189q-66 -109 -156.5 -175.5t-187.5 -66.5q-119 0 -186.5 96t-67.5 263q0 146 61.5 292t169 243t226.5 97t186.5 -96.5t67.5 -263.5zM600 672v2q0 235 -143 235q-58 0 -117 -59t-109 -156q-54 -102 -87 -222.5t-33 -219.5
q0 -236 143 -236q58 0 116.5 59t108.5 156q54 100 87.5 221t33.5 220zM528 1303l-260 -211q-39 -31 -55 -31t-16 16q0 17 49 66l186 194q42 43 56 54.5t30 11.5h41q17 0 23.5 -7.5t25.5 -49.5l97 -211q20 -40 20 -56q0 -18 -16 -18q-14 0 -43 45z" />
    <glyph glyph-name="otilde" unicode="&#xf5;" horiz-adv-x="796" 
d="M711 598v-2q0 -96 -30 -198t-83 -189q-66 -109 -156.5 -175.5t-187.5 -66.5q-119 0 -186.5 96t-67.5 263q0 146 61.5 292t169 243t226.5 97t186.5 -96.5t67.5 -263.5zM600 672v2q0 235 -143 235q-58 0 -117 -59t-109 -156q-54 -102 -87 -222.5t-33 -219.5
q0 -236 143 -236q58 0 116.5 59t108.5 156q54 100 87.5 221t33.5 220zM614 1118h-2q-36 0 -75 21.5t-67.5 47t-63 47t-60.5 21.5q-39 0 -73.5 -30t-55.5 -60t-27 -30q-8 0 -8 10q0 51 68 115.5t149 64.5q36 0 76.5 -21.5t70 -47t64 -47t58.5 -21.5q30 0 58.5 19t45.5 41.5
t31.5 41.5t19.5 19q8 0 8 -11q0 -51 -68 -115.5t-149 -64.5z" />
    <glyph glyph-name="odieresis" unicode="&#xf6;" horiz-adv-x="796" 
d="M711 598v-2q0 -96 -30 -198t-83 -189q-66 -109 -156.5 -175.5t-187.5 -66.5q-119 0 -186.5 96t-67.5 263q0 146 61.5 292t169 243t226.5 97t186.5 -96.5t67.5 -263.5zM600 672v2q0 235 -143 235q-58 0 -117 -59t-109 -156q-54 -102 -87 -222.5t-33 -219.5
q0 -236 143 -236q58 0 116.5 59t108.5 156q54 100 87.5 221t33.5 220zM330 1130h-2q-28 0 -43 22t-15 54q0 42 31 84.5t72 42.5q30 0 46.5 -20t16.5 -49q0 -47 -31 -90.5t-75 -43.5zM631 1130h-2q-28 0 -43 22t-15 54q0 42 31 84.5t72 42.5q30 0 46.5 -20t16.5 -49
q0 -47 -31 -90.5t-75 -43.5z" />
    <glyph glyph-name="divide" unicode="&#xf7;" horiz-adv-x="1228" 
d="M500 942v2q0 46 34 79.5t80 33.5t80.5 -34.5t34.5 -80.5q0 -43 -34.5 -79t-78.5 -36q-47 0 -81.5 34.5t-34.5 80.5zM1130 467h-1032v102h1032v-102zM500 94v2q0 46 34 79.5t80 33.5t80.5 -34.5t34.5 -80.5q0 -43 -34.5 -78.5t-78.5 -35.5q-47 0 -81.5 34t-34.5 80z" />
    <glyph glyph-name="oslash" unicode="&#xf8;" horiz-adv-x="796" 
d="M-47 -180h-27q-18 0 -18 10q0 1 33 55l118 187q-59 91 -59 254q0 146 61.5 292t169 243t226.5 97q84 0 155 -59l111 174q20 33 35 33h26q19 0 19 -10q0 -2 -33 -56l-119 -188q60 -92 60 -254q0 -71 -20 -155t-60 -168t-93.5 -153t-128 -112t-155.5 -43q-90 0 -156 60
l-110 -174q-20 -33 -35 -33zM117 139l446 707q-35 63 -106 63q-58 0 -114 -52t-96.5 -131.5t-72 -170t-47.5 -170.5t-16 -131q0 -70 6 -115zM594 786l-447 -706q36 -64 107 -64q73 0 140.5 78.5t110.5 188t69 216.5t26 173q0 69 -6 114z" />
    <glyph glyph-name="ugrave" unicode="&#xf9;" horiz-adv-x="1024" 
d="M45 80v2q0 56 41 174q31 90 105.5 270.5t76.5 184.5q31 84 31 102q0 27 -20 27q-44 0 -132 -119q-19 -25 -35.5 -50t-25.5 -38.5t-16.5 -25t-12 -15.5t-8.5 -4q-18 0 -18 16q0 11 33 65t79.5 117t106 113.5t104.5 50.5q39 0 57.5 -21t18.5 -69q0 -39 -45 -162
q-25 -65 -83.5 -208t-80.5 -199q-45 -120 -45 -156q0 -41 41 -41q39 0 116.5 58t160.5 159q202 245 311 582q5 16 10 23t16 8q14 2 80 2q19 0 19 -21q0 -3 -10 -33q-8 -24 -104 -283.5t-128 -365.5q-22 -74 -22 -98q0 -14 7 -22.5t17 -8.5q37 0 133 125q28 36 47.5 68.5
t26 42.5t14.5 10q19 0 19 -18q0 -14 -32.5 -67t-80 -114t-109 -109t-110.5 -48q-31 0 -47 20.5t-16 50.5q0 53 22.5 130.5t71.5 218.5q8 23 12 34l-4 4q-51 -75 -108.5 -147.5t-127.5 -146t-141 -119t-127 -45.5q-41 0 -64.5 25t-23.5 71zM401 1360v2q0 23 14 36t36 13
q28 0 49 -16.5t51 -55.5l160 -198q43 -53 43 -64q0 -16 -17 -16q-16 0 -59 37l-213 178q-46 40 -57 59q-6 13 -7 25z" />
    <glyph glyph-name="uacute" unicode="&#xfa;" horiz-adv-x="1024" 
d="M45 80v2q0 56 41 174q31 90 105.5 270.5t76.5 184.5q31 84 31 102q0 27 -20 27q-44 0 -132 -119q-19 -25 -35.5 -50t-25.5 -38.5t-16.5 -25t-12 -15.5t-8.5 -4q-18 0 -18 16q0 11 33 65t79.5 117t106 113.5t104.5 50.5q39 0 57.5 -21t18.5 -69q0 -39 -45 -162
q-25 -65 -83.5 -208t-80.5 -199q-45 -120 -45 -156q0 -41 41 -41q39 0 116.5 58t160.5 159q202 245 311 582q5 16 10 23t16 8q14 2 80 2q19 0 19 -21q0 -3 -10 -33q-8 -24 -104 -283.5t-128 -365.5q-22 -74 -22 -98q0 -14 7 -22.5t17 -8.5q37 0 133 125q28 36 47.5 68.5
t26 42.5t14.5 10q19 0 19 -18q0 -14 -32.5 -67t-80 -114t-109 -109t-110.5 -48q-31 0 -47 20.5t-16 50.5q0 53 22.5 130.5t71.5 218.5q8 23 12 34l-4 4q-51 -75 -108.5 -147.5t-127.5 -146t-141 -119t-127 -45.5q-41 0 -64.5 25t-23.5 71zM557 1061h-2q-14 0 -14 16
q0 12 12 25.5t41 38.5l217 196q71 62 107 62q22 0 36.5 -12.5t14.5 -36.5q0 -17 -12 -32.5t-24.5 -24.5t-32.5 -21q-5 -3 -7 -4l-272 -176q-48 -31 -64 -31z" />
    <glyph glyph-name="ucircumflex" unicode="&#xfb;" horiz-adv-x="1024" 
d="M45 80v2q0 56 41 174q31 90 105.5 270.5t76.5 184.5q31 84 31 102q0 27 -20 27q-44 0 -132 -119q-19 -25 -35.5 -50t-25.5 -38.5t-16.5 -25t-12 -15.5t-8.5 -4q-18 0 -18 16q0 11 33 65t79.5 117t106 113.5t104.5 50.5q39 0 57.5 -21t18.5 -69q0 -39 -45 -162
q-25 -65 -83.5 -208t-80.5 -199q-45 -120 -45 -156q0 -41 41 -41q39 0 116.5 58t160.5 159q202 245 311 582q5 16 10 23t16 8q14 2 80 2q19 0 19 -21q0 -3 -10 -33q-8 -24 -104 -283.5t-128 -365.5q-22 -74 -22 -98q0 -14 7 -22.5t17 -8.5q37 0 133 125q28 36 47.5 68.5
t26 42.5t14.5 10q19 0 19 -18q0 -14 -32.5 -67t-80 -114t-109 -109t-110.5 -48q-31 0 -47 20.5t-16 50.5q0 53 22.5 130.5t71.5 218.5q8 23 12 34l-4 4q-51 -75 -108.5 -147.5t-127.5 -146t-141 -119t-127 -45.5q-41 0 -64.5 25t-23.5 71zM702 1303l-260 -211
q-39 -31 -55 -31t-16 16q0 17 49 66l186 194q42 43 56 54.5t30 11.5h41q17 0 23.5 -7.5t25.5 -49.5l97 -211q20 -40 20 -56q0 -18 -16 -18q-14 0 -43 45z" />
    <glyph glyph-name="udieresis" unicode="&#xfc;" horiz-adv-x="1024" 
d="M45 80v2q0 56 41 174q31 90 105.5 270.5t76.5 184.5q31 84 31 102q0 27 -20 27q-44 0 -132 -119q-19 -25 -35.5 -50t-25.5 -38.5t-16.5 -25t-12 -15.5t-8.5 -4q-18 0 -18 16q0 11 33 65t79.5 117t106 113.5t104.5 50.5q39 0 57.5 -21t18.5 -69q0 -39 -45 -162
q-25 -65 -83.5 -208t-80.5 -199q-45 -120 -45 -156q0 -41 41 -41q39 0 116.5 58t160.5 159q202 245 311 582q5 16 10 23t16 8q14 2 80 2q19 0 19 -21q0 -3 -10 -33q-8 -24 -104 -283.5t-128 -365.5q-22 -74 -22 -98q0 -14 7 -22.5t17 -8.5q37 0 133 125q28 36 47.5 68.5
t26 42.5t14.5 10q19 0 19 -18q0 -14 -32.5 -67t-80 -114t-109 -109t-110.5 -48q-31 0 -47 20.5t-16 50.5q0 53 22.5 130.5t71.5 218.5q8 23 12 34l-4 4q-51 -75 -108.5 -147.5t-127.5 -146t-141 -119t-127 -45.5q-41 0 -64.5 25t-23.5 71zM504 1130h-2q-28 0 -43 22t-15 54
q0 42 31 84.5t72 42.5q30 0 46.5 -20t16.5 -49q0 -47 -31 -90.5t-75 -43.5zM805 1130h-2q-28 0 -43 22t-15 54q0 42 31 84.5t72 42.5q30 0 46.5 -20t16.5 -49q0 -47 -31 -90.5t-75 -43.5z" />
    <glyph glyph-name="yacute" unicode="&#xfd;" horiz-adv-x="796" 
d="M768 823v-2q0 -122 -86 -299t-297 -469q-17 -23 -55.5 -74t-59.5 -79q-142 -192 -222 -265t-167 -73q-54 0 -81 36.5t-27 94.5q0 31 19 56.5t48 25.5q28 0 41.5 -20.5t22.5 -76.5q5 -38 47 -38q32 0 77 32.5t87 87.5q105 135 127 297q14 109 14 334q0 204 -8 305.5
t-20.5 128.5t-37.5 27q-23 0 -43.5 -24.5t-52.5 -84.5q-17 -29 -30.5 -64.5t-21 -49t-19.5 -13.5q-19 0 -19 25q0 24 55 129q40 76 87 128t92 52q68 0 98.5 -80.5t30.5 -271.5q0 -199 -2 -279q-3 -98 -9 -231l6 -4q4 6 40.5 57t72 103.5t66.5 103.5q133 216 133 344
q0 21 -21 82q-20 58 -20 86q0 40 18 65t47 25q70 0 70 -127zM414 1061h-2q-15 0 -15 16q0 6 3 12.5t13 17t15.5 15t22.5 19.5l217 196q24 21 34.5 29.5t32.5 20.5t39 12q22 0 36.5 -12.5t14.5 -36.5t-19 -42t-50 -37q-2 -1 -3.5 -1.5t-2.5 -1.5l-273 -176q-48 -31 -63 -31z
" />
    <glyph glyph-name="thorn" unicode="&#xfe;" horiz-adv-x="796" 
d="M731 688v-2q0 -119 -44.5 -243t-119.5 -228q-77 -104 -171.5 -165.5t-190.5 -61.5q-88 0 -144 59q-10 -32 -31.5 -114t-35.5 -126q-31 -105 -31 -133q0 -26 12 -38t37 -17q9 -2 26.5 -4t27 -4t20 -5t15.5 -8t5 -12q0 -6 -1 -9t-7 -5t-18 -2q-25 0 -94.5 4t-104.5 4
q-39 0 -103.5 -4t-92.5 -4q-21 0 -21 14t12 21t50 10q60 4 76 25t48 127l328 1089q1 4 0.5 6.5t-5 2t-13.5 -4.5q-33 -14 -65 -29.5t-46 -21.5t-24 -6q-13 0 -13 12q0 13 39 35q75 41 127 57q17 6 23 31l78 268q16 54 16 76q0 44 -62 49q-28 3 -37.5 8.5t-9.5 18.5
q3 22 62 22q98 0 176 47q38 23 39 23q14 0 14 -16q0 -3 -1.5 -8t-6 -18t-8.5 -26q-50 -167 -133 -436q42 10 67 10q20 2 66 2q125 0 197.5 -68t72.5 -202zM600 729v2q0 98 -43.5 138t-128.5 40q-78 0 -113 -14q-21 -61 -57 -186q-22 -74 -129 -426q-33 -112 -33 -158
q0 -48 30.5 -74t76.5 -26q73 0 144.5 63t129.5 168q57 103 90 228.5t33 244.5z" />
    <glyph glyph-name="ydieresis" unicode="&#xff;" horiz-adv-x="796" 
d="M768 823v-2q0 -122 -86 -299t-297 -469q-17 -23 -55.5 -74t-59.5 -79q-142 -192 -222 -265t-167 -73q-54 0 -81 36.5t-27 94.5q0 31 19 56.5t48 25.5q28 0 41.5 -20.5t22.5 -76.5q5 -38 47 -38q32 0 77 32.5t87 87.5q105 135 127 297q14 109 14 334q0 204 -8 305.5
t-20.5 128.5t-37.5 27q-23 0 -43.5 -24.5t-52.5 -84.5q-17 -29 -30.5 -64.5t-21 -49t-19.5 -13.5q-19 0 -19 25q0 24 55 129q40 76 87 128t92 52q68 0 98.5 -80.5t30.5 -271.5q0 -199 -2 -279q-3 -98 -9 -231l6 -4q4 6 40.5 57t72 103.5t66.5 103.5q133 216 133 344
q0 21 -21 82q-20 58 -20 86q0 40 18 65t47 25q70 0 70 -127zM350 1130h-2q-28 0 -42.5 22t-14.5 54q0 42 30.5 84.5t71.5 42.5q30 0 47 -20t17 -49q0 -47 -31.5 -90.5t-75.5 -43.5zM651 1130h-2q-28 0 -42.5 22t-14.5 54q0 42 30.5 84.5t71.5 42.5q30 0 47 -20t17 -49
q0 -47 -31.5 -90.5t-75.5 -43.5z" />
    <glyph glyph-name="dotlessi" unicode="&#x131;" 
d="M381 877v-3q0 -57 -39 -169q-13 -35 -76 -211t-96 -271q-23 -70 -23 -92q0 -25 25 -25q21 0 50.5 34t86.5 128q9 15 17 30.5t12 24.5t8.5 17t8.5 11t10 3q16 0 16 -14q0 -29 -70 -145q-54 -88 -115 -149.5t-116 -61.5q-32 0 -48 25t-16 61q0 51 50 192q47 129 137 383
q47 124 47 164q0 27 -23 27q-31 0 -94 -84q-25 -33 -43.5 -62t-26 -44t-13.5 -26.5t-10.5 -15.5t-12.5 -4q-15 0 -15 12q0 14 24.5 61t59.5 99q127 186 219 186q31 0 48.5 -21t17.5 -60z" />
    <glyph glyph-name="Lslash" unicode="&#x141;" horiz-adv-x="796" 
d="M334 666l-127 -433q-47 -156 -47 -167q0 -17 33 -17h94q150 0 222.5 36t129.5 151q16 32 35 74q19 40 24.5 47.5t16.5 7.5q20 0 20 -15q0 -18 -10 -54.5t-57 -195.5q-23 -77 -29.5 -92.5t-15.5 -15.5t-54.5 2t-151 4t-259.5 2q-74 0 -132.5 -2t-89 -4t-36.5 -2
q-13 0 -18 4.5t-5 17.5q0 12 13.5 18t54.5 9q38 3 59 24.5t35 67.5q38 124 131 436l-176 -104q-21 -14 -33 -14q-8 0 -8 10q0 11 10 41q3 14 23 26l209 123l118 391q37 122 37 144q0 26 -13 37t-42 18q-12 2 -26 4t-21 2.5t-13.5 3t-9 6.5t-2.5 11q0 22 19 22q12 0 79 -4
t128 -4q43 0 104.5 4t81.5 4q16 0 21.5 -3t5.5 -13q0 -15 -12 -20.5t-46 -10.5q-10 -1 -16 -2q-60 -9 -80 -25.5t-35 -68.5l-115 -399l314 186q21 14 33 14q8 0 8 -10q0 -8 -11 -41q-3 -16 -22 -27z" />
    <glyph glyph-name="lslash" unicode="&#x142;" 
d="M-4 88v2q0 54 41 221q40 162 102 373l-155 -123q-36 -29 -41 -29q-9 0 -9 15q0 11 7 39q4 15 22 30l203 158q19 68 51.5 184.5t44.5 159.5q37 135 37 164q0 23 -11 34.5t-44 14.5q-28 3 -37.5 8.5t-9.5 18.5q3 22 61 22q98 0 176 47q38 23 39 23q14 0 14 -16
q0 -4 -5.5 -19t-15 -43.5t-17.5 -56.5q-60 -210 -117 -410l155 121q36 29 41 29q9 0 9 -15q0 -11 -7 -39q-4 -15 -22 -30l-203 -158q-40 -143 -74 -262t-49 -170.5t-22 -79.5q-33 -118 -33 -160q0 -15 7.5 -25t19.5 -10q23 0 47.5 26t70.5 101q14 23 33 61.5t31 60.5t20 22
q15 0 15 -19q0 -12 -21.5 -60t-52.5 -101q-52 -89 -112.5 -151t-116.5 -62q-72 0 -72 104z" />
    <glyph glyph-name="OE" unicode="&#x152;" horiz-adv-x="1366" 
d="M834 645l-115 -397q-27 -94 -27 -137q0 -62 101 -62q157 0 229 31t111 121q54 121 65.5 141t28.5 20q18 0 18 -18q0 -19 -35 -151q-9 -34 -16.5 -64t-14 -54t-8.5 -34q-9 -34 -14 -41.5t-20 -7.5q-11 0 -24.5 0.5t-38.5 1.5l-50 2q-132 4 -365 4q-81 0 -159 -10t-119 -10
q-98 0 -174.5 69.5t-117 187.5t-40.5 263q0 146 47 289.5t127 257.5t198.5 185t250.5 71q46 0 129 -11q75 -10 289 -10q17 0 131 4q110 4 133 4q53 0 63 -2t10 -14q0 -8 -16.5 -65t-35 -120t-21.5 -75q-10 -36 -17 -49t-18 -13q-31 0 -31 39q0 26 4 75.5t4 63.5
q0 26 -1.5 40.5t-8.5 27.5t-16.5 19t-31.5 10t-47 5t-69 1q-109 0 -121 -6q-8 -4 -34 -99l-123 -426h102q59 0 95 5t57.5 21t29.5 28t23 43q5 10 12.5 27t11.5 25t10.5 18t13.5 14t15 4q23 0 23 -25q0 -3 -3 -11.5t-9.5 -27.5t-12.5 -37q-47 -145 -88 -329q-8 -37 -34 -37
q-16 0 -21.5 10.5t-5.5 36.5q0 15 4 49t4 49q0 44 -26.5 62t-112.5 18h-98zM160 365v-3q0 -153 58.5 -243t166.5 -90q88 0 125 41t68 151q167 587 204 725.5t37 171.5q0 64 -40 99.5t-122 35.5q-69 0 -131 -32t-109 -88t-80 -113t-61 -125q-49 -120 -82.5 -267t-33.5 -263z
" />
    <glyph glyph-name="oe" unicode="&#x153;" horiz-adv-x="1366" 
d="M0 344v2q0 102 39 210.5t104.5 197.5t162 146.5t202.5 57.5q101 0 177.5 -68.5t98.5 -174.5q63 97 164 170t211 73q87 0 139 -56.5t52 -141.5q0 -109 -62.5 -182.5t-197.5 -122.5q-120 -44 -322 -72q-8 -50 -8 -86q0 -223 155 -223q135 0 250 155q13 17 23 33t14.5 24.5
t9 15t7.5 9t8 2.5q16 0 16 -18q0 -23 -41 -84q-29 -44 -56 -77.5t-69.5 -73.5t-95.5 -62.5t-111 -22.5q-92 0 -150 61t-71 148q-58 -89 -159 -149t-199 -60q-291 0 -291 369zM1239 793v2q0 58 -30 92.5t-76 34.5q-60 0 -122 -54.5t-108 -135t-78.5 -163t-44.5 -145.5
q239 39 353 133q106 87 106 236zM686 688v2q0 111 -53.5 171.5t-124.5 60.5q-78 0 -153 -68.5t-127.5 -171t-84.5 -220t-32 -216.5q0 -234 178 -234q60 0 129 53t128.5 141t99.5 217t40 265z" />
    <glyph glyph-name="Scaron" unicode="&#x160;" horiz-adv-x="681" 
d="M152 934v2q0 81 33.5 153t88 120.5t123 77t138.5 28.5q89 0 178 -41q41 -18 41 -31q0 -3 -15 -76q-3 -15 -22 -92q-24 -94 -32 -114.5t-23 -20.5q-17 0 -17 27q0 24 5 71.5t5 69.5q0 170 -137 170q-105 0 -170 -75t-65 -179q0 -49 22.5 -102t45 -85t69.5 -92
q50 -63 78 -104t54 -108.5t26 -135.5q0 -116 -59.5 -216t-154 -157t-198.5 -57q-56 0 -111.5 17.5t-91.5 44.5q-35 21 -35 47q0 14 2.5 33t11 82.5t17.5 130.5q6 46 12.5 58.5t24.5 12.5q14 0 17 -13t3 -52q0 -135 13 -203q9 -47 50.5 -78t96.5 -31q121 0 195.5 93.5
t74.5 234.5q0 65 -33.5 128.5t-95.5 141.5q-91 119 -119 168q-46 82 -46 152zM526 1460l260 211q39 31 56 31q16 0 16 -16q0 -17 -49 -66l-186 -195q-41 -42 -55.5 -53.5t-30.5 -11.5h-41q-17 0 -24 8t-26 49l-96 211q-20 40 -20 55q0 19 16 19q14 0 43 -45z" />
    <glyph glyph-name="scaron" unicode="&#x161;" horiz-adv-x="569" 
d="M426 270v-2q0 -118 -84 -202q-91 -91 -221 -91q-90 0 -172 54q-35 25 -35 41q0 46 33 198q11 53 17 66.5t20 13.5q13 0 16.5 -13.5t3.5 -60.5q0 -52 8.5 -94.5t27.5 -78.5t52.5 -56t79.5 -20q58 0 100.5 50t42.5 111q0 65 -29 120.5t-81 117.5q-54 64 -82.5 117
t-28.5 118q0 117 76.5 208t191.5 91q72 0 135.5 -25t63.5 -46q0 -39 -22 -133q-20 -75 -26.5 -90t-20.5 -15q-9 0 -14.5 6.5t-9 21t-5 28.5t-4 37t-4.5 38q-20 129 -123 129q-59 0 -99 -44.5t-40 -106.5q0 -38 19 -82t35 -67.5t56 -76.5q31 -41 46 -62.5t37 -58t31 -71
t9 -70.5zM397 1161l260 211q39 31 56 31q16 0 16 -17q0 -11 -10 -23.5t-39 -41.5l-186 -195q-41 -42 -55.5 -53.5t-30.5 -11.5h-41q-17 0 -24 8t-26 49l-96 211q-20 40 -20 55q0 19 16 19q14 0 43 -45z" />
    <glyph glyph-name="Ydieresis" unicode="&#x178;" horiz-adv-x="796" 
d="M356 1178v-2q0 -13 17 -125q6 -43 17.5 -105t30 -158t30.5 -161q239 320 307 424q78 121 78 141q0 18 -15.5 31t-40.5 18q-58 11 -64 17q-3 3 -3 10q0 22 20 22l49 -4q50 -4 131 -4q31 0 68 4t45 4q27 0 27 -18q0 -27 -35 -31q-28 -6 -45.5 -15t-48.5 -40.5t-74 -91.5
q-310 -427 -395 -541q-62 -210 -105 -346q-22 -81 -22 -111q0 -26 13.5 -37t45.5 -18q7 -1 17 -2.5t15.5 -2.5t12 -2.5t10.5 -3t7 -4t4.5 -5.5t1.5 -7q0 -12 -7 -17t-30 -5q-13 0 -76 4t-104 4q-50 0 -120 -4t-77 -4q-27 0 -27 18q0 12 10.5 17t39.5 8t42 6q37 8 56 30.5
t39 84.5q43 139 125 417q-63 355 -82 453q-27 146 -40 173q-12 27 -45 39q-4 1 -9 3q-11 4 -30.5 8t-25.5 8t-6 13q0 20 25 20q1 0 41.5 -4t111.5 -4t118 2t68.5 4t30.5 2q23 0 23 -20q0 -6 -3 -9.5t-11 -6.5t-15 -4.5t-23.5 -4t-27.5 -4.5q-42 -9 -56 -22t-14 -41z
M432 1430h-2q-28 0 -42.5 21.5t-14.5 53.5q0 42 30.5 84.5t71.5 42.5q30 0 47 -20t17 -49q0 -47 -31 -90t-76 -43zM733 1430h-2q-28 0 -42.5 21.5t-14.5 53.5q0 42 30.5 84.5t71.5 42.5q30 0 47 -20t17 -49q0 -47 -31 -90t-76 -43z" />
    <glyph glyph-name="Zcaron" unicode="&#x17d;" horiz-adv-x="796" 
d="M-94 12v2q0 16 96 154q345 496 639 944q8 12 20.5 30.5t19.5 29.5t15 23t11.5 19.5t3.5 10.5q0 6 -20 7t-113 1q-91 0 -151 -21t-94.5 -57.5t-68.5 -101.5q-16 -31 -28 -59t-16.5 -41.5t-9.5 -23.5t-10.5 -13t-15.5 -3q-18 0 -18 21q0 7 15 69.5t34 137.5t23 94
q8 36 12.5 45.5t11.5 9.5q26 0 144.5 -4t203.5 -4q68 0 152 4t108 4q21 0 21 -12q0 -13 -64 -111q-44 -68 -245.5 -366.5t-364.5 -542.5q-9 -13 -49 -72t-59 -89.5t-19 -37.5t27 -8.5t153 -1.5q97 0 154 14.5t104 58.5t90 132q18 37 29.5 73.5t17 47t19.5 10.5q18 0 18 -18
q0 -8 -33.5 -152t-43.5 -182q-7 -27 -13.5 -34t-17.5 -7q-28 0 -145.5 4t-237.5 4q-90 0 -175.5 -4t-98.5 -4q-19 0 -25 4t-6 16zM563 1460l260 211q39 31 56 31q16 0 16 -16q0 -17 -49 -66l-187 -195q-41 -42 -55.5 -53.5t-30.5 -11.5h-41q-17 0 -23.5 7.5t-25.5 49.5
l-96 211q-20 40 -20 55q0 19 16 19q14 0 43 -45z" />
    <glyph glyph-name="zcaron" unicode="&#x17e;" horiz-adv-x="796" 
d="M-66 18v2q0 40 50 74q45 31 104 47q4 0 22.5 24t60 82t75.5 103q202 274 395 434l-4 4q-76 -26 -115 -26q-57 0 -146.5 28.5t-117.5 28.5q-102 0 -102 -149q0 -42 -2.5 -53t-14.5 -11q-20 0 -20 39q0 55 10 106.5t31 100t61.5 77.5t95.5 29q45 0 146 -63q105 -64 158 -64
q20 0 32 1.5t21 8.5t12.5 12.5t13 21.5t17.5 28q41 64 80 64q26 0 26 -23q0 -27 -19.5 -50.5t-65.5 -60t-68 -57.5q-52 -52 -113 -125q-161 -197 -168 -205q-111 -131 -254 -286l4 -4q43 12 111 12q48 0 127 -23q75 -22 121 -22q57 0 82.5 32t25.5 95q0 25 -2 52t-2 32
q0 18 14 18q5 0 10.5 -7.5t11 -33.5t5.5 -65q0 -116 -70 -189q-67 -73 -163 -73q-74 0 -160 63q-66 49 -94 58q-18 6 -35 6q-39 0 -84 -64q-5 -6 -14 -18t-14 -18t-12 -13.5t-14 -10.5t-14 -3q-35 0 -35 34zM492 1161l260 211q39 31 55 31t16 -17q0 -11 -10 -23.5t-39 -41.5
l-186 -195q-41 -42 -55.5 -53.5t-30.5 -11.5h-41q-17 0 -23.5 7.5t-25.5 49.5l-97 211q-20 40 -20 55q0 19 16 19q14 0 43 -45z" />
    <glyph glyph-name="florin" unicode="&#x192;" horiz-adv-x="909" 
d="M424 741h-129q-11 0 -8 17q2 8 6 20q3 9 6 11t14 2h123q67 267 162 387q107 137 266 137q50 0 84.5 -24.5t34.5 -71.5q0 -37 -22.5 -59.5t-51.5 -22.5q-73 0 -73 73q0 11 -5 31q-6 25 -30 25q-46 0 -96 -60q-58 -70 -101 -237q-23 -97 -45 -178h154q6 0 9 -0.5t4.5 -3.5
t0.5 -9q-4 -12 -6 -20q-3 -17 -21 -17h-153q-24 -101 -80 -333q-35 -146 -53.5 -218t-58.5 -197.5t-81 -209.5q-54 -111 -121.5 -166t-160.5 -55q-54 0 -91.5 30t-37.5 89q0 39 18 58t45 19q45 0 56 -45q3 -11 4 -36.5t4 -34.5q9 -31 45 -31q39 0 64.5 25t52.5 94
q93 246 190 665q15 59 82 346z" />
    <glyph glyph-name="circumflex" unicode="&#x2c6;" 
d="M346 1303l-260 -211q-39 -31 -55 -31q-17 0 -17 16q0 17 49 66l187 194q42 43 56 54.5t30 11.5h41q17 0 23.5 -7.5t25.5 -49.5l96 -211q21 -42 21 -56q0 -18 -17 -18q-14 0 -43 45z" />
    <glyph glyph-name="caron" unicode="&#x2c7;" 
d="M319 1161l261 211q39 31 55 31t16 -17q0 -11 -10 -23.5t-39 -41.5l-186 -195q-41 -42 -55.5 -53.5t-30.5 -11.5h-41q-17 0 -23.5 7.5t-25.5 49.5l-97 211q-20 40 -20 55q0 19 16 19q14 0 43 -45z" />
    <glyph glyph-name="uni02C9" unicode="&#x2c9;" 
d="M139 1249h447q16 0 16 -6q0 -7 -24 -49q-11 -21 -18 -26t-25 -5h-447q-16 0 -16 6q0 8 24 50q11 20 17.5 25t25.5 5z" />
    <glyph glyph-name="breve" unicode="&#x2d8;" 
d="M322 1061h-3q-102 0 -168.5 68.5t-66.5 185.5q0 41 22 41q21 0 21 -31q0 -64 57 -119t138 -55q89 0 161.5 47t100.5 131q9 27 22 27q19 0 19 -33q0 -39 -21.5 -83.5t-59 -85t-96.5 -67t-126 -26.5z" />
    <glyph glyph-name="dotaccent" unicode="&#x2d9;" 
d="M313 1128h-2q-29 0 -45 22.5t-16 55.5q0 42 31.5 85.5t72.5 43.5q30 0 49 -20.5t19 -50.5q0 -47 -32 -91.5t-77 -44.5z" />
    <glyph glyph-name="ring" unicode="&#x2da;" 
d="M344 1049h-2q-84 0 -142.5 58.5t-58.5 143.5t59 144t144 59t144 -59t59 -144t-59 -143.5t-144 -58.5zM344 1112h2q57 0 97 40.5t40 98.5q0 59 -40.5 99.5t-98.5 40.5t-98.5 -40.5t-40.5 -99.5t40.5 -99t98.5 -40z" />
    <glyph glyph-name="ogonek" unicode="&#x2db;" 
d="M147 0h52q-43 -35 -71 -80t-28 -90q0 -39 21 -56.5t53 -17.5q25 0 48.5 12t40.5 24.5t24 12.5q14 0 14 -18q0 -33 -56 -65.5t-116 -32.5q-57 0 -93 34t-36 97q0 49 43 99t104 81z" />
    <glyph glyph-name="tilde" unicode="&#x2dc;" 
d="M442 1118h-2q-36 0 -75 21.5t-67.5 47t-63 47t-60.5 21.5q-39 0 -73.5 -30t-55.5 -60t-27 -30q-8 0 -8 10q0 51 68 115.5t149 64.5q36 0 76.5 -21.5t70 -47t64 -47t58.5 -21.5q30 0 58.5 19t45.5 41.5t31.5 41.5t19.5 19q8 0 8 -11q0 -51 -68 -115.5t-149 -64.5z" />
    <glyph glyph-name="hungarumlaut" unicode="&#x2dd;" 
d="M422 1411h2q21 0 34 -13.5t13 -37.5q-1 -15 -12.5 -32t-20.5 -25.5t-30 -26.5l-213 -178q-43 -37 -60 -37q-16 0 -16 16q0 11 43 64l160 198q30 39 51 55.5t49 16.5zM715 1411h2q21 0 34 -13.5t13 -37.5q-1 -15 -13 -32.5t-20 -24.5t-31 -27l-213 -178q-43 -37 -59 -37
t-16 16q0 11 43 64l159 198q30 38 51.5 55t49.5 17z" />
    <glyph glyph-name="uni03A9" unicode="&#x3a9;" horiz-adv-x="1187" 
d="M1038 233l-104 -233h-377v29q12 16 79.5 99.5t103 133t91.5 133t93.5 164.5t60.5 162q32 114 39 207.5t-7.5 156t-47 105t-76 61.5t-96.5 19q-71 0 -140.5 -31.5t-136 -96.5t-125 -174.5t-100.5 -254.5q-27 -93 -35 -184t3.5 -184t22 -146t33.5 -142q5 -19 7 -28l-21 -29
h-371l31 233l37 5q-1 -89 17 -116.5t67 -27.5h180q-192 297 -98 629q78 269 260 431.5t387 162.5q206 0 292.5 -156.5t8.5 -425.5q-88 -307 -463 -641h181q55 0 82.5 23.5t82.5 120.5z" />
    <glyph glyph-name="uni03BC" unicode="&#x3bc;" horiz-adv-x="1024" 
d="M641 438l-4 4q-14 -19 -49.5 -70t-55.5 -78t-57.5 -74t-65 -74.5t-68 -62.5t-76.5 -53.5t-81 -32t-90 -13.5q-44 -94 -67 -226q-4 -25 -5.5 -32.5t-6.5 -32t-8.5 -34.5t-10.5 -29.5t-14.5 -28t-18 -19.5t-23.5 -15.5t-28 -4.5q-27 0 -40.5 15t-14.5 50q0 27 29 99
t67.5 157t48.5 113q55 160 88 260q28 89 99.5 262t78.5 193q31 84 31 102q0 27 -20 27q-44 0 -132 -119q-19 -25 -35.5 -50t-25.5 -38.5t-16.5 -25t-12 -15.5t-8.5 -4q-18 0 -18 16q0 11 33 65t79.5 117t106 113.5t104.5 50.5q39 0 57.5 -21t18.5 -69q0 -39 -45 -162
q-25 -65 -83.5 -208t-80.5 -199q-45 -120 -45 -156q0 -41 41 -41q39 0 116.5 58t160.5 159q202 245 311 582q5 16 10 23t16 8q14 2 80 2q19 0 19 -21q0 -3 -10 -33q-8 -24 -104 -283.5t-128 -365.5q-22 -74 -22 -98q0 -14 7 -22.5t17 -8.5q37 0 133 125q28 36 47.5 68.5
t26 42.5t14.5 10q19 0 19 -18q0 -14 -32.5 -67t-80 -114t-109 -109t-110.5 -48q-31 0 -47 20.5t-16 50.5q0 53 22.5 130.5t71.5 218.5q8 23 12 34z" />
    <glyph glyph-name="pi" unicode="&#x3c0;" horiz-adv-x="942" 
d="M942 872l33 -16q-37 -74 -96 -133q-29 -6 -123 -6q-19 -51 -43.5 -129t-61.5 -205.5t-41 -140.5q-50 -176 31 -176q27 0 50.5 13.5t58.5 47.5l14 -31q-95 -119 -199 -119q-45 0 -68 20t-28 72t23 142q56 198 165 510q-208 4 -280 4l-12 -43q-44 -150 -95.5 -280
t-95 -208.5t-73.5 -124t-46 -59.5q-69 -31 -102 -33v27q63 60 123 153.5t106.5 197.5t79.5 195.5t57 176.5q-54 0 -100 -12.5t-66.5 -23.5t-67.5 -41q-3 -1 -4 -2t-3.5 -2.5t-4 -2.5t-3.5 -2l-15 31q3 2 19 16.5t22 19.5t23.5 19t27.5 20.5t29.5 18.5t34 18t36 14t41.5 12
t44 6.5t49 2.5q56 0 202.5 -3t237.5 -3q41 0 64.5 11t56.5 48z" />
    <glyph glyph-name="endash" unicode="&#x2013;" horiz-adv-x="1024" 
d="M-6 504h983q16 0 16 -6t-6 -21l-16 -45q-3 -7 -6.5 -8.5t-16.5 -1.5h-983q-16 0 -16 6q0 2 1 5.5t2.5 8l2.5 7.5l16 45q5 10 23 10z" />
    <glyph glyph-name="emdash" unicode="&#x2014;" horiz-adv-x="2048" 
d="M-6 504h2007q16 0 16 -6t-6 -21l-16 -45q-3 -7 -6.5 -8.5t-16.5 -1.5h-2007q-16 0 -16 6q0 2 1 5.5t2.5 8l2.5 7.5l16 45q5 10 23 10z" />
    <glyph glyph-name="quoteleft" unicode="&#x2018;" 
d="M412 1061v-2q0 -39 -21.5 -61.5t-50.5 -22.5q-86 0 -86 125q0 60 25 124t59 108.5t66 73t47 28.5q7 0 11.5 -5.5t4.5 -11.5q0 -7 -12 -16.5t-39 -36.5t-54 -66q-21 -32 -34 -70.5t-13 -58.5q0 -28 27 -32q13 -2 35 -13q35 -15 35 -63z" />
    <glyph glyph-name="quoteright" unicode="&#x2019;" 
d="M291 1229v2q0 39 21.5 61.5t49.5 22.5q45 0 66 -34t21 -91q0 -60 -25 -124t-59 -108.5t-66 -73t-47 -28.5q-16 0 -16 16q0 7 11.5 16.5t38.5 36.5t54 66q21 32 34 70.5t13 58.5q0 29 -27 33q-15 3 -34 12q-35 15 -35 64z" />
    <glyph glyph-name="quotesinglbase" unicode="&#x201a;" 
d="M35 111v2q0 39 21.5 61.5t49.5 22.5q45 0 66 -34t21 -91q0 -60 -25 -124t-59 -108.5t-66 -73t-47 -28.5q-16 0 -16 16q0 7 11.5 16.5t38.5 36.5t54 66q21 32 34 70.5t13 58.5q0 26 -20 31q-25 7 -41 14q-35 15 -35 64z" />
    <glyph glyph-name="quotedblleft" unicode="&#x201c;" horiz-adv-x="796" 
d="M391 1061v-2q0 -39 -21.5 -61.5t-50.5 -22.5q-86 0 -86 125q0 60 25 124t59 108.5t66 73t47 28.5q7 0 11.5 -5.5t4.5 -11.5q0 -7 -11.5 -16.5t-38.5 -36.5t-54 -66q-21 -32 -34 -70.5t-13 -58.5q0 -28 27 -32q12 -2 34 -13q35 -15 35 -63zM770 1061v-2q0 -39 -21.5 -61.5
t-50.5 -22.5q-86 0 -86 125q0 60 25 124t59 108.5t66 73t47 28.5q7 0 11.5 -5.5t4.5 -11.5q0 -7 -11.5 -16.5t-38.5 -36.5t-54 -66q-21 -32 -34 -70.5t-13 -58.5q0 -28 26 -32q13 -2 35 -13q35 -15 35 -63z" />
    <glyph glyph-name="quotedblright" unicode="&#x201d;" horiz-adv-x="796" 
d="M276 1229v2q0 39 21.5 61.5t50.5 22.5q86 0 86 -125q0 -60 -25 -124t-58.5 -108.5t-65.5 -73t-47 -28.5q-7 0 -12 5t-5 11q0 7 12 16.5t39 36.5t54 66q21 32 34 70.5t13 58.5q0 29 -27 33q-17 3 -35 12q-35 15 -35 64zM655 1229v2q0 39 21.5 61.5t50.5 22.5q86 0 86 -125
q0 -60 -25 -124t-59 -108.5t-66 -73t-47 -28.5q-16 0 -16 16q0 7 12 16.5t39 36.5t54 66q21 32 34 70.5t13 58.5q0 29 -27 33q-16 3 -35 12q-35 15 -35 64z" />
    <glyph glyph-name="quotedblbase" unicode="&#x201e;" horiz-adv-x="796" 
d="M18 111v2q0 39 21.5 61.5t50.5 22.5q86 0 86 -125q0 -60 -25 -124t-58.5 -108.5t-65.5 -73t-47 -28.5q-7 0 -12 5t-5 11q0 7 12 16.5t39 36.5t54 66q21 32 34 70.5t13 58.5q0 29 -27 33q-16 3 -35 12q-35 15 -35 64zM397 111v2q0 39 21.5 61.5t50.5 22.5q86 0 86 -125
q0 -60 -25 -124t-59 -108.5t-66 -73t-47 -28.5q-16 0 -16 16q0 7 11.5 16.5t38.5 36.5t54 66q21 33 34.5 71t13.5 58q0 29 -27 33q-17 3 -35 12q-35 15 -35 64z" />
    <glyph glyph-name="dagger" unicode="&#x2020;" horiz-adv-x="1024" 
d="M291 -369h-45q62 252 109.5 476t47.5 272q0 63 -8 104q49 61 77 126t73 218q-70 0 -123 -14.5t-91.5 -28.5t-72.5 -14q-41 0 -65.5 21.5t-24.5 54.5q0 34 26.5 55t69.5 21q33 0 59.5 -9t45.5 -20t66.5 -20t117.5 -9q33 140 33 185q0 25 -6.5 71.5t-6.5 69.5q0 62 26 93.5
t71 31.5q34 0 52.5 -25.5t18.5 -62.5q0 -32 -18.5 -69.5t-42.5 -71.5t-51 -94t-41 -128q71 0 133 14.5t102.5 29t61.5 14.5q40 0 63 -20t23 -58q0 -32 -23 -55t-59 -23q-41 0 -77.5 15t-91 30.5t-140.5 15.5q-37 -160 -37 -239q0 -84 20 -111q-63 -67 -118.5 -248
t-153.5 -598z" />
    <glyph glyph-name="daggerdbl" unicode="&#x2021;" horiz-adv-x="1024" 
d="M971 844v-2q0 -32 -25 -52t-61 -20q-30 0 -73 15t-101.5 30.5t-126.5 15.5q-35 -158 -35 -249q0 -64 12 -119q-60 -67 -93.5 -152t-57.5 -200q70 0 164 30.5t124 30.5q41 0 65.5 -21.5t24.5 -54.5q0 -34 -26.5 -55t-69.5 -21q-33 0 -59.5 9t-45.5 20t-66.5 20t-117.5 9
q-32 -136 -32 -184q0 -25 6 -72t6 -70q0 -62 -25.5 -93.5t-70.5 -31.5q-34 0 -53 25.5t-19 62.5q0 32 18.5 69.5t43 71.5t51.5 94t41 128q-71 0 -133 -14.5t-102.5 -29t-61.5 -14.5q-40 0 -63 20t-23 58q0 33 25 53.5t61 20.5q34 0 76.5 -15t99 -30.5t125.5 -15.5
q3 17 12 59t13 63.5t8 55.5t4 63q0 60 -9 115q34 34 59 82.5t35.5 84t27 103t24.5 94.5q-70 0 -164.5 -30.5t-124.5 -30.5q-41 0 -65.5 21.5t-24.5 54.5q0 34 26.5 55t69.5 21q30 0 57.5 -9t48.5 -20t69 -20t114 -9q33 140 33 185q0 25 -6.5 71.5t-6.5 69.5q0 62 26 93.5
t71 31.5q34 0 52.5 -25.5t18.5 -62.5q0 -32 -18.5 -69.5t-42.5 -71.5t-51 -94t-41 -128q65 0 128 14.5t106.5 29t62.5 14.5q40 0 63 -20t23 -58z" />
    <glyph glyph-name="bullet" unicode="&#x2022;" horiz-adv-x="1024" 
d="M510 897h2q106 0 181 -73.5t75 -180.5t-75.5 -182.5t-182.5 -75.5q-105 0 -179.5 75.5t-74.5 182.5q-3 106 72.5 180t181.5 74z" />
    <glyph glyph-name="ellipsis" unicode="&#x2026;" horiz-adv-x="2048" 
d="M303 115v-2q0 -52 -22.5 -92.5t-63.5 -40.5q-29 0 -47 21.5t-18 55.5q0 53 22.5 94.5t63.5 41.5q29 0 47 -22t18 -56zM985 115v-2q0 -52 -22.5 -92.5t-63.5 -40.5q-29 0 -47 21.5t-18 55.5q0 53 22.5 94.5t63.5 41.5q29 0 47 -22t18 -56zM1667 115v-2q0 -52 -22.5 -92.5
t-63.5 -40.5q-29 0 -47 21.5t-18 55.5q0 53 22.5 94.5t63.5 41.5q29 0 47 -22t18 -56z" />
    <glyph glyph-name="perthousand" unicode="&#x2030;" horiz-adv-x="1859" 
d="M156 -20v2q0 9 32 55l856 1243q15 22 21.5 28.5t17.5 6.5h25q27 0 27 -12q0 -11 -33 -58l-856 -1243q-15 -22 -21.5 -28.5t-17.5 -6.5h-25q-26 0 -26 13zM471 1278h-2q-55 0 -107 -53.5t-85.5 -128.5t-53.5 -150.5t-20 -124.5q0 -33 3.5 -58.5t14 -51.5t32.5 -40t56 -14
q45 0 88.5 35.5t75 90t56 117.5t37 119.5t12.5 94.5q0 26 -2 46.5t-8.5 43.5t-18 38.5t-31.5 25.5t-47 10zM981 625h-2q-55 0 -107 -53.5t-85.5 -128.5t-53.5 -150.5t-20 -124.5q0 -33 3.5 -58.5t14 -51.5t32.5 -40t56 -14q56 0 108 53.5t85.5 129t54 150.5t20.5 124
q0 33 -3.5 58.5t-14 51.5t-32.5 40t-56 14zM309 621h-2q-94 0 -149.5 67t-55.5 182q0 103 50 206t136.5 171t182.5 68t151.5 -67.5t55.5 -182.5q0 -97 -47 -198.5t-134.5 -173.5t-187.5 -72zM819 -33h-2q-94 0 -149.5 67.5t-55.5 182.5q0 103 50 206t136.5 171t182.5 68
t151.5 -67.5t55.5 -182.5q0 -71 -28.5 -149.5t-76.5 -144t-118 -108.5t-146 -43zM1440 -33h-2q-94 0 -149.5 67.5t-55.5 182.5q0 103 50 206t136.5 171t182.5 68t151 -67.5t55 -182.5q0 -71 -28.5 -149.5t-76 -144t-117.5 -108.5t-146 -43zM1602 625h-3q-55 0 -107 -53.5
t-85.5 -128.5t-53.5 -150.5t-20 -124.5q0 -26 2 -46.5t8.5 -43.5t18 -38.5t31.5 -25.5t47 -10q56 0 108 53.5t85.5 129t54 150.5t20.5 124q0 33 -3.5 58.5t-14 51.5t-32.5 40t-56 14z" />
    <glyph glyph-name="guilsinglleft" unicode="&#x2039;" horiz-adv-x="569" 
d="M338 205h-78q-45 0 -59 39l-56 139q-10 27 -26 49q-10 13 -10 19q0 2 2.5 4l7.5 6t8 8q33 33 45 49l113 139q32 39 77 39h80q19 0 19 -8t-27 -8q-31 0 -86 -66l-100 -125q-22 -26 -39 -38q7 -9 20 -39l50 -125q25 -66 57 -66q24 0 24 -8t-22 -8z" />
    <glyph glyph-name="guilsinglright" unicode="&#x203a;" horiz-adv-x="569" 
d="M221 696h78q45 0 59 -39l56 -139q10 -27 26 -49q11 -15 11 -18q0 -2 -3 -4.5t-8 -6.5t-8 -8q-33 -33 -45 -49l-113 -139q-32 -39 -77 -39h-80q-19 0 -19 8t27 8q31 0 86 66l100 125q25 29 39 39q-8 10 -20 38l-49 125q-25 66 -58 66q-24 0 -24 8t22 8z" />
    <glyph glyph-name="fraction" unicode="&#x2044;" horiz-adv-x="342" 
d="M-293 -20v2q0 8 33 55l856 1243q15 22 21.5 28.5t17.5 6.5h24q27 0 27 -12q0 -11 -33 -58l-856 -1243q-15 -22 -21.5 -28.5t-17.5 -6.5h-24q-27 0 -27 13z" />
    <glyph glyph-name="Euro" unicode="&#x20ac;" horiz-adv-x="909" 
d="M659 600l-28 -49h-328q-16 -98 -16 -191q0 -175 39 -259.5t131 -84.5q85 0 144 54t101 155q68 161 73 169q11 20 26 20q18 0 18 -23q0 -22 -26 -117l-64 -227q-3 -10 -36.5 -28.5t-80.5 -30.5q-79 -21 -180 -21q-148 0 -222.5 114.5t-74.5 319.5q0 68 10 150h-149l29 49
h129q14 69 39 139h-144l29 49h135q101 239 301 383t416 144q58 0 78 -9.5t20 -29.5q0 -28 -74 -293q-1 -5 -3 -12.5t-3 -10.5t-2.5 -9t-2.5 -8l-3 -6t-4 -5t-4.5 -3t-6 -2.5t-7.5 -0.5q-25 0 -25 22q0 10 16.5 134.5t16.5 144.5q0 39 -35 39q-86 0 -183 -56.5t-189 -167.5
t-150 -254h376l-28 -49h-367q-25 -70 -39 -139h348z" />
    <glyph glyph-name="afii61289" unicode="&#x2113;" horiz-adv-x="673" 
d="M502 176l22 -24q-143 -181 -313 -181q-111 0 -143 72q-31 81 24 268l49 176l-125 -86l-10 37l152 109l65 229q72 249 117 349.5t119 166.5q81 78 151 78q67 0 85.5 -70t-11.5 -170q-83 -283 -412 -563l-59 -202q-35 -119 -34.5 -190.5t26.5 -96.5t76 -25q105 0 221 123z
M365 891l-72 -250q108 104 196 238.5t123 253.5q24 83 16 134.5t-48 51.5q-50 0 -99.5 -99t-115.5 -329z" />
    <glyph glyph-name="trademark" unicode="&#x2122;" horiz-adv-x="2027" 
d="M233 1110h-40v172h622v-172h-41q-8 58 -39 94.5t-82 36.5h-96v-561q0 -70 13 -86t79 -23v-41h-291v41q63 7 75.5 23.5t12.5 85.5v561h-92q-50 0 -81.5 -37t-39.5 -94zM899 1282h203l301 -598l295 598h188v-41q-56 -3 -80 -30.5t-24 -80.5v-481q0 -49 12 -59t78 -19v-41
h-291v41q66 9 78 19t12 59v457h-4l-287 -582h-16l-289 582h-4v-416q0 -60 20 -86t78 -33v-41h-241v41q58 7 76 32.5t18 86.5v463q-12 38 -47.5 63t-75.5 25v41z" />
    <glyph glyph-name="Omega" unicode="&#x2126;" horiz-adv-x="1187" 
d="M1038 233l-104 -233h-377v29q12 16 79.5 99.5t103 133t91.5 133t93.5 164.5t60.5 162q32 114 39 207.5t-7.5 156t-47 105t-76 61.5t-96.5 19q-71 0 -140.5 -31.5t-136 -96.5t-125 -174.5t-100.5 -254.5q-27 -93 -35 -184t3.5 -184t22 -146t33.5 -142q5 -19 7 -28l-21 -29
h-371l31 233l37 5q-1 -89 17 -116.5t67 -27.5h180q-192 297 -98 629q78 269 260 431.5t387 162.5q206 0 292.5 -156.5t8.5 -425.5q-88 -307 -463 -641h181q55 0 82.5 23.5t82.5 120.5z" />
    <glyph glyph-name="estimated" unicode="&#x212e;" horiz-adv-x="1839" 
d="M1776 621h-1211q-10 0 -10 -9v-364q0 -22 14 -43q92 -93 210.5 -146t248.5 -53q141 0 266 59.5t215 163.5h109q-101 -120 -257 -190t-335 -70q-152 0 -290 53t-237.5 142.5t-158.5 213.5t-59 261t59 262t158.5 215t237.5 143.5t290 53.5q204 0 376.5 -90t273 -245.5
t100.5 -338.5v-18zM1499 670v366q0 26 -16 45q-198 191 -455 191q-129 0 -247 -52.5t-210 -144.5q-16 -19 -16 -45v-360q0 -4 3 -8.5t7 -4.5h928q6 0 6 13z" />
    <glyph glyph-name="partialdiff" unicode="&#x2202;" horiz-adv-x="868" 
d="M500 784h2q65 0 118.5 -33t75.5 -98q39 100 70 197q45 149 39 299q-5 80 -52 142.5t-126 62.5q-111 0 -244 -88q-12 -2 -20.5 12t-8 36t12.5 40q121 73 247 73q111 0 172 -66.5t84 -195.5q30 -172 -43 -430q-34 -117 -90 -247.5t-125 -229.5q-200 -287 -407 -287
q-135 0 -187.5 99t-3.5 274q50 172 183 301q63 60 145.5 99.5t157.5 39.5zM510 721h-2q-117 0 -225 -111q-113 -128 -172 -327q-17 -68 -15 -126.5t33.5 -97.5t85.5 -39q125 0 262 197q100 143 187 361q-5 51 -46.5 97t-107.5 46z" />
    <glyph glyph-name="Delta" unicode="&#x2206;" horiz-adv-x="1040" 
d="M819 0h-917l10 35l790 1265l54 17l73 -1282zM700 72l-53 1042l-647 -1042h700z" />
    <glyph glyph-name="product" unicode="&#x220f;" horiz-adv-x="1323" 
d="M1278 1296v-41q-46 -3 -71 -7t-43 -9.5t-24.5 -19t-9 -28t-2.5 -44.5v-1147q0 -41 3.5 -61t19.5 -35.5t43 -20.5t80 -8v-41h-397v41q99 6 120 24t21 101v1190q0 35 -10 45t-47 10h-383q-37 0 -47.5 -9t-10.5 -42v-1194q0 -32 0.5 -44t4.5 -29.5t10.5 -22.5t23 -13
t37.5 -10.5t57 -5.5v-41h-387v41q44 3 66 7t40.5 10.5t25 21t9.5 33t3 53.5v1147q0 29 -2.5 44t-9 28t-25.5 18.5t-42.5 9.5t-70.5 8v41h1018z" />
    <glyph glyph-name="summation" unicode="&#x2211;" horiz-adv-x="1120" 
d="M1081 137l-67 -303h-752v35l387 678l-377 715v34h744q0 -22 18 -272l-41 -6q-15 106 -49 172q-18 32 -51.5 43.5t-126.5 11.5h-350l336 -624l-383 -684h442q40 0 61.5 1.5t45.5 9t36 19t28 37t28 57.5t30 86z" />
    <glyph glyph-name="minus" unicode="&#x2212;" horiz-adv-x="1228" 
d="M1130 467h-1032v102h1032v-102z" />
    <glyph glyph-name="uni2215" unicode="&#x2215;" horiz-adv-x="342" 
d="M-293 -20v2q0 8 33 55l856 1243q15 22 21.5 28.5t17.5 6.5h24q27 0 27 -12q0 -11 -33 -58l-856 -1243q-15 -22 -21.5 -28.5t-17.5 -6.5h-24q-27 0 -27 13z" />
    <glyph glyph-name="uni2219" unicode="&#x2219;" 
d="M301 547v-2q0 -52 -22.5 -92.5t-63.5 -40.5q-29 0 -47 21.5t-18 55.5q0 53 22.5 94.5t63.5 41.5q29 0 47 -22t18 -56z" />
    <glyph glyph-name="radical" unicode="&#x221a;" horiz-adv-x="1136" 
d="M1102 1677l-273 -1939l-26 -17l-371 1027l-147 -68l-17 51l242 113l297 -850h4l233 1698z" />
    <glyph glyph-name="infinity" unicode="&#x221e;" horiz-adv-x="1366" 
d="M1282 543v-2q0 -118 -75 -192.5t-179 -74.5q-76 0 -145 46.5t-164 152.5q-41 -47 -69 -75t-69.5 -60.5t-85.5 -48t-92 -15.5q-104 0 -177.5 76t-73.5 185q0 114 74 189t188 75q86 0 158 -52.5t153 -148.5q86 95 126 128q90 73 189 73q107 0 174.5 -71t67.5 -185zM412 350
h2q23 0 45 5.5t44 18.5t38 23t38.5 32t33 33t34 37t29.5 33q-36 44 -47.5 57.5t-45.5 48t-56 48t-56.5 26.5t-69.5 13q-77 0 -122.5 -56.5t-45.5 -136.5q2 -78 52 -130t127 -52zM1030 725h-2q-32 0 -64 -12.5t-61.5 -37t-50.5 -44.5t-48.5 -51t-37.5 -41q96 -107 149.5 -148
t116.5 -41q77 0 123.5 56t46.5 129q0 89 -48 139.5t-124 50.5z" />
    <glyph glyph-name="integral" unicode="&#x222b;" horiz-adv-x="837" 
d="M496 43l-33 791q-8 182 2 317.5t32 215.5t57.5 128.5t72.5 65t84 16.5q34 0 62 -19.5t28 -52.5q0 -29 -18 -45t-44 -16q-22 0 -35 16t-24.5 31.5t-28.5 15.5q-14 0 -26.5 -8t-25.5 -30t-22 -56.5t-13 -92.5t-1 -132l31 -729q4 -129 4 -232t-9.5 -183.5t-21 -140.5
t-31 -103.5t-39 -71t-45.5 -43.5t-50 -22.5t-52 -6.5q-41 0 -66.5 22t-25.5 54q-1 29 20 48t54 19q23 0 44 -33.5t40 -33.5q42 0 64.5 85.5t15.5 225.5z" />
    <glyph glyph-name="approxequal" unicode="&#x2248;" horiz-adv-x="970" 
d="M846 772l53 -43q-75 -162 -211 -162q-31 0 -63.5 10t-54 21t-70.5 39q-94 57 -152 57q-52 0 -89 -33t-71 -94l-55 41q36 76 95 120t130 44q19 0 39 -4t34.5 -8.5t33.5 -13.5t28.5 -14.5t27 -16l22.5 -13.5q36 -21 53 -30.5t43.5 -18t52.5 -8.5q47 0 82.5 31t71.5 96z
M846 492l53 -41q-78 -164 -211 -164q-31 0 -63 9.5t-55 21t-70 38.5q-39 23 -54 31t-44 18.5t-54 10.5q-53 0 -90 -34t-70 -95l-55 41q36 76 95 120t130 44q29 0 59 -8.5t45.5 -16t44.5 -24.5t34 -19q38 -23 54 -31.5t44 -18t55 -9.5q47 0 81.5 30.5t70.5 96.5z" />
    <glyph glyph-name="notequal" unicode="&#x2260;" horiz-adv-x="1011" 
d="M750 891l-74 -162h252v-80h-283l-108 -243h391v-80h-424l-84 -193l-64 29l74 164h-242v80h275l106 243h-381v80h412l86 191z" />
    <glyph glyph-name="lessequal" unicode="&#x2264;" horiz-adv-x="1050" 
d="M965 203l-727 387v82l727 385v-99l-643 -325v-4l643 -328v-98zM969 47h-740v84h740v-84z" />
    <glyph glyph-name="greaterequal" unicode="&#x2265;" horiz-adv-x="1052" 
d="M238 1057l729 -385v-84l-729 -385v96l641 328v4l-641 327v99zM969 47h-740v84h740v-84z" />
    <glyph glyph-name="lozenge" unicode="&#x25ca;" horiz-adv-x="1153" 
d="M1067 631l-334 -748h-96l-334 748l336 753h94zM977 631l-287 661h-6l-291 -659l291 -662h6z" />
    </font>
</defs>
</svg>
